<?xml version="1.0" standalone="no"?>
<!DOCTYPE svg PUBLIC "-//W3C//DTD SVG 1.1//EN" "http://www.w3.org/Graphics/SVG/1.1/DTD/svg11.dtd" >
<svg xmlns="http://www.w3.org/2000/svg">
<metadata>
This is a custom SVG webfont generated by Font Squirrel.
Copyright   : Copyright c 2009 Matt McInerney mattpixelspreadcom
Designer    : Matt McInerney
Foundry     : Matt McInerney
</metadata>
<defs>
<font id="AllertaMedium" horiz-adv-x="0" >
<font-face units-per-em="2048" ascent="1536" descent="-512" />
<missing-glyph horiz-adv-x="548" />
<glyph unicode=" "  horiz-adv-x="548" />
<glyph unicode="&#x09;" horiz-adv-x="548" />
<glyph unicode="&#xa0;" horiz-adv-x="548" />
<glyph unicode="!" horiz-adv-x="584" d="M150 136q0 60 42 101t100 41q60 0 102 -41t42 -101t-42 -102t-102 -42t-101 42t-41 102zM170 1474h244l-34 -1066h-178z" />
<glyph unicode="&#x22;" horiz-adv-x="898" d="M164 1474h202l-32 -346h-138zM532 1474h204l-34 -346h-136z" />
<glyph unicode="$" horiz-adv-x="1084" d="M162 98l42 172q28 -16 71 -31t89 -28t92 -21t86 -8q122 0 187 57t65 169q0 68 -46 116t-115 87t-149 78t-150 92t-116 125t-46 180q0 82 27 150t73 119t109 84t135 47v172h162v-162q78 -4 154 -21t124 -49q-12 -26 -28 -57l-30 -58l-24 -45q-10 -18 -12 -20q-12 6 -27 16 t-43 20t-74 14t-118 -2q-40 -4 -76 -23t-64 -47t-44 -63t-16 -67q0 -80 46 -129t114 -86t148 -72t149 -85t115 -125t46 -193q0 -70 -25 -136t-72 -120t-113 -93t-152 -53v-196h-162v188q-86 4 -178 28t-154 76z" />
<glyph unicode="%" horiz-adv-x="1610" d="M114 -2l1168 1476h202l-1166 -1476h-204zM120 1190q0 64 21 117t57 92t81 61t97 22t98 -22t81 -61t55 -92t20 -117t-20 -117t-55 -93t-81 -63t-98 -23t-97 23t-81 63t-57 93t-21 117zM248 1190q0 -82 37 -127t91 -45t92 45t38 127q0 80 -38 125t-92 45t-91 -45t-37 -125z M958 286q0 64 21 117t57 92t81 62t97 23t98 -23t81 -62t55 -92t20 -117t-20 -117t-55 -93t-81 -62t-98 -22t-97 22t-81 62t-57 94t-21 116zM1086 286q0 -82 37 -127t91 -45t92 45t38 127q0 80 -38 125t-92 45t-91 -45t-37 -125z" />
<glyph unicode="&#x26;" horiz-adv-x="1410" d="M146 346q0 80 24 148t64 123t91 100t103 77q-24 24 -56 59t-61 79t-48 100t-19 118q0 70 26 132t76 108t116 72t146 26q70 0 137 -21t118 -64t81 -110t30 -157q-4 -78 -28 -141t-63 -113t-86 -87t-93 -61q38 -54 98 -118l114 -126q22 34 42 71t44 89l156 -64 q-22 -64 -54 -126t-68 -124l270 -336h-250l-138 172q-64 -86 -168 -136t-246 -50q-64 0 -127 20t-115 64t-84 113t-32 163zM340 346q0 -22 9 -54t31 -61t56 -50t88 -21q62 0 106 16t78 40t58 51t42 51q-66 82 -142 167t-128 157q-104 -66 -151 -145t-47 -151zM438 1150 q0 -52 18 -94t42 -76t50 -61t42 -45q98 40 148 113t50 145q0 80 -52 121t-128 41q-30 0 -61 -10t-56 -30t-39 -46t-14 -58z" />
<glyph unicode="'" horiz-adv-x="500" d="M150 1474h202l-32 -346h-138z" />
<glyph unicode="(" horiz-adv-x="588" d="M116 722q0 104 18 222t45 229t64 201t75 140h126q-16 -22 -43 -89t-52 -173t-46 -249t-23 -321q-2 -156 22 -292t58 -241t67 -176t53 -95h-138q-44 56 -84 152t-71 213t-51 243t-20 236z" />
<glyph unicode=")" horiz-adv-x="586" d="M108 -122q18 24 52 95t68 176t58 241t22 292q-2 178 -23 321t-47 249t-53 172t-41 90h126q36 -50 73 -140t65 -201t46 -228t18 -223q0 -110 -20 -236t-51 -243t-72 -214t-83 -151h-138z" />
<glyph unicode="*" horiz-adv-x="934" d="M110 1142l42 148l244 -92l-90 244l146 40l44 -256l166 202l106 -110l-200 -164l258 -44l-42 -148l-244 92l90 -246l-146 -38l-44 256l-166 -200l-106 106l200 168z" />
<glyph unicode="+" horiz-adv-x="1296" d="M84 462v204h462v462h204v-462h462v-204h-462v-462h-204v462h-462z" />
<glyph unicode="," horiz-adv-x="540" d="M130 136q0 60 41 101t101 41t102 -42t42 -100q0 -10 -2 -47t-19 -90t-55 -115t-112 -124h-94q40 38 66 80t42 76q18 38 30 76q-60 0 -101 42t-41 102z" />
<glyph unicode="-" horiz-adv-x="978" d="M172 484v202h636v-202h-636z" />
<glyph unicode="." horiz-adv-x="414" d="M66 136q0 60 42 101t100 41q60 0 102 -41t42 -101t-42 -102t-102 -42t-101 42t-41 102z" />
<glyph unicode="/" horiz-adv-x="908" d="M68 -44l614 1642h162l-614 -1642h-162z" />
<glyph unicode="0" horiz-adv-x="1424" d="M148 744q0 186 39 327t112 235t177 143t236 49t236 -49t178 -143t113 -235t39 -327t-39 -328t-113 -236t-178 -142t-236 -48t-236 48t-177 142t-112 236t-39 328zM392 744q2 -122 16 -216t42 -160l416 890q-66 42 -148 42q-74 0 -134 -28t-102 -95t-65 -173t-25 -260z M550 236q62 -50 156 -50q74 0 135 29t103 95t65 173t25 261q-2 250 -66 384z" />
<glyph unicode="1" horiz-adv-x="844" d="M58 1100l374 374h244v-1474h-244v1130l-202 -202z" />
<glyph unicode="2" horiz-adv-x="1228" d="M158 1350q36 32 89 58t110 42t113 25t104 9q130 0 223 -42t153 -107t89 -145t29 -154q0 -78 -34 -161t-90 -164t-123 -157t-134 -144l-126 -123l-97 -93h626v-194h-916v224l100 87l138 123q74 68 148 145t135 156t100 155t39 144q0 70 -25 117t-63 77t-83 42t-85 12 q-78 0 -129 -5t-89 -14t-68 -25t-64 -36z" />
<glyph unicode="3" horiz-adv-x="1156" d="M148 60l54 172q18 -10 34 -22t46 -23t84 -18t148 -7q138 0 206 75t68 189q0 108 -62 182t-182 74h-204h2l-2 162h136q44 0 89 2t85 22t66 68t26 138q0 36 -6 76t-33 74t-79 55t-144 21t-147 -17t-83 -27l-70 180q48 14 119 30t205 16q94 0 178 -23t147 -73t100 -128 t37 -184q0 -62 -22 -113t-56 -89t-76 -63t-78 -33q46 -6 95 -30t91 -68t70 -107t28 -145q0 -100 -29 -173t-73 -121t-99 -77t-107 -43t-95 -18t-67 -4q-168 0 -265 23t-135 47z" />
<glyph unicode="4" horiz-adv-x="1242" d="M76 344v190l638 940h244v-940h154v-190h-154v-344h-244v344h-638zM290 534h424v660z" />
<glyph unicode="5" horiz-adv-x="1210" d="M156 652q0 16 4 60l10 105q6 61 14 133l16 146l46 378h730v-196h-550l-32 -230q-12 -82 -17 -122t-6 -49t-1 -11q14 14 46 24t68 16t71 8t55 2q104 0 187 -37t141 -99t88 -140t30 -162q0 -164 -54 -261t-133 -148t-165 -65t-148 -14q-68 0 -130 11t-113 28t-89 34t-58 27 v200q28 -18 71 -39t91 -40t101 -31t99 -12q148 0 232 76t84 234q0 114 -73 180t-191 66q-72 0 -138 -17t-114 -55h-172z" />
<glyph unicode="6" horiz-adv-x="1292" d="M146 582q0 264 48 439t125 277t172 144t189 42q112 0 211 -14t169 -60l-76 -166q-56 36 -124 45t-158 9q-82 0 -142 -36t-99 -96t-59 -138t-20 -162q2 2 8 2t8 2q26 54 109 91t187 37t189 -42t145 -110t91 -152t31 -168q0 -156 -50 -259t-124 -166t-160 -88t-158 -25 q-132 0 -228 44t-160 124t-94 188t-30 238zM372 506q0 -70 23 -129t61 -102t90 -68t114 -25q60 0 111 25t89 68t59 102t21 129t-21 127t-59 98t-90 65t-110 24q-62 0 -114 -24t-90 -65t-61 -98t-23 -127z" />
<glyph unicode="7" horiz-adv-x="1138" d="M126 1278v196h926l-572 -1474h-224l512 1278h-642z" />
<glyph unicode="8" horiz-adv-x="1214" d="M144 382q0 148 69 249t181 151q-86 62 -145 139t-59 181q0 92 34 164t92 121t137 73t167 24q108 0 184 -31t123 -84t69 -121t22 -142q0 -48 -19 -93t-49 -87t-68 -80t-78 -70q54 -34 103 -73t86 -86t59 -103t22 -122q0 -96 -37 -172t-99 -129t-144 -81t-174 -28 q-230 0 -353 106t-123 294zM358 394q0 -48 20 -89t55 -71t84 -47t103 -17q50 0 94 16t76 44t50 63t18 71q0 52 -28 96t-73 83t-102 75l-119 72l-57 -50q-31 -28 -57 -64t-45 -82t-19 -100zM396 1098q0 -34 22 -66t61 -61t89 -58l106 -59q52 44 96 104t44 144q0 58 -16 94 t-41 58t-60 30t-75 8q-98 0 -162 -48t-64 -146z" />
<glyph unicode="9" horiz-adv-x="1290" d="M140 946q0 156 50 259t125 166t161 88t156 25q132 0 228 -44t160 -124t94 -188t30 -238q0 -264 -48 -438t-125 -277t-172 -144t-189 -41q-112 0 -210 15t-170 63l78 166q56 -36 123 -46t157 -10q82 0 142 36t99 95t59 136t20 161q-2 -2 -8 -2t-8 -2q-26 -54 -109 -90 t-187 -36t-189 42t-145 109t-91 151t-31 168zM350 966q0 -70 22 -127t59 -99t89 -64t110 -22q62 0 114 22t90 64t61 100t23 126q0 70 -23 130t-61 103t-90 67t-114 24q-60 0 -111 -24t-88 -67t-59 -103t-22 -130z" />
<glyph unicode=":" horiz-adv-x="588" d="M154 134q0 60 42 101t100 41q60 0 102 -41t42 -101t-42 -102t-102 -42t-101 42t-41 102zM154 996q0 60 42 101t100 41q60 0 102 -41t42 -101t-42 -102t-102 -42t-101 42t-41 102z" />
<glyph unicode=";" horiz-adv-x="548" d="M132 136q0 -60 42 -102t100 -42q-12 -36 -30 -76q-16 -34 -42 -75t-66 -81h94q74 62 112 124t55 115t19 89t2 48q0 60 -42 101t-102 41t-101 -42t-41 -100zM132 996q0 60 42 101t100 41q60 0 102 -41t42 -101t-42 -102t-102 -42t-101 42t-41 102z" />
<glyph unicode="&#x3c;" horiz-adv-x="1290" d="M58 508v136l1064 514v-180l-876 -402l876 -408v-180z" />
<glyph unicode="=" horiz-adv-x="1276" d="M172 280v204h934v-204h-934zM172 686v202h934v-202h-934z" />
<glyph unicode="&#x3e;" horiz-adv-x="1294" d="M172 -12v180l876 408l-876 402v180l1064 -514v-136z" />
<glyph unicode="?" horiz-adv-x="1014" d="M136 1426q60 38 152 55t186 17q88 0 168 -28t142 -81t99 -129t37 -174q0 -106 -33 -177t-81 -120t-105 -85t-106 -76t-81 -92t-32 -130h-182q0 118 28 193t72 125t95 84t95 71t73 86t29 129q0 32 -16 67t-44 63t-65 47t-75 23q-72 6 -118 2t-74 -14t-43 -20t-27 -16 q-2 2 -13 20t-24 45t-29 57t-28 58zM248 136q0 60 42 101t102 41t101 -41t41 -101t-42 -102t-100 -42q-60 0 -102 42t-42 102z" />
<glyph unicode="@" horiz-adv-x="2080" d="M148 602q0 242 69 427t196 311t303 192t388 66t374 -77t271 -205t164 -294t55 -346q0 -126 -31 -229t-88 -175t-139 -112t-184 -40q-34 0 -78 11t-84 30t-75 46t-49 61h-20q-4 -20 -26 -41t-57 -36t-79 -25t-92 -10q-86 0 -150 38t-107 101t-65 146t-22 173q0 120 34 205 t86 136t117 73t129 22q76 0 139 -26t93 -70l22 88h170l2 -582q0 -50 14 -81t34 -50t45 -27t45 -8q112 0 167 92t55 290q0 162 -49 295t-137 229t-211 149t-273 53q-196 0 -341 -62t-238 -170t-138 -254t-45 -314q0 -140 39 -259t92 -212t109 -153t92 -84l-112 -134 q-62 52 -135 136t-135 193t-103 239t-41 274zM822 600q0 -62 15 -116t42 -94t64 -63t83 -23q50 0 87 23t64 64t41 95t14 116q0 64 -15 119t-43 96t-65 65t-85 24t-85 -25t-64 -66t-40 -97t-13 -118z" />
<glyph unicode="A" horiz-adv-x="1518" d="M126 0l516 1472h238l512 -1472h-248l-106 306h-554l-108 -306h-250zM540 468h440l-218 636z" />
<glyph unicode="B" horiz-adv-x="1342" d="M192 0v1474h424q94 0 182 -22t156 -70t108 -125t40 -183q0 -62 -20 -113t-50 -89t-69 -63t-75 -33q46 -6 98 -30t97 -68t75 -107t30 -145q0 -100 -30 -172t-75 -119t-98 -74t-102 -41t-87 -17t-50 -3h-554zM432 176h300q106 0 166 68t60 182q0 108 -62 182t-182 74h-282 v-506zM432 844h10h168q44 0 90 2t86 22t65 68t25 138q0 36 -10 75t-40 71t-86 52t-148 20h-160v-448z" />
<glyph unicode="C" horiz-adv-x="1342" d="M158 744q0 186 47 327t130 235t195 143t242 49q120 0 224 -40t186 -120l-166 -148q-50 58 -111 84t-127 26q-74 0 -141 -28t-120 -95t-83 -173t-32 -260q2 -150 31 -256t80 -173t116 -98t137 -31t135 26t115 84l166 -146q-82 -80 -186 -120t-224 -40q-132 0 -243 48 t-194 142t-130 236t-47 328z" />
<glyph unicode="D" horiz-adv-x="1540" d="M192 0v1474h444q186 0 327 -59t234 -157t139 -223t46 -257q0 -182 -39 -311t-99 -216t-135 -137t-145 -75t-128 -32t-86 -7h-558zM432 176h238q244 0 352 156t108 452q0 92 -22 182t-85 163t-171 118t-280 45h-140v-1116z" />
<glyph unicode="E" horiz-adv-x="1256" d="M190 0v1474h922v-182h-678v-464h616v-164h-616v-482h678v-182h-922z" />
<glyph unicode="F" horiz-adv-x="1182" d="M190 0v1474h922v-182h-678v-464h616v-164h-616v-664h-244z" />
<glyph unicode="G" horiz-adv-x="1420" d="M158 744q0 186 47 327t130 235t195 143t242 49q120 0 224 -40t186 -120l-166 -148q-48 58 -110 84t-128 26q-74 0 -141 -28t-120 -95t-83 -173t-32 -260q2 -150 31 -260t80 -180t116 -104t137 -34q22 0 59 3t74 10t71 19t50 34v364h-250v164h488v-570q-46 -58 -103 -95 t-120 -61t-130 -34t-133 -10q-132 0 -243 48t-194 142t-130 236t-47 328z" />
<glyph unicode="H" horiz-adv-x="1498" d="M188 0v1474h244v-646h638v646h240v-1474h-240v664h-638v-664h-244z" />
<glyph unicode="I" horiz-adv-x="616" d="M188 0v1474h244v-1474h-244z" />
<glyph unicode="J" horiz-adv-x="1130" d="M52 124l102 162q20 -14 57 -29t81 -28t92 -23t90 -10q106 0 169 41t67 139v1128h244v-1148q0 -104 -38 -175t-102 -114t-147 -60t-171 -17q-44 0 -103 9t-122 28t-121 43t-98 54z" />
<glyph unicode="K" horiz-adv-x="1336" d="M186 0v1474h244v-738l440 738h274l-472 -758l512 -716h-278l-476 700v-700h-244z" />
<glyph unicode="L" horiz-adv-x="1168" d="M186 0v1474h244v-1292h678v-182h-922z" />
<glyph unicode="M" horiz-adv-x="1730" d="M184 0v1474h244l438 -1008l436 1008h244v-1474h-244v1014l-330 -820h-212l-332 820v-1014h-244z" />
<glyph unicode="N" horiz-adv-x="1432" d="M184 0v1474h244l578 -1016v1016h244v-1474h-244l-578 1016v-1016h-244z" />
<glyph unicode="O" horiz-adv-x="1536" d="M154 744q0 186 47 327t130 235t194 143t243 49t243 -49t194 -143t130 -235t47 -327t-47 -328t-130 -236t-194 -142t-243 -48t-243 48t-194 142t-130 236t-47 328zM398 744q2 -150 31 -256t80 -173t116 -98t137 -31q74 0 141 29t120 95t83 173t32 261q-2 150 -31 255 t-80 173t-116 98t-137 30q-74 0 -141 -28t-120 -95t-83 -173t-32 -260z" />
<glyph unicode="P" horiz-adv-x="1210" d="M182 0v1474h424q94 0 186 -30t165 -90t118 -145t45 -191q0 -112 -38 -203t-106 -153t-164 -96t-212 -34h-178v-532h-240zM422 708h220q44 0 87 15t79 49t58 95t22 151q0 36 -10 83t-41 90t-87 72t-148 29h-180v-584z" />
<glyph unicode="Q" horiz-adv-x="1498" d="M126 744q0 186 48 327t131 235t194 143t243 49t243 -49t194 -143t130 -235t47 -327q0 -152 -36 -276t-98 -218t-144 -154t-174 -78l276 -356h-264l-194 332h-58q-116 14 -215 68t-171 148t-112 228t-40 306zM370 744q2 -150 32 -256t80 -173t116 -98t138 -31q74 0 141 29 t119 95t83 173t33 261q-2 150 -32 255t-80 173t-115 98t-137 30q-74 0 -142 -28t-120 -95t-83 -173t-33 -260z" />
<glyph unicode="R" horiz-adv-x="1320" d="M180 0v1474h424q94 0 186 -30t165 -90t118 -145t45 -191q0 -160 -74 -272t-200 -166l336 -580h-254l-278 534q-6 0 -16 -1t-31 -1h-64h-117v-532h-240zM420 708h218q44 0 88 15t80 49t58 95t22 151q0 36 -10 83t-41 90t-87 72t-148 29h-180v-584z" />
<glyph unicode="S" horiz-adv-x="1084" d="M162 98l42 172q28 -16 71 -31t89 -28t92 -21t86 -8q122 0 187 57t65 169q0 68 -46 116t-115 87t-149 78t-150 92t-116 125t-46 180q0 98 36 174t97 129t142 81t171 28q92 0 186 -17t152 -55q-12 -26 -28 -57l-30 -58l-24 -45q-10 -18 -12 -20q-12 6 -27 16t-43 20t-74 14 q-18 2 -41 2q-34 0 -77 -4q-40 -4 -76 -23t-64 -47t-44 -63t-16 -67q0 -80 46 -129t114 -86t148 -72t149 -85t115 -125t46 -193q0 -80 -33 -155t-93 -132t-148 -91t-200 -34q-48 0 -99 5t-103 17t-99 33t-81 51z" />
<glyph unicode="T" horiz-adv-x="1326" d="M102 1310v164h1122v-164h-440v-1310h-242v1310h-440z" />
<glyph unicode="U" horiz-adv-x="1474" d="M164 744v730h244v-706q0 -164 23 -276t65 -179t102 -97t134 -30q76 0 138 28t106 94t68 178t24 282v706h242v-730q0 -186 -41 -328t-115 -236t-180 -142t-236 -48q-132 0 -237 48t-180 142t-116 236t-41 328z" />
<glyph unicode="V" horiz-adv-x="1486" d="M120 1474h274l342 -1272l362 1272h272l-480 -1482h-312z" />
<glyph unicode="W" horiz-adv-x="2186" d="M146 1474h272l260 -1272l280 1272h272l260 -1272l282 1272h272l-398 -1482h-312l-242 1112l-258 -1112h-314z" />
<glyph unicode="X" horiz-adv-x="1404" d="M148 1474h274l260 -600h20l282 600h274l-398 -758l374 -716h-278l-234 556h-20l-252 -556h-278l374 716z" />
<glyph unicode="Y" horiz-adv-x="1310" d="M108 1474h274l254 -660h22l274 660h274l-438 -874v-600h-244v580z" />
<glyph unicode="Z" horiz-adv-x="1290" d="M156 0v194l702 1054l42 32h-744v194h980v-194l-702 -1054l-40 -32h742v-194h-980z" />
<glyph unicode="[" horiz-adv-x="654" d="M172 -122v1636h368v-162h-206v-1314h206v-160h-368z" />
<glyph unicode="\" horiz-adv-x="910" d="M68 1598h162l614 -1642h-162z" />
<glyph unicode="]" horiz-adv-x="654" d="M172 38h206v1314h-206v162h368v-1636h-368v160z" />
<glyph unicode="`" horiz-adv-x="448" d="M48 1554h242l136 -284h-162z" />
<glyph unicode="a" horiz-adv-x="1200" d="M142 334q0 92 39 159t100 110t139 64t158 21h170q0 98 -10 156t-34 85t-59 34t-83 7q-44 0 -83 -11t-72 -26t-58 -33t-37 -28l-90 138q20 22 60 45t92 41t113 29t127 11q60 0 117 -12t104 -40t82 -75t49 -117t19 -141t5 -141v-260v-16q0 -16 2 -47t8 -63t19 -58t35 -34 l-64 -134q-26 0 -55 12t-56 34t-46 49t-29 59q-14 -34 -49 -63t-79 -52t-95 -35t-95 -12q-68 0 -131 18t-111 58t-75 106t-27 162zM368 340q0 -100 45 -144t131 -44q60 0 115 32t91 86v276h-128q-40 0 -84 -8t-82 -30t-63 -63t-25 -105z" />
<glyph unicode="b" horiz-adv-x="1282" d="M172 0v1554h242v-540q40 56 121 90t179 34q66 0 134 -18t127 -60t108 -110t75 -164q24 -92 24 -202q0 -114 -27 -222t-82 -191t-138 -132t-195 -49q-60 0 -116 12t-101 33t-74 46t-35 53q-2 -28 -6 -64t-6 -70h-230zM400 572q0 -80 17 -151t51 -124t81 -85t109 -32 q60 0 109 30t84 81t56 121t21 150q0 78 -19 148t-52 124t-81 86t-108 32t-110 -30t-85 -81t-54 -120t-19 -149z" />
<glyph unicode="c" horiz-adv-x="1170" d="M140 564q0 120 38 224t106 181t164 121t214 44q124 0 212 -41t156 -127l-108 -130q-34 40 -94 73t-164 33q-60 0 -110 -28t-85 -78t-54 -118t-19 -148t17 -149t51 -121t81 -82t109 -30q90 0 151 29t113 71l90 -130q-68 -86 -148 -127t-204 -41q-118 0 -214 45t-164 122 t-103 181t-35 226z" />
<glyph unicode="d" horiz-adv-x="1282" d="M100 580q0 156 43 262t111 172t151 95t163 29q98 0 179 -34t121 -90v540h244v-1554h-230q-4 34 -7 69t-7 65q-6 -26 -35 -52t-74 -47t-101 -33t-116 -12q-80 0 -157 28t-137 96q-76 86 -112 212t-36 254zM356 562q0 -80 20 -149t54 -121t83 -82t107 -30q62 0 111 31 t83 83t52 122t18 150t-19 150t-54 122t-84 83t-111 31t-110 -31t-81 -85t-51 -124t-18 -150z" />
<glyph unicode="e" horiz-adv-x="1328" d="M144 566q0 118 40 223t107 183t159 123t194 45q136 0 240 -55t171 -146t96 -210q18 -73 18 -150q0 -48 -7 -97h-784q0 -64 24 -118t65 -93t98 -61t123 -22q22 0 55 5t70 18t74 33t65 48l88 -134q-66 -82 -154 -124t-224 -42q-110 0 -206 45t-164 123t-108 182t-40 224z M386 658h552q0 54 -20 106t-55 94t-85 67t-108 27q-62 0 -114 -24t-90 -64t-59 -95t-21 -111z" />
<glyph unicode="f" horiz-adv-x="942" d="M110 964v164h152q6 86 24 165t57 138t106 95t169 36q30 0 64 -5t67 -12t61 -17t44 -22l-78 -144q-28 16 -67 20t-55 4q-40 0 -67 -20t-45 -56t-26 -83t-10 -99h174v-164h-178v-96v-868h-244v868v96h-148z" />
<glyph unicode="g" horiz-adv-x="1366" d="M138 580q0 156 43 262t110 173t150 95t163 28q98 0 179 -34t123 -90l26 114h216l-2 -1128q-8 -122 -49 -208t-105 -142t-148 -80t-180 -24q-112 0 -221 39t-181 131l140 138q20 -34 51 -56t64 -34t66 -17t59 -5q124 0 194 72t70 246v52v4l2 10q0 2 -1 4t-1 4 q-6 -26 -35 -52t-73 -47t-100 -33t-116 -12q-112 0 -196 49t-140 131t-82 188t-26 222zM394 568q0 -80 19 -151t54 -123t84 -83t109 -31q62 0 110 31t81 84t52 125t19 152t-20 148t-54 120t-84 82t-108 30q-60 0 -109 -31t-83 -83t-52 -122t-18 -148z" />
<glyph unicode="h" horiz-adv-x="1218" d="M172 0v1554h242v-540q24 22 61 45t81 41t90 29t90 11q90 0 152 -38t124 -98q34 -34 53 -79t28 -94t11 -99t2 -98v-594v-40h-244v614q0 68 -6 130t-28 110t-60 75t-106 27q-22 0 -57 -6t-72 -18t-70 -30t-49 -42v-12v-4v-444v-4v-396h-242z" />
<glyph unicode="i" horiz-adv-x="582" d="M150 1488q0 60 42 102t100 42q60 0 102 -42t42 -102t-42 -101t-102 -41t-101 42t-41 100zM170 0h244v1128h-244v-1128z" />
<glyph unicode="j" horiz-adv-x="654" d="M-112 -398q34 -22 103 -38t129 -16q94 0 159 30t105 82t60 120t30 145t10 158v157v888h-244v-886q-1 -49 -1 -106v-58v-15q0 -82 -10 -155q-11 -80 -43 -133t-98 -53q-16 0 -55 5t-67 21zM220 1488q0 60 42 102t100 42q60 0 101 -42t41 -102t-41 -101t-101 -41t-101 42 t-41 100z" />
<glyph unicode="k" horiz-adv-x="1176" d="M172 0v1554h244v-964l362 538h272l-396 -562l448 -566h-276l-410 540v-540h-244z" />
<glyph unicode="l" horiz-adv-x="726" d="M168 356v24v1174h244v-1210q0 -68 18 -107t50 -58t73 -25t89 -6v-148q-26 -4 -54 -6q-22 -2 -52 -3t-60 -1t-60 2t-54 6q-68 14 -106 60t-58 103t-25 111t-5 84z" />
<glyph unicode="m" horiz-adv-x="1834" d="M172 0v1128h218l26 -116q50 46 129 85t165 39q96 0 160 -42t128 -124q34 38 76 70t87 54t89 34t84 12q68 0 128 -27t105 -77t70 -119t25 -149v-134v-596v-38h-240v614q0 68 -1 129t-13 109t-39 75t-83 27q-10 0 -35 -3t-59 -12t-75 -29t-81 -52q0 -78 1 -124t1 -100v-634 h-242v614v129q0 61 -12 109t-40 75t-82 27q-18 0 -50 -5t-67 -17t-70 -30t-59 -42v-860h-244z" />
<glyph unicode="n" horiz-adv-x="1268" d="M172 0v1128h216l26 -114q24 22 61 45t81 41t90 29t90 11q90 0 152 -38t124 -98q34 -34 53 -79t28 -94t11 -99t2 -98v-594v-40h-244v614q0 68 -6 130t-28 110t-60 75t-106 27q-22 0 -57 -6t-72 -18t-70 -30t-49 -42v-12v-4v-444v-4v-396h-242z" />
<glyph unicode="o" horiz-adv-x="1324" d="M144 564q0 122 39 228t108 181t167 118t216 43q116 0 210 -45t160 -123t102 -182t36 -224t-38 -225t-107 -182t-164 -120t-211 -43q-118 0 -215 44t-164 122t-103 182t-36 226zM400 570q0 -80 17 -151t51 -123t81 -84t109 -32q60 0 109 29t84 80t56 121t21 150t-19 150 t-52 123t-81 85t-108 32t-110 -30t-85 -81t-54 -120t-19 -149z" />
<glyph unicode="p" horiz-adv-x="1280" d="M172 -444v1572h218l26 -114q40 56 121 90t179 34q66 0 134 -18t127 -60t107 -110t74 -164q24 -92 24 -206t-27 -221t-82 -189t-138 -131t-195 -49q-60 0 -116 12t-100 33t-73 46t-35 53v-578h-244zM400 572q0 -80 17 -151t51 -125t82 -86t110 -32q60 0 109 30t84 81 t55 122t20 151q0 78 -18 148t-51 124t-80 86t-109 32q-60 0 -110 -30t-86 -81t-55 -120t-19 -149z" />
<glyph unicode="q" horiz-adv-x="1280" d="M100 580q0 156 43 262t111 173t151 95t163 28q98 0 179 -34t121 -90l26 114h218v-1260v-50q0 -26 6 -52t22 -50t46 -44q-4 -6 -14 -27t-24 -45q-14 -26 -30 -60q-116 16 -183 103t-67 209v282q-6 -26 -35 -52t-73 -47t-100 -33t-116 -12q-112 0 -196 49t-139 131t-82 188 t-27 222zM356 568q0 -82 20 -153t55 -123t84 -82t111 -30q60 0 107 31t81 83t52 122t18 150t-19 150t-54 122t-84 83t-109 31t-109 -31t-82 -83t-52 -122t-19 -148z" />
<glyph unicode="r" horiz-adv-x="892" d="M172 0v1128h216l26 -116q30 30 63 54t77 39t104 23t148 8v-252q-56 16 -136 18q-72 0 -143 -17t-113 -57v-428v-4v-396h-242z" />
<glyph unicode="s" horiz-adv-x="1072" d="M146 806q0 84 35 148t91 107t128 65t146 22q100 0 184 -21t162 -71l-78 -166q-60 34 -130 47t-138 13q-74 0 -117 -33t-43 -103q0 -54 39 -85t101 -55t132 -48t131 -61t101 -93t40 -144q0 -86 -34 -150t-92 -106t-134 -62t-162 -20q-52 0 -96 3t-86 13t-84 30t-92 54 l102 162q40 -28 95 -52t139 -24q110 0 172 34t62 100q0 48 -36 77t-91 50t-118 40t-117 47q-106 56 -159 118t-53 164z" />
<glyph unicode="t" horiz-adv-x="836" d="M104 964v164h148v320h242v-320h180v-164h-180v-622q0 -68 18 -106t51 -58t74 -25t87 -5v-148q-26 -4 -52 -6q-22 -2 -53 -3t-61 -1t-61 2t-53 6q-68 12 -106 59t-57 104t-24 111t-5 84v608h-148z" />
<glyph unicode="u" horiz-adv-x="1266" d="M164 494v596v-2v40h244v-614q0 -70 6 -131t26 -107t60 -74t106 -28q20 0 56 5t73 17t70 30t49 42v14v2v448v2v394h244v-1128h-218l-26 116q-24 -22 -60 -44t-79 -41t-88 -30t-89 -11q-48 0 -86 9t-71 28t-63 43t-60 54q-34 34 -54 79t-29 94t-10 99t-1 98z" />
<glyph unicode="v" horiz-adv-x="1342" d="M118 1128h274l280 -940l280 940h272l-396 -1136h-314z" />
<glyph unicode="w" horiz-adv-x="1864" d="M144 1128h260l186 -940l210 940h262l190 -940l210 940h262l-318 -1136h-312l-166 652l-180 -652h-314z" />
<glyph unicode="x" horiz-adv-x="1360" d="M154 1128h274l232 -406h20l254 406h274l-370 -562l368 -566h-278l-228 404h-20l-246 -404h-278l368 566z" />
<glyph unicode="y" horiz-adv-x="1344" d="M152 1128h242l330 -868l292 868h244l-196 -521l-150 -398q-64 -171 -113 -289t-90 -197t-77 -124t-74 -69t-83 -29t-103 -5q-18 0 -42 5t-47 12t-41 14t-24 9q8 36 16 68q6 28 13 53t11 35q16 0 49 -10t49 -10q32 0 57 3t45 18t38 44t40 83l76 180z" />
<glyph unicode="z" horiz-adv-x="1202" d="M172 0v194l580 708l40 32h-620v194h858v-194l-580 -708l-40 -32h620v-194h-858z" />
<glyph unicode="|" horiz-adv-x="500" d="M172 -484v2102h162v-2102h-162z" />
<glyph unicode="&#xa1;" horiz-adv-x="584" d="M150 1338.01q0 -59.9961 42 -100.993q42 -40.998 100 -40.998q60 0 102 40.998q42 40.9971 42 100.993q0 59.9971 -42 101.994q-42 41.998 -102 41.998t-101 -41.998q-41 -41.9971 -41 -101.994zM170 0.0898438h244l-34 1065.94h-178z" />
<glyph unicode="&#xa2;" horiz-adv-x="1170" d="M140 564q0 108 30 203t86 169t134 124t176 66v168h162v-164q98 -10 170 -51t132 -113l-108 -130q-34 40 -94 73t-164 33q-60 0 -110 -28t-85 -78t-54 -118t-19 -148t17 -149t51 -121t81 -82t109 -30q90 0 151 29t113 71l90 -130q-58 -72 -123 -113t-157 -51v-158h-162 v162q-98 16 -177 65t-135 125t-85 171t-29 205z" />
<glyph unicode="&#xa3;" horiz-adv-x="1052" d="M122 0v164h148v636h-148v164h152q0 68 7 154t42 164t107 135t200 67q122 10 203 -12t115 -44l-80 -152q-28 16 -87 24t-115 8q-64 0 -95 -33t-42 -86t-11 -113v-112h216v-164h-220v-636h360v-164h-752z" />
<glyph unicode="&#xa4;" horiz-adv-x="1354" d="M156 350l176 146q-30 54 -46 118t-16 136q0 142 64 252l-178 144l144 144l140 -170q102 80 246 80q136 -2 234 -76l136 166l144 -144l-176 -144q64 -110 64 -254q0 -142 -64 -250l176 -148l-144 -144l-138 168q-50 -34 -110 -54t-130 -20q-142 0 -240 74l-138 -168z M456 756q0 -68 16 -127t43 -103t67 -71t92 -27q50 0 90 25t71 67t48 100t17 126t-16 127t-43 103t-68 71t-91 27t-92 -25t-71 -68t-46 -100t-17 -125z" />
<glyph unicode="&#xa5;" horiz-adv-x="1328" d="M116 1474h276l254 -660h20l274 660h274l-310 -620h220v-164h-302l-46 -110v-12h348v-164h-348v-404h-244v404h-328v164h328v12l-50 110h-278v164h202z" />
<glyph unicode="&#xa8;" horiz-adv-x="1076" d="M36 1422q0 60 42 101t102 41t102 -41t42 -101t-42 -102t-102 -42t-102 42t-42 102zM630 1422q0 60 42 101t102 41t102 -41t42 -101t-42 -102t-102 -42t-102 42t-42 102z" />
<glyph unicode="&#xab;" horiz-adv-x="1472" d="M120 566l410 502h274l-410 -502l408 -504h-278zM632 566l410 502h274l-410 -502l408 -504h-278z" />
<glyph unicode="&#xad;" horiz-adv-x="978" d="M172 484v202h636v-202h-636z" />
<glyph unicode="&#xb4;" horiz-adv-x="448" d="M48 1270l134 284h244l-218 -284h-160z" />
<glyph unicode="&#xb8;" horiz-adv-x="588" d="M96 -184l116 198h154l-134 -156q34 14 70 16q36 0 67 -16t52 -39t33 -52t12 -57q0 -92 -61 -144t-165 -52v116q108 0 108 76q0 34 -29 59t-77 25q-26 0 -64 -12z" />
<glyph unicode="&#xbb;" horiz-adv-x="1472" d="M156 1068h274l410 -502l-404 -504h-278l410 504zM668 1068h274l410 -502l-404 -504h-278l410 504z" />
<glyph unicode="&#xbf;" horiz-adv-x="1014" d="M918.008 62.0869q-59.9961 -37.9971 -151.99 -54.9961t-185.988 -16.999q-87.9951 0 -167.99 27.998t-141.991 80.9951t-98.9941 128.992q-36.9971 75.9951 -36.9971 173.989q0 105.993 32.9971 176.989q32.998 70.9951 80.9951 119.992t104.994 84.9951 q56.9961 35.998 105.993 75.9951q48.9971 39.998 80.9951 91.9951q31.998 51.9961 31.998 129.991h181.989q0 -117.992 -27.999 -192.988q-27.998 -74.9951 -71.9951 -124.992t-94.9941 -83.9951q-50.9971 -33.9971 -94.9941 -70.9951t-72.9961 -85.9951 q-28.998 -48.9971 -28.998 -128.992q0 -31.998 15.999 -66.9951q15.999 -34.998 43.998 -62.9971q27.998 -27.998 64.9951 -46.9971q36.998 -18.998 74.9961 -22.998q71.9951 -6 117.992 -2t73.9961 13.999q27.998 10 42.9971 19.999t26.998 15.999q2 -2 13 -19.999 q10.999 -17.999 23.998 -44.9971t28.998 -56.9961q15.999 -29.999 27.998 -57.9971zM806.016 1352.01q0 -59.9961 -41.998 -100.993q-41.9971 -40.998 -101.994 -40.998q-59.9961 0 -100.993 40.998q-40.998 40.9971 -40.998 100.993q0 59.9971 41.998 101.994 q41.9971 41.998 99.9932 41.998q59.9971 0 101.994 -41.998q41.998 -41.9971 41.998 -101.994z" />
<glyph unicode="&#xc0;" horiz-adv-x="1518" d="M126 0l516 1472h238l512 -1472h-248l-106 306h-554l-108 -306h-250zM540 468h440l-218 636zM570 1900h242l136 -284h-162z" />
<glyph unicode="&#xc1;" horiz-adv-x="1518" d="M126 0l516 1472h238l512 -1472h-248l-106 306h-554l-108 -306h-250zM540 468h440l-218 636zM570 1616l134 284h244l-218 -284h-160z" />
<glyph unicode="&#xc2;" horiz-adv-x="1518" d="M126 0l516 1472h238l512 -1472h-248l-106 306h-554l-108 -306h-250zM540 468h440l-218 636zM452 1616l216 284h182l218 -284h-222l-88 158l-86 -158h-220z" />
<glyph unicode="&#xc3;" horiz-adv-x="1518" d="M126 0l516 1472h238l512 -1472h-248l-106 306h-554l-108 -306h-250zM540 468h440l-218 636zM406 1686q14 34 36 67t51 59t64 42t75 16q36 0 73 -10t68 -24t61 -24t54 -10q34 0 56 16t38 68l130 -38q-24 -88 -84 -135t-140 -47q-34 0 -67 11t-64 24t-61 23t-64 10 q-32 0 -59 -31t-45 -71z" />
<glyph unicode="&#xc4;" horiz-adv-x="1518" d="M126 0l516 1472h238l512 -1472h-248l-106 306h-554l-108 -306h-250zM540 468h440l-218 636zM340 1768q0 60 42 101t102 41t102 -41t42 -101t-42 -102t-102 -42t-102 42t-42 102zM934 1768q0 60 42 101t102 41t102 -41t42 -101t-42 -102t-102 -42t-102 42t-42 102z" />
<glyph unicode="&#xc5;" horiz-adv-x="1518" d="M126 0l516 1472h238l512 -1472h-248l-106 306h-554l-108 -306h-250zM540 468h440l-218 636zM510 1866q0 52 19 96t53 78t80 54t98 20t96 -20t78 -54t53 -79t19 -95q0 -52 -19 -98t-53 -80t-79 -53t-95 -19q-52 0 -98 19t-80 53t-53 80t-19 98zM630 1866q0 -54 38 -92 t92 -38t91 38t37 92t-38 90t-90 36q-54 0 -92 -37t-38 -89z" />
<glyph unicode="&#xc7;" horiz-adv-x="1342" d="M158 744q0 186 47 327t130 235t195 143t242 49q120 0 224 -40t186 -120l-166 -148q-50 58 -111 84t-127 26q-74 0 -141 -28t-120 -95t-83 -173t-32 -260q2 -150 31 -256t80 -173t116 -98t137 -31t135 26t115 84l166 -146q-82 -80 -186 -120t-224 -40q-132 0 -243 48 t-194 142t-130 236t-47 328zM552 -184l116 198h154l-134 -156q34 14 70 16q36 0 67 -16t52 -39t33 -52t12 -57q0 -92 -61 -144t-165 -52v116q108 0 108 76q0 34 -29 59t-77 25q-26 0 -64 -12z" />
<glyph unicode="&#xc8;" horiz-adv-x="1256" d="M190 0v1474h922v-182h-678v-464h616v-164h-616v-482h678v-182h-922zM440 1900h242l136 -284h-162z" />
<glyph unicode="&#xc9;" horiz-adv-x="1256" d="M190 0v1474h922v-182h-678v-464h616v-164h-616v-482h678v-182h-922zM440 1616l134 284h244l-218 -284h-160z" />
<glyph unicode="&#xca;" horiz-adv-x="1256" d="M190 0v1474h922v-182h-678v-464h616v-164h-616v-482h678v-182h-922zM320 1616l216 284h182l218 -284h-222l-88 158l-86 -158h-220z" />
<glyph unicode="&#xcb;" horiz-adv-x="1256" d="M190 0v1474h922v-182h-678v-464h616v-164h-616v-482h678v-182h-922zM208 1768q0 60 42 101t102 41t102 -41t42 -101t-42 -102t-102 -42t-102 42t-42 102zM802 1768q0 60 42 101t102 41t102 -41t42 -101t-42 -102t-102 -42t-102 42t-42 102z" />
<glyph unicode="&#xcc;" horiz-adv-x="616" d="M188 0v1474h244v-1474h-244zM120 1900h242l136 -284h-162z" />
<glyph unicode="&#xcd;" horiz-adv-x="616" d="M188 0v1474h244v-1474h-244zM120 1616l134 284h244l-218 -284h-160z" />
<glyph unicode="&#xce;" horiz-adv-x="616" d="M188 0v1474h244v-1474h-244zM2 1616l216 284h182l218 -284h-222l-88 158l-86 -158h-220z" />
<glyph unicode="&#xcf;" horiz-adv-x="616" d="M188 0v1474h244v-1474h-244zM-110 1768q0 60 42 101t102 41t102 -41t42 -101t-42 -102t-102 -42t-102 42t-42 102zM484 1768q0 60 42 101t102 41t102 -41t42 -101t-42 -102t-102 -42t-102 42t-42 102z" />
<glyph unicode="&#xd0;" horiz-adv-x="1540" d="M14 636v204h178v634h444q186 0 327 -59t234 -157t139 -223t46 -257q0 -182 -39 -311t-99 -216t-135 -137t-145 -75t-128 -32t-86 -7h-558v636h-178zM432 176h238q244 0 352 156t108 452q0 92 -22 182t-85 163t-171 118t-280 45h-140v-452h220v-204h-220v-460z" />
<glyph unicode="&#xd1;" horiz-adv-x="1432" d="M184 0v1474h244l578 -1016v1016h244v-1474h-244l-578 1016v-1016h-244zM364 1686q14 34 36 67t51 59t64 42t75 16q36 0 73 -10t68 -24t61 -24t54 -10q34 0 56 16t38 68l130 -38q-24 -88 -84 -135t-140 -47q-34 0 -67 11t-64 24t-61 23t-64 10q-32 0 -59 -31t-45 -71z" />
<glyph unicode="&#xd2;" horiz-adv-x="1536" d="M154 744q0 186 47 327t130 235t194 143t243 49t243 -49t194 -143t130 -235t47 -327t-47 -328t-130 -236t-194 -142t-243 -48t-243 48t-194 142t-130 236t-47 328zM398 744q2 -150 31 -256t80 -173t116 -98t137 -31q74 0 141 29t120 95t83 173t32 261q-2 150 -31 255 t-80 173t-116 98t-137 30q-74 0 -141 -28t-120 -95t-83 -173t-32 -260zM578 1900h242l136 -284h-162z" />
<glyph unicode="&#xd3;" horiz-adv-x="1536" d="M154 744q0 186 47 327t130 235t194 143t243 49t243 -49t194 -143t130 -235t47 -327t-47 -328t-130 -236t-194 -142t-243 -48t-243 48t-194 142t-130 236t-47 328zM398 744q2 -150 31 -256t80 -173t116 -98t137 -31q74 0 141 29t120 95t83 173t32 261q-2 150 -31 255 t-80 173t-116 98t-137 30q-74 0 -141 -28t-120 -95t-83 -173t-32 -260zM578 1616l134 284h244l-218 -284h-160z" />
<glyph unicode="&#xd4;" horiz-adv-x="1536" d="M154 744q0 186 47 327t130 235t194 143t243 49t243 -49t194 -143t130 -235t47 -327t-47 -328t-130 -236t-194 -142t-243 -48t-243 48t-194 142t-130 236t-47 328zM398 744q2 -150 31 -256t80 -173t116 -98t137 -31q74 0 141 29t120 95t83 173t32 261q-2 150 -31 255 t-80 173t-116 98t-137 30q-74 0 -141 -28t-120 -95t-83 -173t-32 -260zM460 1616l216 284h182l218 -284h-222l-88 158l-86 -158h-220z" />
<glyph unicode="&#xd5;" horiz-adv-x="1536" d="M154 744q0 186 47 327t130 235t194 143t243 49t243 -49t194 -143t130 -235t47 -327t-47 -328t-130 -236t-194 -142t-243 -48t-243 48t-194 142t-130 236t-47 328zM398 744q2 -150 31 -256t80 -173t116 -98t137 -31q74 0 141 29t120 95t83 173t32 261q-2 150 -31 255 t-80 173t-116 98t-137 30q-74 0 -141 -28t-120 -95t-83 -173t-32 -260zM414 1686q14 34 36 67t51 59t64 42t75 16q36 0 73 -10t68 -24t61 -24t54 -10q34 0 56 16t38 68l130 -38q-24 -88 -84 -135t-140 -47q-34 0 -67 11t-64 24t-61 23t-64 10q-32 0 -59 -31t-45 -71z" />
<glyph unicode="&#xd6;" horiz-adv-x="1536" d="M154 744q0 186 47 327t130 235t194 143t243 49t243 -49t194 -143t130 -235t47 -327t-47 -328t-130 -236t-194 -142t-243 -48t-243 48t-194 142t-130 236t-47 328zM398 744q2 -150 31 -256t80 -173t116 -98t137 -31q74 0 141 29t120 95t83 173t32 261q-2 150 -31 255 t-80 173t-116 98t-137 30q-74 0 -141 -28t-120 -95t-83 -173t-32 -260zM348 1768q0 60 42 101t102 41t102 -41t42 -101t-42 -102t-102 -42t-102 42t-42 102zM942 1768q0 60 42 101t102 41t102 -41t42 -101t-42 -102t-102 -42t-102 42t-42 102z" />
<glyph unicode="&#xd7;" horiz-adv-x="1202" d="M156 1006h274l150 -284h20l172 284h274l-288 -440l286 -444h-278l-146 282h-20l-164 -282h-278l286 444z" />
<glyph unicode="&#xd9;" horiz-adv-x="1474" d="M164 744v730h244v-706q0 -164 23 -276t65 -179t102 -97t134 -30q76 0 138 28t106 94t68 178t24 282v706h242v-730q0 -186 -41 -328t-115 -236t-180 -142t-236 -48q-132 0 -237 48t-180 142t-116 236t-41 328zM548 1900h242l136 -284h-162z" />
<glyph unicode="&#xda;" horiz-adv-x="1474" d="M164 744v730h244v-706q0 -164 23 -276t65 -179t102 -97t134 -30q76 0 138 28t106 94t68 178t24 282v706h242v-730q0 -186 -41 -328t-115 -236t-180 -142t-236 -48q-132 0 -237 48t-180 142t-116 236t-41 328zM548 1616l134 284h244l-218 -284h-160z" />
<glyph unicode="&#xdb;" horiz-adv-x="1474" d="M164 744v730h244v-706q0 -164 23 -276t65 -179t102 -97t134 -30q76 0 138 28t106 94t68 178t24 282v706h242v-730q0 -186 -41 -328t-115 -236t-180 -142t-236 -48q-132 0 -237 48t-180 142t-116 236t-41 328zM428 1616l216 284h182l218 -284h-222l-88 158l-86 -158h-220z " />
<glyph unicode="&#xdc;" horiz-adv-x="1474" d="M164 744v730h244v-706q0 -164 23 -276t65 -179t102 -97t134 -30q76 0 138 28t106 94t68 178t24 282v706h242v-730q0 -186 -41 -328t-115 -236t-180 -142t-236 -48q-132 0 -237 48t-180 142t-116 236t-41 328zM316 1768q0 60 42 101t102 41t102 -41t42 -101t-42 -102 t-102 -42t-102 42t-42 102zM910 1768q0 60 42 101t102 41t102 -41t42 -101t-42 -102t-102 -42t-102 42t-42 102z" />
<glyph unicode="&#xdd;" horiz-adv-x="1310" d="M108 1474h274l254 -660h22l274 660h274l-438 -874v-600h-244v580zM466 1616l134 284h244l-218 -284h-160z" />
<glyph unicode="&#xde;" horiz-adv-x="1704" d="M182 0v1474h240v-164h184q94 0 186 -30t165 -90t118 -145t45 -191q0 -112 -38 -202t-106 -153t-164 -97t-212 -34h-178v-368h-240zM422 544h220q44 0 87 15t79 50t58 95t22 150q0 36 -10 84t-41 91t-87 71t-148 28h-180v-584z" />
<glyph unicode="&#xdf;" horiz-adv-x="1310" d="M162 0v792q0 186 22 331t78 243t151 148t241 50q100 0 184 -29t144 -88t94 -147t34 -204q-6 -54 -24 -108t-43 -98t-57 -75t-66 -39q46 -6 89 -30t77 -68t56 -107t22 -145q0 -100 -20 -173t-51 -121t-69 -77t-76 -43t-73 -18t-57 -4q-84 0 -138 7t-87 17t-54 23t-39 23 l56 152q34 -16 82 -33t144 -17q78 0 115 75t37 189q0 54 -15 101t-42 82t-65 54t-80 19h-142v162h112q32 0 63 11t56 40t42 77t23 124q0 152 -64 216t-162 64q-84 0 -133 -38t-77 -113t-36 -189t-8 -268v-768h-244z" />
<glyph unicode="&#xe0;" horiz-adv-x="1200" d="M142 334q0 92 39 159t100 110t139 64t158 21h170q0 98 -10 156t-34 85t-59 34t-83 7q-44 0 -83 -11t-72 -26t-58 -33t-37 -28l-90 138q20 22 60 45t92 41t113 29t127 11q60 0 117 -12t104 -40t82 -75t49 -117t19 -141t5 -141v-260v-16q0 -16 2 -47t8 -63t19 -58t35 -34 l-64 -134q-26 0 -55 12t-56 34t-46 49t-29 59q-14 -34 -49 -63t-79 -52t-95 -35t-95 -12q-68 0 -131 18t-111 58t-75 106t-27 162zM368 340q0 -100 45 -144t131 -44q60 0 115 32t91 86v276h-128q-40 0 -84 -8t-82 -30t-63 -63t-25 -105zM410 1554h242l136 -284h-162z" />
<glyph unicode="&#xe1;" horiz-adv-x="1200" d="M142 334q0 92 39 159t100 110t139 64t158 21h170q0 98 -10 156t-34 85t-59 34t-83 7q-44 0 -83 -11t-72 -26t-58 -33t-37 -28l-90 138q20 22 60 45t92 41t113 29t127 11q60 0 117 -12t104 -40t82 -75t49 -117t19 -141t5 -141v-260v-16q0 -16 2 -47t8 -63t19 -58t35 -34 l-64 -134q-26 0 -55 12t-56 34t-46 49t-29 59q-14 -34 -49 -63t-79 -52t-95 -35t-95 -12q-68 0 -131 18t-111 58t-75 106t-27 162zM368 340q0 -100 45 -144t131 -44q60 0 115 32t91 86v276h-128q-40 0 -84 -8t-82 -30t-63 -63t-25 -105zM410 1270l134 284h244l-218 -284 h-160z" />
<glyph unicode="&#xe2;" horiz-adv-x="1200" d="M142 334q0 92 39 159t100 110t139 64t158 21h170q0 98 -10 156t-34 85t-59 34t-83 7q-44 0 -83 -11t-72 -26t-58 -33t-37 -28l-90 138q20 22 60 45t92 41t113 29t127 11q60 0 117 -12t104 -40t82 -75t49 -117t19 -141t5 -141v-260v-16q0 -16 2 -47t8 -63t19 -58t35 -34 l-64 -134q-26 0 -55 12t-56 34t-46 49t-29 59q-14 -34 -49 -63t-79 -52t-95 -35t-95 -12q-68 0 -131 18t-111 58t-75 106t-27 162zM368 340q0 -100 45 -144t131 -44q60 0 115 32t91 86v276h-128q-40 0 -84 -8t-82 -30t-63 -63t-25 -105zM292 1270l216 284h182l218 -284h-222 l-88 158l-86 -158h-220z" />
<glyph unicode="&#xe3;" horiz-adv-x="1200" d="M142 334q0 92 39 159t100 110t139 64t158 21h170q0 98 -10 156t-34 85t-59 34t-83 7q-44 0 -83 -11t-72 -26t-58 -33t-37 -28l-90 138q20 22 60 45t92 41t113 29t127 11q60 0 117 -12t104 -40t82 -75t49 -117t19 -141t5 -141v-260v-16q0 -16 2 -47t8 -63t19 -58t35 -34 l-64 -134q-26 0 -55 12t-56 34t-46 49t-29 59q-14 -34 -49 -63t-79 -52t-95 -35t-95 -12q-68 0 -131 18t-111 58t-75 106t-27 162zM368 340q0 -100 45 -144t131 -44q60 0 115 32t91 86v276h-128q-40 0 -84 -8t-82 -30t-63 -63t-25 -105zM246 1340q14 34 36 67t51 59t64 42 t75 16q36 0 73 -10t68 -24t61 -24t54 -10q34 0 56 16t38 68l130 -38q-24 -88 -84 -135t-140 -47q-34 0 -67 11t-64 24t-61 23t-64 10q-32 0 -59 -31t-45 -71z" />
<glyph unicode="&#xe4;" horiz-adv-x="1200" d="M142 334q0 92 39 159t100 110t139 64t158 21h170q0 98 -10 156t-34 85t-59 34t-83 7q-44 0 -83 -11t-72 -26t-58 -33t-37 -28l-90 138q20 22 60 45t92 41t113 29t127 11q60 0 117 -12t104 -40t82 -75t49 -117t19 -141t5 -141v-260v-16q0 -16 2 -47t8 -63t19 -58t35 -34 l-64 -134q-26 0 -55 12t-56 34t-46 49t-29 59q-14 -34 -49 -63t-79 -52t-95 -35t-95 -12q-68 0 -131 18t-111 58t-75 106t-27 162zM368 340q0 -100 45 -144t131 -44q60 0 115 32t91 86v276h-128q-40 0 -84 -8t-82 -30t-63 -63t-25 -105zM180 1422q0 60 42 101t102 41 t102 -41t42 -101t-42 -102t-102 -42t-102 42t-42 102zM774 1422q0 60 42 101t102 41t102 -41t42 -101t-42 -102t-102 -42t-102 42t-42 102z" />
<glyph unicode="&#xe5;" horiz-adv-x="1200" d="M142 334q0 92 39 159t100 110t139 64t158 21h170q0 98 -10 156t-34 85t-59 34t-83 7q-44 0 -83 -11t-72 -26t-58 -33t-37 -28l-90 138q20 22 60 45t92 41t113 29t127 11q60 0 117 -12t104 -40t82 -75t49 -117t19 -141t5 -141v-260v-16q0 -16 2 -47t8 -63t19 -58t35 -34 l-64 -134q-26 0 -55 12t-56 34t-46 49t-29 59q-14 -34 -49 -63t-79 -52t-95 -35t-95 -12q-68 0 -131 18t-111 58t-75 106t-27 162zM368 340q0 -100 45 -144t131 -44q60 0 115 32t91 86v276h-128q-40 0 -84 -8t-82 -30t-63 -63t-25 -105zM350 1520q0 52 19 96t53 78t80 54 t98 20t96 -20t78 -54t53 -79t19 -95q0 -52 -19 -98t-53 -80t-79 -53t-95 -19q-52 0 -98 19t-80 53t-53 80t-19 98zM470 1520q0 -54 38 -92t92 -38t91 38t37 92t-38 90t-90 36q-54 0 -92 -37t-38 -89z" />
<glyph unicode="&#xe7;" horiz-adv-x="1170" d="M140 564q0 120 38 224t106 181t164 121t214 44q124 0 212 -41t156 -127l-108 -130q-34 40 -94 73t-164 33q-60 0 -110 -28t-85 -78t-54 -118t-19 -148t17 -149t51 -121t81 -82t109 -30q90 0 151 29t113 71l90 -130q-68 -86 -148 -127t-204 -41q-118 0 -214 45t-164 122 t-103 181t-35 226zM446 -184l116 198h154l-134 -156q34 14 70 16q36 0 67 -16t52 -39t33 -52t12 -57q0 -92 -61 -144t-165 -52v116q108 0 108 76q0 34 -29 59t-77 25q-26 0 -64 -12z" />
<glyph unicode="&#xe8;" horiz-adv-x="1328" d="M144 566q0 118 40 223t107 183t159 123t194 45q136 0 240 -55t171 -146t96 -210q18 -73 18 -150q0 -48 -7 -97h-784q0 -64 24 -118t65 -93t98 -61t123 -22q22 0 55 5t70 18t74 33t65 48l88 -134q-66 -82 -154 -124t-224 -42q-110 0 -206 45t-164 123t-108 182t-40 224z M386 658h552q0 54 -20 106t-55 94t-85 67t-108 27q-62 0 -114 -24t-90 -64t-59 -95t-21 -111zM476 1554h242l136 -284h-162z" />
<glyph unicode="&#xe9;" horiz-adv-x="1328" d="M144 566q0 118 40 223t107 183t159 123t194 45q136 0 240 -55t171 -146t96 -210q18 -73 18 -150q0 -48 -7 -97h-784q0 -64 24 -118t65 -93t98 -61t123 -22q22 0 55 5t70 18t74 33t65 48l88 -134q-66 -82 -154 -124t-224 -42q-110 0 -206 45t-164 123t-108 182t-40 224z M386 658h552q0 54 -20 106t-55 94t-85 67t-108 27q-62 0 -114 -24t-90 -64t-59 -95t-21 -111zM476 1270l134 284h244l-218 -284h-160z" />
<glyph unicode="&#xea;" horiz-adv-x="1328" d="M144 566q0 118 40 223t107 183t159 123t194 45q136 0 240 -55t171 -146t96 -210q18 -73 18 -150q0 -48 -7 -97h-784q0 -64 24 -118t65 -93t98 -61t123 -22q22 0 55 5t70 18t74 33t65 48l88 -134q-66 -82 -154 -124t-224 -42q-110 0 -206 45t-164 123t-108 182t-40 224z M386 658h552q0 54 -20 106t-55 94t-85 67t-108 27q-62 0 -114 -24t-90 -64t-59 -95t-21 -111zM358 1270l216 284h182l218 -284h-222l-88 158l-86 -158h-220z" />
<glyph unicode="&#xeb;" horiz-adv-x="1328" d="M144 566q0 118 40 223t107 183t159 123t194 45q136 0 240 -55t171 -146t96 -210q18 -73 18 -150q0 -48 -7 -97h-784q0 -64 24 -118t65 -93t98 -61t123 -22q22 0 55 5t70 18t74 33t65 48l88 -134q-66 -82 -154 -124t-224 -42q-110 0 -206 45t-164 123t-108 182t-40 224z M386 658h552q0 54 -20 106t-55 94t-85 67t-108 27q-62 0 -114 -24t-90 -64t-59 -95t-21 -111zM242 1422q0 60 42 101t102 41t102 -41t42 -101t-42 -102t-102 -42t-102 42t-42 102zM836 1422q0 60 42 101t102 41t102 -41t42 -101t-42 -102t-102 -42t-102 42t-42 102z" />
<glyph unicode="&#xec;" horiz-adv-x="582" d="M170 0v1128h244v-1128h-244zM104 1554h242l136 -284h-162z" />
<glyph unicode="&#xed;" horiz-adv-x="582" d="M170 0v1128h244v-1128h-244zM104 1270l134 284h244l-218 -284h-160z" />
<glyph unicode="&#xee;" horiz-adv-x="582" d="M170 0v1128h244v-1128h-244zM-14 1270l216 284h182l218 -284h-222l-88 158l-86 -158h-220z" />
<glyph unicode="&#xef;" horiz-adv-x="582" d="M170 0v1128h244v-1128h-244zM-126 1422q0 60 42 101t102 41t102 -41t42 -101t-42 -102t-102 -42t-102 42t-42 102zM468 1422q0 60 42 101t102 41t102 -41t42 -101t-42 -102t-102 -42t-102 42t-42 102z" />
<glyph unicode="&#xf0;" horiz-adv-x="1290" d="M140 528q0 84 31 168t91 152t145 110t189 42t187 -37t109 -91q2 -2 8 -2t8 -2q-2 90 -24 183t-66 153l-116 -114l-142 142l94 98q-10 12 -33 26t-52 28t-59 27t-58 21v124q56 0 110 -9t100 -23t80 -30t50 -28l134 132l144 -144l-116 -112q86 -100 138 -289t52 -469 q0 -130 -30 -238t-94 -188t-160 -124t-228 -44q-72 0 -157 25t-160 88t-125 166t-50 259zM350 508q0 -70 22 -129t59 -102t88 -68t111 -25q62 0 114 25t90 68t61 102t23 129t-23 127t-61 98t-90 65t-114 24q-60 0 -111 -24t-88 -65t-59 -98t-22 -127z" />
<glyph unicode="&#xf1;" horiz-adv-x="1268" d="M172 0v1128h216l26 -114q24 22 61 45t81 41t90 29t90 11q90 0 152 -38t124 -98q34 -34 53 -79t28 -94t11 -99t2 -98v-594v-40h-244v614q0 68 -6 130t-28 110t-60 75t-106 27q-22 0 -57 -6t-72 -18t-70 -30t-49 -42v-12v-4v-444v-4v-396h-242zM282 1340q14 34 36 67t51 59 t64 42t75 16q36 0 73 -10t68 -24t61 -24t54 -10q34 0 56 16t38 68l130 -38q-24 -88 -84 -135t-140 -47q-34 0 -67 11t-64 24t-61 23t-64 10q-32 0 -59 -31t-45 -71z" />
<glyph unicode="&#xf2;" horiz-adv-x="1324" d="M144 564q0 122 39 228t108 181t167 118t216 43q116 0 210 -45t160 -123t102 -182t36 -224t-38 -225t-107 -182t-164 -120t-211 -43q-118 0 -215 44t-164 122t-103 182t-36 226zM400 570q0 -80 17 -151t51 -123t81 -84t109 -32q60 0 109 29t84 80t56 121t21 150t-19 150 t-52 123t-81 85t-108 32t-110 -30t-85 -81t-54 -120t-19 -149zM474 1554h242l136 -284h-162z" />
<glyph unicode="&#xf3;" horiz-adv-x="1324" d="M144 564q0 122 39 228t108 181t167 118t216 43q116 0 210 -45t160 -123t102 -182t36 -224t-38 -225t-107 -182t-164 -120t-211 -43q-118 0 -215 44t-164 122t-103 182t-36 226zM400 570q0 -80 17 -151t51 -123t81 -84t109 -32q60 0 109 29t84 80t56 121t21 150t-19 150 t-52 123t-81 85t-108 32t-110 -30t-85 -81t-54 -120t-19 -149zM474 1270l134 284h244l-218 -284h-160z" />
<glyph unicode="&#xf4;" horiz-adv-x="1324" d="M144 564q0 122 39 228t108 181t167 118t216 43q116 0 210 -45t160 -123t102 -182t36 -224t-38 -225t-107 -182t-164 -120t-211 -43q-118 0 -215 44t-164 122t-103 182t-36 226zM400 570q0 -80 17 -151t51 -123t81 -84t109 -32q60 0 109 29t84 80t56 121t21 150t-19 150 t-52 123t-81 85t-108 32t-110 -30t-85 -81t-54 -120t-19 -149zM356 1270l216 284h182l218 -284h-222l-88 158l-86 -158h-220z" />
<glyph unicode="&#xf5;" horiz-adv-x="1324" d="M144 564q0 122 39 228t108 181t167 118t216 43q116 0 210 -45t160 -123t102 -182t36 -224t-38 -225t-107 -182t-164 -120t-211 -43q-118 0 -215 44t-164 122t-103 182t-36 226zM400 570q0 -80 17 -151t51 -123t81 -84t109 -32q60 0 109 29t84 80t56 121t21 150t-19 150 t-52 123t-81 85t-108 32t-110 -30t-85 -81t-54 -120t-19 -149zM310 1340q14 34 36 67t51 59t64 42t75 16q36 0 73 -10t68 -24t61 -24t54 -10q34 0 56 16t38 68l130 -38q-24 -88 -84 -135t-140 -47q-34 0 -67 11t-64 24t-61 23t-64 10q-32 0 -59 -31t-45 -71z" />
<glyph unicode="&#xf6;" horiz-adv-x="1324" d="M144 564q0 122 39 228t108 181t167 118t216 43q116 0 210 -45t160 -123t102 -182t36 -224t-38 -225t-107 -182t-164 -120t-211 -43q-118 0 -215 44t-164 122t-103 182t-36 226zM400 570q0 -80 17 -151t51 -123t81 -84t109 -32q60 0 109 29t84 80t56 121t21 150t-19 150 t-52 123t-81 85t-108 32t-110 -30t-85 -81t-54 -120t-19 -149zM240 1422q0 60 42 101t102 41t102 -41t42 -101t-42 -102t-102 -42t-102 42t-42 102zM834 1422q0 60 42 101t102 41t102 -41t42 -101t-42 -102t-102 -42t-102 42t-42 102z" />
<glyph unicode="&#xf7;" horiz-adv-x="1102" d="M88 484h934v202h-934v-202zM402 134q0 60 42 101t100 41q60 0 102 -41t42 -101t-42 -102t-102 -42t-101 42t-41 102zM402 996q0 60 42 101t100 41q60 0 102 -41t42 -101t-42 -102t-102 -42t-101 42t-41 102z" />
<glyph unicode="&#xf9;" horiz-adv-x="1266" d="M164 494v596v-2v40h244v-614q0 -70 6 -131t26 -107t60 -74t106 -28q20 0 56 5t73 17t70 30t49 42v14v2v448v2v394h244v-1128h-218l-26 116q-24 -22 -60 -44t-79 -41t-88 -30t-89 -11q-48 0 -86 9t-71 28t-63 43t-60 54q-34 34 -54 79t-29 94t-10 99t-1 98zM446 1554h242 l136 -284h-162z" />
<glyph unicode="&#xfa;" horiz-adv-x="1266" d="M164 494v596v-2v40h244v-614q0 -70 6 -131t26 -107t60 -74t106 -28q20 0 56 5t73 17t70 30t49 42v14v2v448v2v394h244v-1128h-218l-26 116q-24 -22 -60 -44t-79 -41t-88 -30t-89 -11q-48 0 -86 9t-71 28t-63 43t-60 54q-34 34 -54 79t-29 94t-10 99t-1 98zM446 1270 l134 284h244l-218 -284h-160z" />
<glyph unicode="&#xfb;" horiz-adv-x="1266" d="M164 494v596v-2v40h244v-614q0 -70 6 -131t26 -107t60 -74t106 -28q20 0 56 5t73 17t70 30t49 42v14v2v448v2v394h244v-1128h-218l-26 116q-24 -22 -60 -44t-79 -41t-88 -30t-89 -11q-48 0 -86 9t-71 28t-63 43t-60 54q-34 34 -54 79t-29 94t-10 99t-1 98zM326 1270 l216 284h182l218 -284h-222l-88 158l-86 -158h-220z" />
<glyph unicode="&#xfc;" horiz-adv-x="1266" d="M164 494v596v-2v40h244v-614q0 -70 6 -131t26 -107t60 -74t106 -28q20 0 56 5t73 17t70 30t49 42v14v2v448v2v394h244v-1128h-218l-26 116q-24 -22 -60 -44t-79 -41t-88 -30t-89 -11q-48 0 -86 9t-71 28t-63 43t-60 54q-34 34 -54 79t-29 94t-10 99t-1 98zM212 1422 q0 60 42 101t102 41t102 -41t42 -101t-42 -102t-102 -42t-102 42t-42 102zM806 1422q0 60 42 101t102 41t102 -41t42 -101t-42 -102t-102 -42t-102 42t-42 102z" />
<glyph unicode="&#xfd;" horiz-adv-x="1344" d="M152 1128h242l330 -868l292 868h244l-196 -521l-150 -398q-64 -171 -113 -289t-90 -197t-77 -124t-74 -69t-83 -29t-103 -5q-18 0 -42 5t-47 12t-41 14t-24 9q8 36 16 68q6 28 13 53t11 35q16 0 49 -10t49 -10q32 0 57 3t45 18t38 44t40 83l76 180zM484 1270l134 284h244 l-218 -284h-160z" />
<glyph unicode="&#xfe;" horiz-adv-x="1250" d="M172 -444v1998h244v-540q40 56 121 90t179 34q66 0 134 -18t127 -60t107 -110t74 -164q24 -92 24 -206t-27 -221t-82 -189t-138 -131t-195 -49q-60 0 -116 12t-100 33t-73 46t-35 53v-578h-244zM400 572q0 -80 17 -151t51 -125t82 -86t110 -32q60 0 109 30t84 81t55 122 t20 151q0 78 -18 148t-51 124t-80 86t-109 32q-60 0 -110 -30t-86 -81t-55 -120t-19 -149z" />
<glyph unicode="&#xff;" horiz-adv-x="1344" d="M152 1128h242l330 -868l292 868h244l-196 -521l-150 -398q-64 -171 -113 -289t-90 -197t-77 -124t-74 -69t-83 -29t-103 -5q-18 0 -42 5t-47 12t-41 14t-24 9q8 36 16 68q6 28 13 53t11 35q16 0 49 -10t49 -10q32 0 57 3t45 18t38 44t40 83l76 180zM252 1422q0 60 42 101 t102 41t102 -41t42 -101t-42 -102t-102 -42t-102 42t-42 102zM846 1422q0 60 42 101t102 41t102 -41t42 -101t-42 -102t-102 -42t-102 42t-42 102z" />
<glyph unicode="&#x131;" horiz-adv-x="582" d="M170 0v1128h244v-1128h-244z" />
<glyph unicode="&#x141;" horiz-adv-x="1328" d="M82 550l680 478l144 -144l-680 -476zM330 0v1474h244v-1292h678v-182h-922z" />
<glyph unicode="&#x142;" horiz-adv-x="990" d="M88 674l660 456l142 -142l-658 -458zM252 356v24v1174h244v-1210q0 -68 18 -107t50 -58t73 -25t87 -6v-148q-26 -4 -52 -6q-22 -2 -52 -3t-60 -1t-61 2t-53 6q-68 14 -106 60t-58 103t-25 111t-5 84z" />
<glyph unicode="&#x160;" horiz-adv-x="1084" d="M162 98l42 172q28 -16 71 -31t89 -28t92 -21t86 -8q122 0 187 57t65 169q0 68 -46 116t-115 87t-149 78t-150 92t-116 125t-46 180q0 98 36 174t97 129t142 81t171 28q92 0 186 -17t152 -55q-12 -26 -28 -57l-30 -58l-24 -45q-10 -18 -12 -20q-12 6 -27 16t-43 20t-74 14 q-18 2 -41 2q-34 0 -77 -4q-40 -4 -76 -23t-64 -47t-44 -63t-16 -67q0 -80 46 -129t114 -86t148 -72t149 -85t115 -125t46 -193q0 -80 -33 -155t-93 -132t-148 -91t-200 -34q-48 0 -99 5t-103 17t-99 33t-81 51zM234 1900h220l86 -158l88 158h222l-218 -284h-182z" />
<glyph unicode="&#x161;" horiz-adv-x="1072" d="M146 806q0 84 35 148t91 107t128 65t146 22q100 0 184 -21t162 -71l-78 -166q-60 34 -130 47t-138 13q-74 0 -117 -33t-43 -103q0 -54 39 -85t101 -55t132 -48t131 -61t101 -93t40 -144q0 -86 -34 -150t-92 -106t-134 -62t-162 -20q-52 0 -96 3t-86 13t-84 30t-92 54 l102 162q40 -28 95 -52t139 -24q110 0 172 34t62 100q0 48 -36 77t-91 50t-118 40t-117 47q-106 56 -159 118t-53 164zM228 1554h220l86 -158l88 158h222l-218 -284h-182z" />
<glyph unicode="&#x178;" horiz-adv-x="1310" d="M108 1474h274l254 -660h22l274 660h274l-438 -874v-600h-244v580zM234 1768q0 60 42 101t102 41t102 -41t42 -101t-42 -102t-102 -42t-102 42t-42 102zM828 1768q0 60 42 101t102 41t102 -41t42 -101t-42 -102t-102 -42t-102 42t-42 102z" />
<glyph unicode="&#x17d;" horiz-adv-x="1290" d="M156 0v194l702 1054l42 32h-744v194h980v-194l-702 -1054l-40 -32h742v-194h-980zM336 1900h220l86 -158l88 158h222l-218 -284h-182z" />
<glyph unicode="&#x17e;" horiz-adv-x="1202" d="M172 0v194l580 708l40 32h-620v194h858v-194l-580 -708l-40 -32h620v-194h-858zM294 1554h220l86 -158l88 158h222l-218 -284h-182z" />
<glyph unicode="&#x2c6;" horiz-adv-x="710" d="M48 1270l216 284h182l218 -284h-222l-88 158l-86 -158h-220z" />
<glyph unicode="&#x2c7;" horiz-adv-x="706" d="M46 1554h220l86 -158l88 158h222l-218 -284h-182z" />
<glyph unicode="&#x2d8;" horiz-adv-x="772" d="M138 1520h120q0 -54 38 -92t92 -38t91 38t37 92h118q0 -52 -19 -98t-53 -80t-79 -53t-95 -19q-52 0 -98 19t-80 53t-53 80t-19 98z" />
<glyph unicode="&#x2d9;" horiz-adv-x="570" d="M144 1422q0 60 42 101t100 41q60 0 102 -41t42 -101t-42 -102t-102 -42t-101 42t-41 102z" />
<glyph unicode="&#x2da;" horiz-adv-x="780" d="M142 1520q0 52 19 96t53 78t80 54t98 20t96 -20t78 -54t53 -79t19 -95q0 -52 -19 -98t-53 -80t-79 -53t-95 -19q-52 0 -98 19t-80 53t-53 80t-19 98zM262 1520q0 -54 38 -92t92 -38t91 38t37 92t-38 90t-90 36q-54 0 -92 -37t-38 -89z" />
<glyph unicode="&#x2db;" horiz-adv-x="578" d="M110 -220q0 62 42 116t96 96q60 48 138 86q22 -8 43 -25t25 -21q-8 -6 -45 -29t-77 -57t-71 -77t-31 -91q0 -44 14 -72t36 -45t47 -25t47 -8v-76q-64 0 -113 18t-82 50t-51 73t-18 87z" />
<glyph unicode="&#x2dc;" horiz-adv-x="812" d="M60 1340q14 34 36 67t51 59t64 42t75 16q36 0 73 -10t68 -24t61 -24t54 -10q34 0 56 16t38 68l130 -38q-24 -88 -84 -135t-140 -47q-34 0 -67 11t-64 24t-61 23t-64 10q-32 0 -59 -31t-45 -71z" />
<glyph unicode="&#x2dd;" horiz-adv-x="896" d="M48 1270l134 284h244l-218 -284h-160zM496 1270l134 284h244l-216 -284h-162z" />
<glyph unicode="&#x2000;" horiz-adv-x="1056" />
<glyph unicode="&#x2001;" horiz-adv-x="2114" />
<glyph unicode="&#x2002;" horiz-adv-x="1056" />
<glyph unicode="&#x2003;" horiz-adv-x="2114" />
<glyph unicode="&#x2004;" horiz-adv-x="704" />
<glyph unicode="&#x2005;" horiz-adv-x="528" />
<glyph unicode="&#x2006;" horiz-adv-x="352" />
<glyph unicode="&#x2007;" horiz-adv-x="352" />
<glyph unicode="&#x2008;" horiz-adv-x="264" />
<glyph unicode="&#x2009;" horiz-adv-x="422" />
<glyph unicode="&#x200a;" horiz-adv-x="116" />
<glyph unicode="&#x2010;" horiz-adv-x="978" d="M172 484v202h636v-202h-636z" />
<glyph unicode="&#x2011;" horiz-adv-x="978" d="M172 484v202h636v-202h-636z" />
<glyph unicode="&#x2012;" horiz-adv-x="978" d="M172 484v202h636v-202h-636z" />
<glyph unicode="&#x2013;" horiz-adv-x="1276" d="M172 484v202h934v-202h-934z" />
<glyph unicode="&#x2014;" horiz-adv-x="1834" d="M172 484v202h1490v-202h-1490z" />
<glyph unicode="&#x2018;" horiz-adv-x="552" d="M124 1110q0 10 3 47t19 89t55 115t113 123h94q-40 -40 -67 -80t-45 -74q-20 -38 -28 -76q60 0 102 -42t42 -102t-42 -102t-102 -42t-102 42t-42 102z" />
<glyph unicode="&#x2019;" horiz-adv-x="550" d="M142 1342q0 60 41 101t101 41t102 -42t42 -100q0 -10 -2 -47t-18 -89t-55 -115t-113 -125h-94q40 38 66 80t42 76q18 38 30 76q-60 0 -101 42t-41 102z" />
<glyph unicode="&#x201c;" horiz-adv-x="988" d="M156 1110q0 10 2 47t18 89t55 115t113 123h94q-40 -40 -67 -80t-43 -74q-20 -38 -28 -76q60 0 101 -42t41 -102t-41 -102t-101 -42t-102 42t-42 102zM544 1110q0 10 2 47t19 89t56 115t113 123h94q-40 -40 -67 -80t-45 -74q-20 -38 -28 -76q60 0 102 -42t42 -102 t-42 -102t-102 -42t-102 42t-42 102z" />
<glyph unicode="&#x201d;" horiz-adv-x="986" d="M158 1342q0 60 42 101t102 41t101 -42t41 -100q0 -10 -2 -47t-18 -89t-55 -115t-113 -125h-94q40 38 66 80t42 76q18 38 32 76q-60 0 -102 42t-42 102zM546 1342q0 60 42 101t102 41t102 -42t42 -100q0 -10 -2 -47t-19 -89t-56 -115t-111 -125h-96q40 38 67 80t43 76 q18 38 30 76q-60 0 -102 42t-42 102z" />
<glyph unicode="&#x202f;" horiz-adv-x="422" />
<glyph unicode="&#x2039;" horiz-adv-x="914" d="M88 566l410 502h274l-412 -502l410 -504h-278z" />
<glyph unicode="&#x203a;" horiz-adv-x="914" d="M144 1068h274l410 -502l-404 -504h-278l410 504z" />
<glyph unicode="&#x205f;" horiz-adv-x="528" />
<glyph unicode="&#x20ac;" horiz-adv-x="1356" d="M108 500l62 164h98q-2 20 -2 39v41v42q0 20 2 42h-160l62 164h120q28 124 84 219t133 159t172 96t201 32q184 0 326 -94l-82 -214q-50 58 -111 84t-127 26q-114 0 -208 -70t-140 -238h512l-60 -164h-476q-2 -20 -3 -41t-1 -43t1 -42t3 -38h414l-62 -164h-328 q44 -166 135 -240t201 -74q72 0 136 26t114 84v-260q-112 -48 -244 -46q-108 0 -203 32t-172 96t-132 159t-83 223h-182z" />
<glyph unicode="&#xe000;" horiz-adv-x="1130" d="M0 1130h1130v-1130h-1130v1130z" />
<glyph horiz-adv-x="1296" />
<glyph />
<glyph horiz-adv-x="2180" d="M266 284v560q0 60 1 112t27 90t87 60t183 22h124v284h810v-284h124q78 0 134 -10t92 -41t53 -86t17 -147v-560q0 -60 -1 -112t-27 -89t-88 -60t-180 -23h-1096q-106 0 -160 25t-76 65t-23 91t-1 103zM812 380h158v-158h244v158h160v244h-160v160h-244v-160h-158v-244z M812 1006h562v282h-562v-282z" />
<glyph horiz-adv-x="1136" d="M196 748q-2 -30 6 -66q8 -28 26 -65t54 -73t74 -54t66 -26q34 -8 66 -6q2 28 -6 64q-8 28 -26 65t-54 75q-36 36 -74 54t-66 26q-34 8 -66 6zM196 994q-2 -30 6 -66q8 -28 26 -65t54 -73t74 -55t66 -25q34 -8 66 -6q2 28 -6 64q-8 28 -26 65t-54 75q-36 36 -74 53t-66 27 q-34 8 -66 6zM196 1240q-2 -30 6 -66q8 -28 26 -65t54 -73t74 -55t66 -25q34 -8 66 -6q2 30 -6 66q-8 28 -26 64t-54 74q-36 36 -74 53t-66 25q-34 8 -66 8zM196 1484q-2 -30 6 -64q8 -28 26 -65t54 -73t74 -55t66 -25q34 -8 66 -6q2 30 -6 66q-8 28 -26 65t-54 73 q-36 34 -74 53t-66 25q-34 8 -66 6zM528 0v1414h80v-1414h-80zM650 458q-2 28 6 64q6 28 24 65t56 75q36 36 73 54t65 26q34 8 66 6q2 -30 -6 -66q-8 -28 -27 -65t-53 -73q-36 -36 -73 -54t-67 -26q-34 -8 -64 -6zM650 704q-2 28 6 64q6 28 24 65t56 75q36 36 73 53t65 27 q34 8 66 6q2 -30 -6 -66q-8 -28 -27 -65t-53 -73q-36 -36 -73 -55t-67 -25q-34 -8 -64 -6zM650 950q-2 30 6 66q6 28 24 64t56 74q36 36 73 53t65 25q34 8 66 8q2 -30 -6 -66q-8 -28 -27 -65t-53 -73q-36 -36 -73 -55t-67 -25q-34 -8 -64 -6zM650 1196q-2 30 6 66 q6 28 24 65t56 73q36 34 73 53t65 25q34 8 66 6q2 -30 -6 -64q-8 -28 -27 -65t-53 -73q-36 -36 -73 -55t-67 -25q-34 -8 -64 -6z" />
<glyph horiz-adv-x="1640" d="M166 428v404l656 652l652 -652v-404l-532 532v-960h-244v960z" />
<glyph horiz-adv-x="1432" d="M204 522q0 116 43 244t115 254t164 246t192 218q98 -98 191 -218t163 -246t113 -254t43 -244t-35 -216t-102 -172t-161 -113t-212 -41q-116 0 -211 41t-163 113t-104 172t-36 216zM870 394q0 -50 32 -79t62 -29q24 0 43 15t31 36t18 45t6 44q0 36 -9 75t-22 76t-28 70 t-31 57q0 -48 -15 -95t-29 -75q-8 -20 -18 -34t-19 -30t-15 -34t-6 -42z" />
<glyph horiz-adv-x="1718" d="M204 506v300l656 654l654 -654v-300l-124 122v-628h-182v812l-348 350l-350 -350v-812h-182v628zM738 0v442h242v-442h-242z" />
<glyph horiz-adv-x="1762" d="M280 208v968q0 58 1 110t28 91t87 61t182 22h644q106 0 160 -24t76 -64t23 -92t1 -104v-560v-88v-320h-102v-128q0 -10 -1 -25t-10 -28t-29 -22t-54 -9h-54q-30 0 -47 10t-26 26t-10 34t-1 34v108h-534v-128q0 -10 -1 -25t-10 -28t-27 -22t-56 -9h-52q-30 0 -47 10 t-25 26t-11 34t-3 34v108h-102zM382 490q0 -48 35 -83t83 -35t81 35t33 83t-34 81t-80 33q-48 0 -83 -34t-35 -80zM432 780h900v316q0 36 -3 72t-22 65t-60 46t-115 17h-470q-86 0 -132 -17t-68 -46t-25 -66t-3 -75v-87q0 -75 -2 -225zM1148 490q0 -48 34 -83t84 -35 q48 0 81 35t33 83t-34 81t-80 33q-50 0 -84 -34t-34 -80z" />
<glyph horiz-adv-x="934" d="M192 668v402q0 26 2 47t15 38t40 26t81 9h296q40 0 64 -8t37 -23t16 -32t3 -37v-32v42v-432h-100v402h-28l-46 -204v-70l112 -428h-120l-18 -368h-152l-18 368h-120l112 428v72l-46 202h-28v-402h-102zM328 1428q0 60 42 101t102 41t101 -42t41 -100q0 -60 -41 -102 t-101 -42t-102 42t-42 102z" />
<glyph horiz-adv-x="930" d="M188 626v444v26v4q0 20 5 37t20 29t41 18t72 6h294q50 0 74 -11t36 -30t12 -42v-49v42v-474h-118v444h-38v-1070h-244v1070h-38v-444h-116zM322 1428q0 60 42 101t100 41q60 0 102 -42t42 -100q0 -60 -42 -102t-102 -42t-101 42t-41 102zM742 760v40v-40z" />
<glyph horiz-adv-x="1654" d="M184 282h754l-680 680l172 172l680 -680v754l284 -284v-924h-926z" />
<glyph horiz-adv-x="1350" d="M232 522q0 116 30 213t90 166t146 107t196 38q108 0 194 -38t146 -107t91 -166t31 -213q0 -98 -33 -193t-93 -171t-145 -122t-191 -46t-192 46t-146 122t-92 171t-32 193zM276 1496q40 0 86 -12q38 -10 88 -33t98 -73q50 -50 74 -98t34 -86q10 -46 8 -86q-44 -2 -88 8 q-38 10 -88 34t-96 72q-50 50 -74 98t-34 86q-10 46 -8 90zM704 1108q-2 30 6 66q6 28 24 64t54 72t74 54t66 26q34 8 66 6q2 -30 -6 -64q-8 -28 -26 -65t-54 -73t-74 -55t-66 -25q-34 -8 -64 -6z" />
<glyph horiz-adv-x="1656" d="M262 0v924l284 284v-754l680 680l172 -172l-680 -680h754l-284 -282h-926z" />
<glyph horiz-adv-x="1794" d="M140 610v244h960l-532 532h402l654 -652l-654 -656h-402l532 532h-960z" />
<glyph horiz-adv-x="1796" d="M170 734l654 652h402l-532 -532h960v-244h-960l532 -532h-402z" />
<glyph />
<glyph horiz-adv-x="1640" d="M166 644v402l532 -532v960h244v-960l532 532v-402l-652 -654z" />
<glyph />
<glyph />
<glyph />
<glyph />
<glyph />
<glyph />
<glyph horiz-adv-x="1654" d="M262 284v924h926l284 -282h-754l680 -680l-172 -172l-680 680v-754z" />
<glyph horiz-adv-x="1652" d="M182 926l284 282h926v-924l-284 -284v754l-680 -680l-172 172l680 680h-754z" />
<glyph />
<glyph />
<glyph />
<glyph />
</font>
</defs>
</svg>
