<?xml version="1.0" standalone="no"?>
<!DOCTYPE svg PUBLIC "-//W3C//DTD SVG 1.1//EN" "http://www.w3.org/Graphics/SVG/1.1/DTD/svg11.dtd" >
<svg xmlns="http://www.w3.org/2000/svg">
<metadata>
This is a custom SVG webfont generated by Font Squirrel.
Copyright   : Copyright c 2008 by Jovanny Lemonad All rights reserved
Designer    : Jovanny Lemonad
Foundry     : Jovanny Lemonad
</metadata>
<defs>
<font id="webfontYBIRXVAJ" horiz-adv-x="430" >
<font-face units-per-em="2048" ascent="1638" descent="-410" />
<missing-glyph horiz-adv-x="614" />
<glyph unicode=" "  horiz-adv-x="614" />
<glyph unicode="&#x09;" horiz-adv-x="614" />
<glyph unicode="&#xa0;" horiz-adv-x="614" />
<glyph unicode="!" horiz-adv-x="438" d="M123 -10v246h192v-246h-192zM127 1434h184l-20 -1035h-144z" />
<glyph unicode="&#x22;" horiz-adv-x="675" d="M82 1434h205l-51 -482h-103zM389 1434h205l-51 -482h-103z" />
<glyph unicode="#" horiz-adv-x="1187" d="M61 410v143h195l51 328h-184v143h215l61 410h185l-62 -410h246l61 410h185l-62 -410h174v-143h-204l-52 -328h195v-143h-215l-62 -410h-184l62 410h-246l-62 -410h-184l62 410h-175zM430 553h266l52 328h-267z" />
<glyph unicode="$" horiz-adv-x="901" d="M72 1044q0 190 73.5 283.5t243.5 116.5v174h123v-164q154 0 276 -41v-92h-276v-522q74 -31 117 -53.5t96 -66.5t78.5 -110.5t25.5 -158.5q0 -201 -74.5 -299.5t-242.5 -120.5v-174h-123v164q-174 0 -297 40v93h297v522q-72 29 -117 54.5t-97 71.5t-77.5 117.5 t-25.5 165.5zM256 1044q0 -72 34 -116.5t99 -77.5v450q-133 -45 -133 -256zM512 133q133 59 133 277q0 61 -33.5 98t-99.5 76v-451z" />
<glyph unicode="&#x26;" horiz-adv-x="1085" d="M82 369q0 184 41 307h143v-307q0 -256 144 -256q61 0 102 43t102 172q-215 305 -286.5 459.5t-71.5 297.5q0 369 348 369q184 0 307 -41v-92h-266q-94 0 -149.5 -61.5t-55.5 -174.5q0 -117 46 -234.5t200 -328.5l113 277h184l-184 -451l245 -348h-204l-113 164 q-59 -100 -123.5 -142t-193.5 -42q-84 0 -139.5 15t-100.5 56t-66.5 119t-21.5 199z" />
<glyph unicode="'" horiz-adv-x="368" d="M82 1434h205l-51 -482h-103z" />
<glyph unicode="(" horiz-adv-x="450" d="M82 634.5q0 239.5 48 447.5t208 515l113 -61q-115 -272 -150 -459.5t-35 -441.5t35 -441.5t150 -459.5l-113 -62q-160 307 -208 515t-48 447.5z" />
<glyph unicode=")" horiz-adv-x="450" d="M0 -266q115 272 149.5 459.5t34.5 441.5t-34.5 441.5t-149.5 459.5l113 61q160 -307 208 -515t48 -447.5t-48.5 -447t-207.5 -515.5z" />
<glyph unicode="*" horiz-adv-x="880" d="M51 1044l41 154l277 -72l-11 308h164l-10 -308l276 72l41 -154l-256 -51l144 -274l-144 -72l-133 295l-133 -295l-143 72l143 274z" />
<glyph unicode="+" horiz-adv-x="880" d="M61 594v164h297v327h164v-327h297v-164h-297v-328h-164v328h-297z" />
<glyph unicode="," horiz-adv-x="348" d="M82 236h184l-61 -482h-123v482z" />
<glyph unicode="-" horiz-adv-x="737" d="M61 594v164h615v-164h-615z" />
<glyph unicode="." horiz-adv-x="348" d="M82 -10v246h184v-246h-184z" />
<glyph unicode="/" horiz-adv-x="829" d="M-61 -143l757 1720h195l-758 -1720h-194z" />
<glyph unicode="0" horiz-adv-x="1044" d="M102 716.5q0 407.5 106.5 572.5t313.5 165t313.5 -165t106.5 -572.5t-106.5 -572t-313.5 -164.5t-313.5 164.5t-106.5 572zM287 716.5q0 -141.5 14 -252t35.5 -177t53.5 -109.5t63.5 -59.5t68.5 -16.5t69 16.5t63.5 59.5t53 109.5t36 177t14.5 252t-14.5 252t-36 177 t-53 109.5t-63.5 59.5t-69 16.5t-68.5 -16.5t-63.5 -59.5t-53.5 -109.5t-35.5 -177t-14 -252z" />
<glyph unicode="1" horiz-adv-x="532" d="M20 1290v103q123 41 308 41h82v-1434h-185v1290h-205z" />
<glyph unicode="2" horiz-adv-x="819" d="M41 0v164l114 141l100 124l81 102q49 62 71 93l53 75q32 46 45 73l31 63q17 36 22 63.5t10 59t5 66.5q0 297 -225 297h-266v92q123 41 307 41q188 0 278.5 -101.5t90.5 -328.5q0 -49 -9.5 -97t-20.5 -87t-43 -95l-53 -91q-22 -36 -76 -106l-87 -113l-110 -138l-123 -154 h522v-143h-717z" />
<glyph unicode="3" horiz-adv-x="880" d="M61 20v93h267q154 0 220 64.5t66 211.5q0 154 -66.5 220.5t-219.5 66.5h-144v143h123q137 0 201.5 62.5t64.5 193.5q0 246 -225 246h-266v92q123 41 307 41q369 0 369 -379q0 -221 -185 -313v-8q115 -29 170.5 -129.5t55.5 -235.5q0 -217 -100.5 -313t-329.5 -96 q-185 -1 -308 40z" />
<glyph unicode="4" horiz-adv-x="921" d="M41 369v163l512 902h205v-922h123v-143h-123v-369h-185v369h-532zM215 512h358v625h-8z" />
<glyph unicode="5" horiz-adv-x="921" d="M102 20v93h267q154 0 220 68.5t66 228t-66.5 228.5t-219.5 69h-226v727h656v-134h-471v-460h82q229 0 329.5 -100.5t100.5 -330t-100.5 -329.5t-329.5 -100q-185 -1 -308 40z" />
<glyph unicode="6" horiz-adv-x="942" d="M102 410v450q0 594 410 594q184 0 307 -41v-92h-266q-119 0 -192.5 -118t-73.5 -384q123 41 245 41q160 0 244 -106.5t84 -343.5q0 -227 -92 -328.5t-286.5 -101.5t-287 101.5t-92.5 328.5zM287 410q0 -317 194.5 -317.5t194.5 317.5q0 180 -61.5 253.5t-194.5 73.5h-133 v-327z" />
<glyph unicode="7" horiz-adv-x="798" d="M41 1290v144h717v-164q-274 -670 -369 -1270h-184q92 584 368 1290h-532z" />
<glyph unicode="8" horiz-adv-x="962" d="M82 369q0 143 70.5 239.5t175.5 139.5q-88 27 -157 120t-69 228q0 358 379 358t379 -358q0 -135 -68.5 -228.5t-156.5 -119.5q104 -43 175 -139.5t71 -239.5q0 -201 -96.5 -295t-303.5 -94t-303 94t-96 295zM266 369q0 -127 56.5 -191.5t159 -64.5t158.5 64.5t56 191.5 q0 109 -54 178t-161 119q-106 -49 -160.5 -118.5t-54.5 -178.5zM287 1096q0 -195 194 -267q195 72 195 267q0 104 -54.5 164.5t-140.5 60.5t-140 -60.5t-54 -164.5z" />
<glyph unicode="9" horiz-adv-x="942" d="M82 1024q0 227 92 328.5t286.5 101.5t287 -101.5t92.5 -328.5v-451q0 -594 -410 -593q-184 0 -307 40v93h266q119 0 192.5 117.5t73.5 383.5q-123 -41 -245 -41q-160 0 -244 106.5t-84 344.5zM266 1024q0 -180 61.5 -254t194.5 -74h133v328q0 317 -194.5 317t-194.5 -317 z" />
<glyph unicode=":" horiz-adv-x="348" d="M82 -10v246h184v-246h-184zM82 778v246h184v-246h-184z" />
<glyph unicode=";" horiz-adv-x="348" d="M82 236h184l-61 -482h-123v482zM82 778v246h184v-246h-184z" />
<glyph unicode="&#x3c;" horiz-adv-x="563" d="M20 512l369 492l133 -82l-297 -406v-8l297 -406l-133 -82z" />
<glyph unicode="=" horiz-adv-x="880" d="M61 410v163h758v-163h-758zM61 778v164h758v-164h-758z" />
<glyph unicode="&#x3e;" horiz-adv-x="563" d="M41 102l297 406v8l-297 406l133 82l369 -492l-369 -492z" />
<glyph unicode="?" horiz-adv-x="757" d="M20 1321v92q123 41 308 41q369 0 368 -389q0 -96 -33.5 -173t-81.5 -128l-97 -100q-48 -49 -81.5 -116t-33.5 -149h-144q0 98 30 177t72 132l84 100q42 48 71.5 113.5t29.5 143.5q0 256 -225 256h-267zM201 -10v246h192v-246h-192z" />
<glyph unicode="@" horiz-adv-x="1597" d="M102 635q0 453 160 636t526 183q373 0 540 -155.5t167 -489.5q0 -143 -10 -241.5t-38 -170t-63.5 -112.5t-101 -63.5t-136.5 -30t-183 -7.5l-11 62h-10q-82 -82 -225 -82q-53 0 -92 17.5t-76 63.5t-57.5 144t-20.5 246q0 150 20.5 246t64.5 144t95 64.5t127 16.5 q174 0 328 -62v-727q57 0 91 14.5t65.5 61.5t45 149.5t13.5 266.5q0 270 -128 396t-405 126q-270 0 -391 -153.5t-121 -542.5q0 -387 133.5 -536.5t460.5 -149.5h267v-92q-123 -41 -308 -41q-395 0 -561 181t-166 638zM635 634.5q0 -145.5 26.5 -225t62.5 -101t95 -21.5 q61 0 123 41v655h-123q-59 0 -95 -21.5t-62.5 -101.5t-26.5 -225.5z" />
<glyph unicode="A" horiz-adv-x="1044" d="M41 0l348 1434h266l349 -1434h-185l-92 369h-410l-92 -369h-184zM348 512h348l-170 717h-8z" />
<glyph unicode="B" horiz-adv-x="1003" d="M123 20v1393q137 41 328 41q213 0 311 -92t98 -286.5t-164 -303.5v-8q117 -29 171.5 -131.5t54.5 -243.5q0 -219 -106.5 -314t-364.5 -95q-191 -1 -328 40zM307 113h164q139 0 202.5 64.5t63.5 211.5q0 160 -63.5 228.5t-202.5 68.5h-164v-573zM307 819h103 q137 0 201.5 62.5t64.5 193.5q0 246 -266 246h-103v-502z" />
<glyph unicode="C" horiz-adv-x="921" d="M102 717q0 211 29 356.5t87 228t134 117.5t180 35q184 0 308 -41v-92h-267q-137 0 -211.5 -133t-74.5 -471q0 -340 77.5 -472t229.5 -132h266v-93q-123 -41 -307 -40q-152 0 -247 63t-149.5 228t-54.5 446z" />
<glyph unicode="D" horiz-adv-x="1044" d="M123 20v1393q137 41 328 41q172 0 275 -63.5t159.5 -227.5t56.5 -446.5t-56.5 -446.5t-159.5 -227t-275 -63q-191 -1 -328 40zM307 113h144q152 0 229.5 132t77.5 472t-78 472t-229 132h-144v-1208z" />
<glyph unicode="E" horiz-adv-x="880" d="M123 0v1434h696v-144h-512v-471h451v-143h-451v-533h512v-143h-696z" />
<glyph unicode="F" horiz-adv-x="870" d="M123 0v1434h696v-144h-512v-502h430v-143h-430v-645h-184z" />
<glyph unicode="G" horiz-adv-x="1013" d="M102 717q0 281 54.5 445.5t149.5 228t247 63.5q184 0 307 -41v-92h-266q-152 0 -229.5 -132t-77.5 -472q0 -344 84 -474t264 -130h82v665h184v-758q-123 -41 -307 -40q-172 0 -275.5 63t-160 227t-56.5 447z" />
<glyph unicode="H" horiz-adv-x="1044" d="M123 0v1434h184v-635h430v635h185v-1434h-185v655h-430v-655h-184z" />
<glyph unicode="I" d="M123 0v1434h184v-1434h-184z" />
<glyph unicode="J" horiz-adv-x="706" d="M0 20v93h184q115 0 170.5 83t55.5 296v942h184v-942q0 -287 -95.5 -399.5t-314.5 -112.5q-82 -1 -184 40z" />
<glyph unicode="K" horiz-adv-x="962" d="M123 0v1434h184v-697l400 697h215l-420 -707l461 -727h-215l-441 717v-717h-184z" />
<glyph unicode="L" horiz-adv-x="849" d="M123 0v1434h184v-1291h512v-143h-696z" />
<glyph unicode="M" horiz-adv-x="1454" d="M102 0l82 1434h226l313 -922h8l313 922h226l82 -1434h-185l-61 1065h-10l-277 -809h-184l-277 809h-10l-61 -1065h-185z" />
<glyph unicode="N" horiz-adv-x="1064" d="M123 0v1434h205l430 -1004h10v1004h174v-1434h-205l-430 1004h-10v-1004h-174z" />
<glyph unicode="O" horiz-adv-x="1085" d="M102 717q0 211 29 356.5t88.5 228t137 117.5t186 35t186.5 -35t137.5 -117.5t88 -228t28.5 -356.5t-28.5 -356.5t-88 -228.5t-137.5 -117.5t-186.5 -34.5t-186 34.5t-137 117.5t-88.5 228.5t-29 356.5zM287 716.5q0 -614.5 256 -614.5t256 614.5t-256 614.5t-256 -614.5z " />
<glyph unicode="P" horiz-adv-x="983" d="M123 0v1413q137 41 328 41q248 0 349 -111.5t101 -400.5q0 -281 -86 -396.5t-262 -115.5q-154 0 -246 31v-461h-184zM307 563h144q143 0 204.5 81t61.5 298t-61.5 298t-204.5 81h-144v-758z" />
<glyph unicode="Q" horiz-adv-x="1085" d="M102 717q0 211 29 356.5t88.5 228t137 117.5t186 35t186.5 -35t137.5 -117.5t88 -228t28.5 -356.5q0 -438 -143 -615q123 0 245 -41v-81h-542q-109 0 -186.5 34.5t-137 117.5t-88.5 228.5t-29 356.5zM287 716.5q0 -614.5 256 -614.5t256 614.5t-256 614.5t-256 -614.5z " />
<glyph unicode="R" horiz-adv-x="1013" d="M123 0v1413q137 41 328 41q248 0 349 -108.5t101 -382.5q0 -383 -205 -461l246 -502h-205l-225 481q-102 0 -205 21v-502h-184zM307 614h144q141 0 203.5 77t62.5 272q0 203 -61.5 280.5t-204.5 77.5h-144v-707z" />
<glyph unicode="S" horiz-adv-x="901" d="M72 1044q0 215 97 312.5t312 97.5q184 0 307 -41v-92h-266q-139 0 -202.5 -65.5t-63.5 -211.5q0 -86 59.5 -139t143.5 -83.5t168 -69.5t143 -124t59 -218q0 -229 -99 -329.5t-331 -100.5q-184 0 -307 40v93h266q154 0 220.5 68.5t66.5 228.5q0 80 -59.5 130t-143.5 79.5 t-168 68.5t-143 128t-59 228z" />
<glyph unicode="T" horiz-adv-x="880" d="M20 1290v144h840v-144h-328v-1290h-184v1290h-328z" />
<glyph unicode="U" horiz-adv-x="1044" d="M113 492v942h184v-942q0 -219 55.5 -304.5t170 -85.5t170 85t55.5 305v942h184v-942q0 -287 -95.5 -399.5t-314.5 -112.5t-314 112.5t-95 399.5z" />
<glyph unicode="V" horiz-adv-x="983" d="M31 1434h184l272 -1239h9l272 1239h184l-327 -1434h-267z" />
<glyph unicode="W" horiz-adv-x="1454" d="M31 1434h184l164 -1137h10l215 911h246l215 -911h10l164 1137h184l-215 -1434h-245l-232 973h-8l-231 -973h-246z" />
<glyph unicode="X" horiz-adv-x="942" d="M31 0l307 737l-277 697h185l225 -574l225 574h185l-277 -697l307 -737h-184l-256 614l-256 -614h-184z" />
<glyph unicode="Y" horiz-adv-x="921" d="M20 1434h185l256 -697l256 697h184l-348 -902v-532h-184v532z" />
<glyph unicode="Z" horiz-adv-x="849" d="M41 0v133l532 1157h-522v144h737v-134l-532 -1157h522v-143h-737z" />
<glyph unicode="[" horiz-adv-x="450" d="M82 -307v1884h389v-123h-205v-1638h205v-123h-389z" />
<glyph unicode="\" horiz-adv-x="829" d="M-61 1577h194l758 -1720h-195z" />
<glyph unicode="]" horiz-adv-x="450" d="M-20 -184h204v1638h-204v123h389v-1884h-389v123z" />
<glyph unicode="^" horiz-adv-x="901" d="M41 901l317 533h185l317 -533l-153 -82l-252 410h-9l-251 -410z" />
<glyph unicode="_" horiz-adv-x="614" d="M0 0h614v-164h-614v164z" />
<glyph unicode="`" horiz-adv-x="286" d="M20 1434h195l72 -308h-123z" />
<glyph unicode="a" horiz-adv-x="890" d="M82 287q0 297 266 297q123 0 246 -21v133q0 131 -54.5 178.5t-170.5 47.5h-205v82q123 41 246 40q197 0 282.5 -71.5t85.5 -276.5v-696h-164l-10 61h-10q-109 -82 -246 -81q-266 0 -266 307zM266 286.5q0 -184.5 185 -184.5q82 0 143 41v328h-143q-185 0 -185 -184.5z " />
<glyph unicode="b" horiz-adv-x="942" d="M123 41v1393h184v-471q109 82 246 81q287 0 287 -532q0 -299 -91.5 -415.5t-297.5 -116.5q-174 0 -328 61zM307 102h144q100 0 152 89.5t52 320.5t-52 320.5t-152 89.5q-82 0 -144 -41v-779z" />
<glyph unicode="c" horiz-adv-x="778" d="M102 512q0 297 88.5 414.5t280.5 117.5q123 0 246 -40v-82h-205q-115 0 -170 -88.5t-55 -321.5q0 -236 58 -323t187 -87h205v-82q-123 -41 -245 -40q-207 0 -298.5 116.5t-91.5 415.5z" />
<glyph unicode="d" horiz-adv-x="942" d="M102 512q0 532 287 532q137 0 246 -81v471h184v-1434h-164l-10 61h-10q-109 -82 -246 -81q-287 0 -287 532zM287 512q0 -231 52 -320.5t153 -89.5q82 0 143 41v738q-61 41 -143 41q-100 0 -152.5 -89.5t-52.5 -320.5z" />
<glyph unicode="e" horiz-adv-x="901" d="M102 471q0 324 85 448.5t263.5 124.5t263.5 -124.5t85 -448.5h-512q0 -209 61.5 -289t204.5 -80h205v-82q-123 -41 -246 -40q-219 0 -314.5 109.5t-95.5 381.5zM287 594h327q0 178 -47 258t-116.5 80t-116.5 -80t-47 -258z" />
<glyph unicode="f" horiz-adv-x="573" d="M0 891v123h123v71q0 201 73.5 275t213.5 74q82 0 184 -41v-82h-143q-57 0 -100.5 -50.5t-43.5 -175.5v-61h266v-92q-123 -41 -245 -41h-21v-891h-184v891h-123z" />
<glyph unicode="g" horiz-adv-x="942" d="M102 512q0 299 91.5 415.5t298.5 116.5q174 0 327 -61v-881q0 -287 -95 -399.5t-314 -112.5q-123 0 -246 41v82h205q143 0 204.5 80t61.5 289q-109 -82 -246 -82q-287 0 -287 512zM287 512q0 -217 52 -303t153 -86q82 0 143 41v758h-143q-100 0 -152.5 -89.5 t-52.5 -320.5z" />
<glyph unicode="h" horiz-adv-x="931" d="M123 0v1434h184v-471q109 82 246 81q266 0 266 -307v-737h-184v737q0 184 -184 185q-82 0 -144 -41v-881h-184z" />
<glyph unicode="i" d="M123 0v1024h184v-1024h-184zM123 1147v246h184v-246h-184z" />
<glyph unicode="j" d="M-164 -287h144q57 0 100 50.5t43 175.5v1085h184v-1085q0 -201 -73.5 -275t-213.5 -74q-82 0 -184 41v82zM123 1147v246h184v-246h-184z" />
<glyph unicode="k" horiz-adv-x="870" d="M123 0v1434h184v-881l297 471h205l-317 -481l358 -543h-205l-338 532v-532h-184z" />
<glyph unicode="l" d="M123 0v1434h184v-1434h-184z" />
<glyph unicode="m" horiz-adv-x="1361" d="M123 0v1024h164l10 -61h10q98 82 205 81q123 0 195 -71q129 72 276 71q266 0 266 -307v-737h-184v737q0 184 -184 185q-68 0 -123 -41q20 -61 20 -144v-737h-184v737q0 184 -184 185q-61 0 -103 -41v-881h-184z" />
<glyph unicode="n" horiz-adv-x="931" d="M123 0v1024h164l10 -61h10q109 82 246 81q266 0 266 -307v-737h-184v737q0 184 -184 185q-82 0 -144 -41v-881h-184z" />
<glyph unicode="o" horiz-adv-x="962" d="M102 512q0 297 90.5 414.5t289 117.5t288.5 -117.5t90 -414.5t-90 -414.5t-288.5 -117.5t-289 117.5t-90.5 414.5zM287 512q0 -238 50 -329t144 -91t144.5 91t50.5 329t-50.5 329t-144.5 91t-144 -91t-50 -329z" />
<glyph unicode="p" horiz-adv-x="942" d="M123 -410v1434h164l10 -61h10q109 82 246 81q287 0 287 -532t-287 -532q-137 0 -246 81v-471h-184zM307 143q61 -41 144 -41q100 0 152 89.5t52 320.5t-52 320.5t-152 89.5q-82 0 -144 -41v-738z" />
<glyph unicode="q" horiz-adv-x="942" d="M102 512q0 299 91.5 415.5t298.5 116.5q174 0 327 -61v-1393h-184v471q-109 -82 -246 -81q-287 0 -287 532zM287 512q0 -231 52 -320.5t153 -89.5q82 0 143 41v779h-143q-100 0 -152.5 -89.5t-52.5 -320.5z" />
<glyph unicode="r" horiz-adv-x="655" d="M123 0v1024h164l10 -82h10q109 82 246 82h82v-154h-184q-82 0 -144 -41v-829h-184z" />
<glyph unicode="s" horiz-adv-x="757" d="M61 778q0 147 85 206.5t264 59.5q123 0 245 -40v-82h-204q-205 0 -205 -144q0 -57 33.5 -95t83 -55.5t108.5 -44t108.5 -57t83 -97.5t33.5 -163q0 -162 -88 -224t-280 -62q-123 0 -246 40v82h205q113 0 169 38t56 126q0 57 -34 95t-83 55.5t-108.5 44t-108.5 57.5 t-83 97.5t-34 162.5z" />
<glyph unicode="t" horiz-adv-x="614" d="M0 891v123h133v235h174v-225h266v-92q-123 -41 -245 -41h-21v-563q0 -125 43 -175.5t101 -50.5h143v-82q-102 -41 -184 -40q-139 0 -213 73.5t-74 274.5v563h-123z" />
<glyph unicode="u" horiz-adv-x="931" d="M113 287v737h184v-737q0 -184 184 -185q82 0 144 41v881h184v-1024h-164l-10 61h-10q-109 -82 -246 -81q-266 0 -266 307z" />
<glyph unicode="v" horiz-adv-x="778" d="M10 1024h174l201 -809h8l201 809h174l-266 -1024h-226z" />
<glyph unicode="w" horiz-adv-x="1167" d="M10 1024h174l144 -788h8l135 624h225l135 -624h9l143 788h174l-194 -1024h-236l-139 635h-8l-140 -635h-235z" />
<glyph unicode="x" horiz-adv-x="798" d="M20 0l256 522l-215 502h185l153 -389l154 389h184l-215 -502l256 -522h-184l-195 410l-194 -410h-185z" />
<glyph unicode="y" horiz-adv-x="931" d="M113 307v717h184v-717q0 -184 184 -184q82 0 144 41v860h184v-922q0 -287 -95.5 -399.5t-314.5 -112.5q-123 0 -245 41v82h204q143 0 205 80t62 289q-109 -82 -246 -82q-266 0 -266 307z" />
<glyph unicode="z" horiz-adv-x="757" d="M61 0v123l420 758h-399v143h614v-123l-417 -758h407v-143h-625z" />
<glyph unicode="{" horiz-adv-x="593" d="M41 573v123q82 25 123 84.5t41 182.5v266q0 205 89 276.5t300 71.5v-123q-102 0 -153.5 -48t-51.5 -177v-225q0 -109 -21.5 -179.5t-52 -105.5t-90.5 -80v-8q59 -45 90 -80t52.5 -105.5t21.5 -179.5v-225q0 -129 51.5 -177t153.5 -48v-123q-211 0 -300 71.5t-89 276.5 v266q0 123 -41 182t-123 84z" />
<glyph unicode="|" d="M123 -307v1884h184v-1884h-184z" />
<glyph unicode="}" horiz-adv-x="593" d="M0 -184q102 0 153.5 48t51.5 177v225q0 109 21.5 179.5t52 105.5t90.5 80v8q-59 45 -90 80t-52.5 105.5t-21.5 179.5v225q0 129 -51.5 177t-153.5 48v123q211 0 300 -71.5t89 -276.5v-266q0 -123 41 -182.5t123 -84.5v-123q-82 -25 -123 -84t-41 -182v-266 q0 -205 -89 -276.5t-300 -71.5v123z" />
<glyph unicode="~" horiz-adv-x="1024" d="M61 819h123q0 -59 33 -106t90 -47q55 0 123 41l133 81q86 51 154 52q133 0 189.5 -83t56.5 -245h-123q0 59 -33 106.5t-90 47.5q-55 0 -123 -41l-133 -82q-86 -51 -154 -51q-133 0 -189.5 82.5t-56.5 244.5z" />
<glyph unicode="&#xa1;" horiz-adv-x="438" d="M123 1198v236h192v-236h-192zM127 0l20 1034h144l20 -1034h-184z" />
<glyph unicode="&#xa2;" horiz-adv-x="778" d="M102 532.5q0 276.5 76 396.5t242 136v123h123v-123q123 -20 174 -41v-82h-174v-819h194v-82q-51 -20 -194 -41v-123h-123v123q-166 16 -242 136t-76 396.5zM287 532.5q0 -350.5 133 -399.5v799q-133 -49 -133 -399.5z" />
<glyph unicode="&#xa3;" horiz-adv-x="870" d="M72 655v144h123v225q0 137 22.5 222t76.5 131t123.5 61.5t186.5 15.5q82 0 184 -41v-92h-184q-119 0 -172 -58.5t-53 -238.5v-225h307v-144h-307v-176q0 -260 -103 -327v-9h533v-143h-717v102q102 68 103 328v225h-123z" />
<glyph unicode="&#xa4;" horiz-adv-x="1085" d="M41 307l154 133q-51 102 -51.5 276.5t51.5 276.5l-154 133l133 134l143 -164q102 51 225.5 51t225.5 -51l143 164l133 -134l-153 -133q51 -102 51 -276t-51 -277l153 -133l-133 -133l-143 164q-102 -51 -225 -51t-226 51l-143 -164zM307 717q0 -164 58.5 -235.5 t177.5 -71.5t177 71.5t58 235.5t-58 235.5t-177 71.5t-177.5 -71.5t-58.5 -235.5z" />
<glyph unicode="&#xa5;" horiz-adv-x="921" d="M20 1434h185l256 -697l256 697h184l-235 -605h133v-143h-185l-51 -123h236v-143h-246v-420h-184v420h-246v143h235l-51 123h-184v143h133z" />
<glyph unicode="&#xa6;" d="M123 -307v778h184v-778h-184zM123 799v778h184v-778h-184z" />
<glyph unicode="&#xa7;" horiz-adv-x="901" d="M102 553q0 113 36 184.5t108 143.5q-123 123 -123 286q0 147 85 207t263 60q123 0 246 -41v-82h-205q-205 0 -205 -144q0 -61 37 -112t91 -86t117.5 -81t118 -95.5t91.5 -132t37 -189.5q0 -88 -50.5 -171t-113.5 -116q78 -61 110.5 -130.5t32.5 -176.5q0 -164 -91 -225.5 t-298 -61.5q-123 0 -246 41v82h205q127 0 186.5 37t59.5 127q0 61 -37 112.5t-91 85.5t-117.5 79t-118 92t-91.5 127t-37 180zM287 553q0 -51 15 -95t47 -81t58 -59l64 -52q63 31 103 87.5t40 117.5q0 111 -56 182.5t-169 145.5q-51 -51 -76.5 -105.5t-25.5 -140.5z" />
<glyph unicode="&#xa8;" horiz-adv-x="614" d="M61 1188v246h175v-246h-175zM379 1188v246h174v-246h-174z" />
<glyph unicode="&#xa9;" horiz-adv-x="1597" d="M102 635q0 455 161 637t536 182t535.5 -182t160.5 -637t-160.5 -637t-535.5 -182t-536 182t-161 637zM276 635q0 -389 123 -542.5t399.5 -153.5t399.5 153.5t123 542.5t-123 542.5t-399.5 153.5t-399.5 -153.5t-123 -542.5zM492 635q0 150 21.5 246t68.5 144t103 64.5 t144 16.5q123 0 246 -41v-82h-205q-74 0 -116.5 -21.5t-70.5 -100.5t-28 -226q0 -215 52.5 -281.5t173.5 -66.5h204v-82q-123 -41 -245 -41q-92 0 -150.5 16.5t-106.5 64.5t-69.5 143t-21.5 247z" />
<glyph unicode="&#xaa;" horiz-adv-x="532" d="M41 993.5q0 184.5 154 184.5q92 0 153 -21v72q0 82 -30.5 112.5t-102.5 30.5h-123v47q70 25 144 25q121 0 173 -45t52 -170v-410h-103l-10 41q-51 -51 -153 -51q-154 0 -154 184.5zM154 993.5q0 -112.5 102 -112.5q47 0 92 30v195h-92q-102 0 -102 -112.5z" />
<glyph unicode="&#xab;" horiz-adv-x="849" d="M20 512l318 420l133 -82l-246 -334v-8l246 -334l-133 -82zM358 512l318 420l133 -82l-246 -334v-8l246 -334l-133 -82z" />
<glyph unicode="&#xac;" horiz-adv-x="819" d="M61 676v164h697v-389h-113q-31 92 -31 225h-553z" />
<glyph unicode="&#xad;" horiz-adv-x="737" d="M61 594v164h615v-164h-615z" />
<glyph unicode="&#xae;" horiz-adv-x="1597" d="M102 635q0 455 161 637t536 182t535.5 -182t160.5 -637t-160.5 -637t-535.5 -182t-536 182t-161 637zM276 635q0 -389 123 -542.5t399.5 -153.5t399.5 153.5t123 542.5t-123 542.5t-399.5 153.5t-399.5 -153.5t-123 -542.5zM502 184v860q154 61 327 62q129 0 203 -67.5 t74 -239.5q0 -238 -133 -287l153 -328h-184l-143 308q-51 0 -133 20v-328h-164zM666 614h92q184 0 184 185q0 98 -45 141t-109 43h-122v-369z" />
<glyph unicode="&#xaf;" horiz-adv-x="593" d="M61 1311v123h471v-123h-471z" />
<glyph unicode="&#xb0;" horiz-adv-x="778" d="M82 1126.5q0 327.5 307 327.5t307 -327.5t-307 -327.5t-307 327.5zM225 1126.5q0 -225.5 164 -225.5t164 225.5t-164 225.5t-164 -225.5z" />
<glyph unicode="&#xb1;" horiz-adv-x="901" d="M61 102v164h779v-164h-779zM82 676v164h297v327h164v-327h297v-164h-297v-287h-164v287h-297z" />
<glyph unicode="&#xb2;" horiz-adv-x="450" d="M31 819v92q164 164 204.5 218.5t40.5 119.5q0 123 -112 123h-123v49q76 23 154 23q92 0 143 -51.5t51 -143.5q0 -78 -50 -144.5t-196 -203.5h246v-82h-358z" />
<glyph unicode="&#xb3;" horiz-adv-x="450" d="M41 831v50h143q49 0 81 27.5t32 85t-29.5 85t-72.5 27.5h-82v72h71q41 0 66.5 25.5t25.5 76.5q0 55 -27.5 73.5t-76.5 18.5h-131v49q72 23 154 23q100 0 147 -35t47 -129q0 -55 -26.5 -89t-57.5 -44q43 -8 74 -48t31 -106q0 -109 -54.5 -146.5t-171.5 -37.5 q-67 -1 -143 22z" />
<glyph unicode="&#xb4;" horiz-adv-x="286" d="M20 1126l72 308h195l-144 -308h-123z" />
<glyph unicode="&#xb5;" horiz-adv-x="942" d="M123 -410v1434h184v-737q0 -184 185 -185q82 0 143 41v881h184v-1024h-164l-10 61h-10q-82 -82 -205 -81q-61 0 -123 40v-430h-184z" />
<glyph unicode="&#xb6;" horiz-adv-x="1085" d="M61 1096q0 164 93.5 251t275.5 87h574v-144h-82v-1290h-185v1290h-123v-1290h-184v758q-182 0 -275.5 87t-93.5 251z" />
<glyph unicode="&#xb7;" horiz-adv-x="614" d="M195 594v246h225v-246h-225z" />
<glyph unicode="&#xb8;" horiz-adv-x="348" d="M0 -225q109 0 146.5 44t37.5 181h144q0 -201 -63.5 -264.5t-264.5 -63.5v103z" />
<glyph unicode="&#xb9;" horiz-adv-x="348" d="M41 1352v57q70 25 184 25h41v-615h-112v533h-113z" />
<glyph unicode="&#xba;" horiz-adv-x="552" d="M61 1126.5q0 178.5 51.5 248t164 69.5t164 -69.5t51.5 -248t-51.5 -248t-164 -69.5t-164 69.5t-51.5 248zM174 1126.5q0 -143.5 25.5 -194.5t77 -51t77 51t25.5 194.5t-25.5 194.5t-77 51t-77 -51t-25.5 -194.5z" />
<glyph unicode="&#xbb;" horiz-adv-x="849" d="M41 174l246 334v8l-246 334l133 82l318 -420l-318 -420zM379 174l246 334v8l-246 334l133 82l317 -420l-317 -420z" />
<glyph unicode="&#xbc;" horiz-adv-x="901" d="M41 1352v57q70 25 184 25h41v-615h-112v533h-113zM72 266l665 963l92 -62l-665 -962zM461 154v82l225 378h113v-389h61v-71h-61v-154h-103v154h-235zM563 225h133v236z" />
<glyph unicode="&#xbd;" horiz-adv-x="921" d="M41 1352v57q70 25 184 25h41v-615h-112v533h-113zM51 266l666 963l92 -62l-666 -962zM522 0v92q164 164 205 218.5t41 119.5q0 123 -113 123h-123v49q76 23 154 23q92 0 143.5 -51.5t51.5 -143.5q0 -78 -50.5 -144.5t-195.5 -203.5h246v-82h-359z" />
<glyph unicode="&#xbe;" horiz-adv-x="931" d="M41 831v50h143q49 0 81 27.5t32 85t-29.5 85t-72.5 27.5h-82v72h71q41 0 66.5 25.5t25.5 76.5q0 55 -27.5 73.5t-76.5 18.5h-131v49q72 23 154 23q100 0 147 -35t47 -129q0 -55 -26.5 -89t-57.5 -44q43 -8 74 -48t31 -106q0 -109 -54.5 -146.5t-171.5 -37.5 q-67 -1 -143 22zM123 266l665 963l93 -62l-666 -962zM492 154v82l225 378h112v-389h62v-71h-62v-154h-102v154h-235zM594 225h133v236z" />
<glyph unicode="&#xbf;" horiz-adv-x="757" d="M61 369q0 96 34 172.5t82 128.5l96 100q48 49 82 115.5t34 148.5h143q0 -98 -29.5 -177t-71.5 -131l-84 -100q-42 -48 -71.5 -114t-29.5 -143q0 -256 225 -256h266v-93q-123 -41 -307 -40q-369 0 -369 389zM365 1198v236h192v-236h-192z" />
<glyph unicode="&#xc0;" horiz-adv-x="1044" d="M41 0l348 1434h266l349 -1434h-185l-92 369h-410l-92 -369h-184zM328 1864h194l72 -308h-123zM348 512h348l-170 717h-8z" />
<glyph unicode="&#xc1;" horiz-adv-x="1044" d="M41 0l348 1434h266l349 -1434h-185l-92 369h-410l-92 -369h-184zM348 512h348l-170 717h-8zM451 1556l71 308h195l-144 -308h-122z" />
<glyph unicode="&#xc2;" horiz-adv-x="1044" d="M41 0l348 1434h266l349 -1434h-185l-92 369h-410l-92 -369h-184zM256 1608l195 256h143l194 -256l-102 -72l-164 184l-164 -184zM348 512h348l-170 717h-8z" />
<glyph unicode="&#xc3;" horiz-adv-x="1044" d="M41 0l348 1434h266l349 -1434h-185l-92 369h-410l-92 -369h-184zM256 1812h102q0 -57 16.5 -95t45.5 -38q25 0 50.5 36t63 72t91.5 36q102 0 143 -65.5t41 -190.5h-102q0 57 -16.5 95t-45.5 38q-25 0 -50.5 -36t-63 -72t-91.5 -36q-102 0 -143 65.5t-41 190.5zM348 512 h348l-170 717h-8z" />
<glyph unicode="&#xc4;" horiz-adv-x="1044" d="M41 0l348 1434h266l349 -1434h-185l-92 369h-410l-92 -369h-184zM276 1556v246h175v-246h-175zM348 512h348l-170 717h-8zM594 1556v246h174v-246h-174z" />
<glyph unicode="&#xc5;" horiz-adv-x="1044" d="M41 0l317 1300q-51 68 -51 144q0 100 57.5 157.5t158 57.5t157.5 -57.5t57 -157.5q0 -76 -51 -144l318 -1300h-185l-92 369h-410l-92 -369h-184zM348 512h348l-170 717h-8zM389 1443.5q0 -67.5 36 -105.5t97.5 -38t97 38t35.5 105.5t-35.5 105.5t-97 38t-97.5 -38 t-36 -105.5z" />
<glyph unicode="&#xc6;" horiz-adv-x="1413" d="M20 0l476 1434h856v-144h-512v-471h450v-143h-450v-533h512v-143h-697v369h-325l-123 -369h-187zM371 512h284v778h-30z" />
<glyph unicode="&#xc7;" horiz-adv-x="921" d="M102 717q0 211 29 356.5t87 228t134 117.5t180 35q184 0 308 -41v-92h-267q-137 0 -211.5 -133t-74.5 -471q0 -340 77.5 -472t229.5 -132h266v-93q-102 -41 -246 -40q0 -184 -64.5 -246t-262.5 -62v103q109 0 146.5 43t37.5 172q-123 16 -202 88t-123 230.5t-44 408.5z " />
<glyph unicode="&#xc8;" horiz-adv-x="880" d="M123 0v1434h696v-144h-512v-471h451v-143h-451v-533h512v-143h-696zM276 1864h195l72 -308h-123z" />
<glyph unicode="&#xc9;" horiz-adv-x="880" d="M123 0v1434h696v-144h-512v-471h451v-143h-451v-533h512v-143h-696zM379 1556l72 308h194l-143 -308h-123z" />
<glyph unicode="&#xca;" horiz-adv-x="880" d="M123 0v1434h696v-144h-512v-471h451v-143h-451v-533h512v-143h-696zM205 1608l194 256h144l194 -256l-102 -72l-164 184l-164 -184z" />
<glyph unicode="&#xcb;" horiz-adv-x="880" d="M123 0v1434h696v-144h-512v-471h451v-143h-451v-533h512v-143h-696zM225 1556v246h174v-246h-174zM543 1556v246h174v-246h-174z" />
<glyph unicode="&#xcc;" d="M10 1864h195l71 -308h-122zM123 0v1434h184v-1434h-184z" />
<glyph unicode="&#xcd;" d="M123 0v1434h184v-1434h-184zM154 1556l71 308h195l-144 -308h-122z" />
<glyph unicode="&#xce;" d="M-51 1608l194 256h144l194 -256l-102 -72l-164 184l-164 -184zM123 0v1434h184v-1434h-184z" />
<glyph unicode="&#xcf;" d="M-31 1556v246h174v-246h-174zM123 0v1434h184v-1434h-184zM287 1556v246h174v-246h-174z" />
<glyph unicode="&#xd0;" horiz-adv-x="1105" d="M61 655v144h123v614q137 41 328 41q172 0 275.5 -63.5t160 -227.5t56.5 -446.5t-56.5 -446.5t-160 -227t-275.5 -63q-190 0 -328 40v635h-123zM369 113h143q152 0 229.5 132t77.5 472t-77.5 472t-229.5 132h-143v-522h286v-144h-286v-542z" />
<glyph unicode="&#xd1;" horiz-adv-x="1064" d="M123 0v1434h205l430 -1004h10v1004h174v-1434h-205l-430 1004h-10v-1004h-174zM266 1812h103q0 -57 16 -95t45 -38q25 0 50.5 36t63.5 72t91 36q102 0 143 -65.5t41 -190.5h-102q0 57 -16.5 95t-45.5 38q-25 0 -50 -36t-63 -72t-91 -36q-102 0 -143.5 65.5t-41.5 190.5z " />
<glyph unicode="&#xd2;" horiz-adv-x="1085" d="M102 717q0 211 29 356.5t88.5 228t137 117.5t186 35t186.5 -35t137.5 -117.5t88 -228t28.5 -356.5t-28.5 -356.5t-88 -228.5t-137.5 -117.5t-186.5 -34.5t-186 34.5t-137 117.5t-88.5 228.5t-29 356.5zM287 716.5q0 -614.5 256 -614.5t256 614.5t-256 614.5t-256 -614.5z M348 1884h195l71 -307h-122z" />
<glyph unicode="&#xd3;" horiz-adv-x="1085" d="M102 717q0 211 29 356.5t88.5 228t137 117.5t186 35t186.5 -35t137.5 -117.5t88 -228t28.5 -356.5t-28.5 -356.5t-88 -228.5t-137.5 -117.5t-186.5 -34.5t-186 34.5t-137 117.5t-88.5 228.5t-29 356.5zM287 716.5q0 -614.5 256 -614.5t256 614.5t-256 614.5t-256 -614.5z M471 1577l72 307h194l-143 -307h-123z" />
<glyph unicode="&#xd4;" horiz-adv-x="1085" d="M102 717q0 211 29 356.5t88.5 228t137 117.5t186 35t186.5 -35t137.5 -117.5t88 -228t28.5 -356.5t-28.5 -356.5t-88 -228.5t-137.5 -117.5t-186.5 -34.5t-186 34.5t-137 117.5t-88.5 228.5t-29 356.5zM276 1628l195 256h143l195 -256l-102 -72l-164 185l-164 -185z M287 716.5q0 -614.5 256 -614.5t256 614.5t-256 614.5t-256 -614.5z" />
<glyph unicode="&#xd5;" horiz-adv-x="1085" d="M102 717q0 211 29 356.5t88.5 228t137 117.5t186 35t186.5 -35t137.5 -117.5t88 -228t28.5 -356.5t-28.5 -356.5t-88 -228.5t-137.5 -117.5t-186.5 -34.5t-186 34.5t-137 117.5t-88.5 228.5t-29 356.5zM276 1833h103q0 -57 16.5 -95t44.5 -38q25 0 50.5 36t63.5 71.5 t91 35.5q102 0 143 -65.5t41 -190.5h-102q0 57 -16.5 95t-44.5 38q-25 0 -50.5 -35.5t-63.5 -71.5t-91 -36q-102 0 -143.5 65.5t-41.5 190.5zM287 716.5q0 -614.5 256 -614.5t256 614.5t-256 614.5t-256 -614.5z" />
<glyph unicode="&#xd6;" horiz-adv-x="1085" d="M102 717q0 211 29 356.5t88.5 228t137 117.5t186 35t186.5 -35t137.5 -117.5t88 -228t28.5 -356.5t-28.5 -356.5t-88 -228.5t-137.5 -117.5t-186.5 -34.5t-186 34.5t-137 117.5t-88.5 228.5t-29 356.5zM287 716.5q0 -614.5 256 -614.5t256 614.5t-256 614.5t-256 -614.5z M297 1577v246h174v-246h-174zM614 1577v246h174v-246h-174z" />
<glyph unicode="&#xd7;" horiz-adv-x="778" d="M61 461l215 215l-215 215l113 113l215 -216l215 216l113 -113l-215 -215l215 -215l-113 -113l-215 215l-215 -215z" />
<glyph unicode="&#xd8;" horiz-adv-x="1044" d="M31 102l123 174q-51 188 -52 441q0 408 106.5 572.5t313.5 164.5q223 0 318 -174l82 113l92 -62l-123 -174q51 -188 51 -440q0 -408 -106.5 -572.5t-313.5 -164.5q-223 0 -317 174l-82 -113zM287 717q0 -154 10 -225l420 604q-29 121 -82 178t-113 57q-37 0 -68.5 -16.5 t-63.5 -59.5t-53.5 -109.5t-35.5 -177t-14 -251.5zM328 338q29 -121 82 -178.5t112 -57.5q37 0 69 16.5t63.5 59.5t53 109.5t36 177t14.5 252.5q0 154 -10 225z" />
<glyph unicode="&#xd9;" horiz-adv-x="1044" d="M113 492v942h184v-942q0 -219 55.5 -304.5t170 -85.5t170 85t55.5 305v942h184v-942q0 -287 -95.5 -399.5t-314.5 -112.5t-314 112.5t-95 399.5zM338 1864h194l72 -308h-123z" />
<glyph unicode="&#xda;" horiz-adv-x="1044" d="M113 492v942h184v-942q0 -219 55.5 -304.5t170 -85.5t170 85t55.5 305v942h184v-942q0 -287 -95.5 -399.5t-314.5 -112.5t-314 112.5t-95 399.5zM440 1556l72 308h195l-144 -308h-123z" />
<glyph unicode="&#xdb;" horiz-adv-x="1044" d="M113 492v942h184v-942q0 -219 55.5 -304.5t170 -85.5t170 85t55.5 305v942h184v-942q0 -287 -95.5 -399.5t-314.5 -112.5t-314 112.5t-95 399.5zM256 1608l195 256h143l194 -256l-102 -72l-164 184l-164 -184z" />
<glyph unicode="&#xdc;" horiz-adv-x="1044" d="M113 492v942h184v-942q0 -219 55.5 -304.5t170 -85.5t170 85t55.5 305v942h184v-942q0 -287 -95.5 -399.5t-314.5 -112.5t-314 112.5t-95 399.5zM276 1556v246h175v-246h-175zM594 1556v246h174v-246h-174z" />
<glyph unicode="&#xdd;" horiz-adv-x="921" d="M20 1434h185l256 -697l256 697h184l-348 -902v-532h-184v532zM389 1556l72 308h194l-143 -308h-123z" />
<glyph unicode="&#xde;" horiz-adv-x="983" d="M123 -41v1516h184v-246q317 0 455.5 -123t138.5 -389t-138 -389t-456 -123v-246h-184zM307 338q213 0 311.5 92t98.5 286.5t-98.5 287t-311.5 92.5v-758z" />
<glyph unicode="&#xdf;" horiz-adv-x="1064" d="M113 0v993q0 250 94 355.5t305 105.5q399 0 399 -348q0 -66 -24.5 -117t-58 -84t-68.5 -59.5t-59.5 -56t-24.5 -62.5q0 -47 53 -94t115.5 -87t116 -117t53.5 -173q0 -156 -88 -216t-281 -60q-123 0 -246 40v82h205q225 0 225 154q0 53 -53 105.5t-115.5 91.5 t-115.5 111.5t-53 162.5q0 61 36.5 112.5t80.5 81t81 79t37 106.5q0 100 -57.5 157.5t-157.5 57.5q-106 0 -160.5 -76t-54.5 -252v-993h-184z" />
<glyph unicode="&#xe0;" horiz-adv-x="890" d="M82 287q0 297 266 297q123 0 246 -21v133q0 131 -54.5 178.5t-170.5 47.5h-205v82q123 41 246 40q197 0 282.5 -71.5t85.5 -276.5v-696h-164l-10 61h-10q-109 -82 -246 -81q-266 0 -266 307zM266 286.5q0 -184.5 185 -184.5q82 0 143 41v328h-143q-185 0 -185 -184.5z M266 1475h195l71 -308h-122z" />
<glyph unicode="&#xe1;" horiz-adv-x="890" d="M82 287q0 297 266 297q123 0 246 -21v133q0 131 -54.5 178.5t-170.5 47.5h-205v82q123 41 246 40q197 0 282.5 -71.5t85.5 -276.5v-696h-164l-10 61h-10q-109 -82 -246 -81q-266 0 -266 307zM266 286.5q0 -184.5 185 -184.5q82 0 143 41v328h-143q-185 0 -185 -184.5z M379 1167l72 308h194l-143 -308h-123z" />
<glyph unicode="&#xe2;" horiz-adv-x="890" d="M82 287q0 297 266 297q123 0 246 -21v133q0 131 -54.5 178.5t-170.5 47.5h-205v82q123 41 246 40q197 0 282.5 -71.5t85.5 -276.5v-696h-164l-10 61h-10q-109 -82 -246 -81q-266 0 -266 307zM205 1219l194 256h144l194 -256l-102 -72l-164 184l-164 -184zM266 286.5 q0 -184.5 185 -184.5q82 0 143 41v328h-143q-185 0 -185 -184.5z" />
<glyph unicode="&#xe3;" horiz-adv-x="890" d="M82 287q0 297 266 297q123 0 246 -21v133q0 131 -54.5 178.5t-170.5 47.5h-205v82q123 41 246 40q197 0 282.5 -71.5t85.5 -276.5v-696h-164l-10 61h-10q-109 -82 -246 -81q-266 0 -266 307zM184 1423h103q0 -57 16 -95t45 -38q25 0 50.5 36t63.5 72t91 36 q102 0 143 -65.5t41 -190.5h-102q0 57 -16.5 95t-45.5 38q-25 0 -50 -36t-63 -72t-91 -36q-102 0 -143.5 65.5t-41.5 190.5zM266 286.5q0 -184.5 185 -184.5q82 0 143 41v328h-143q-185 0 -185 -184.5z" />
<glyph unicode="&#xe4;" horiz-adv-x="890" d="M82 287q0 297 266 297q123 0 246 -21v133q0 131 -54.5 178.5t-170.5 47.5h-205v82q123 41 246 40q197 0 282.5 -71.5t85.5 -276.5v-696h-164l-10 61h-10q-109 -82 -246 -81q-266 0 -266 307zM215 1167v246h174v-246h-174zM266 286.5q0 -184.5 185 -184.5q82 0 143 41v328 h-143q-185 0 -185 -184.5zM532 1167v246h175v-246h-175z" />
<glyph unicode="&#xe5;" horiz-adv-x="890" d="M82 287q0 297 266 297q123 0 246 -21v133q0 131 -54.5 178.5t-170.5 47.5h-205v82q123 41 246 40q197 0 282.5 -71.5t85.5 -276.5v-696h-164l-10 61h-10q-109 -82 -246 -81q-266 0 -266 307zM266 286.5q0 -184.5 185 -184.5q82 0 143 41v328h-143q-185 0 -185 -184.5z M307 1300.5q0 65.5 40 109.5t114 44t113.5 -44t39.5 -109.5t-39.5 -109.5t-113.5 -44t-114 44t-40 109.5zM399 1300.5q0 -71.5 61.5 -71.5t61.5 71.5t-61.5 71.5t-61.5 -71.5z" />
<glyph unicode="&#xe6;" horiz-adv-x="1392" d="M82 287q0 297 266 297q123 0 246 -21v133q0 131 -54.5 178.5t-170.5 47.5h-205v82q123 41 246 40q113 0 183.5 -27.5t113.5 -105.5q45 74 100 103.5t135 29.5q178 0 263 -124.5t85 -448.5h-512q0 -209 61.5 -289t204.5 -80h205v-82q-123 -41 -245 -40q-90 0 -157 21.5 t-140 80.5q-102 -102 -287 -102q-172 0 -255 65.5t-83 241.5zM266 286.5q0 -184.5 185 -184.5q82 0 143 41v328h-143q-185 0 -185 -184.5zM778 594h328q0 178 -47 258t-117 80t-117 -81t-47 -257z" />
<glyph unicode="&#xe7;" horiz-adv-x="778" d="M102 512q0 297 88.5 414.5t280.5 117.5q123 0 246 -40v-82h-205q-115 0 -170 -88.5t-55 -321.5q0 -236 58 -323t187 -87h205v-82q-57 -23 -184 -40q0 -184 -64.5 -246t-263.5 -62v103q109 0 147 43t38 172q-166 25 -237 138.5t-71 383.5z" />
<glyph unicode="&#xe8;" horiz-adv-x="901" d="M102 471q0 324 85 448.5t263.5 124.5t263.5 -124.5t85 -448.5h-512q0 -209 61.5 -289t204.5 -80h205v-82q-123 -41 -246 -40q-219 0 -314.5 109.5t-95.5 381.5zM246 1475h194l72 -308h-123zM287 594h327q0 178 -47 258t-116.5 80t-116.5 -80t-47 -258z" />
<glyph unicode="&#xe9;" horiz-adv-x="901" d="M102 471q0 324 85 448.5t263.5 124.5t263.5 -124.5t85 -448.5h-512q0 -209 61.5 -289t204.5 -80h205v-82q-123 -41 -246 -40q-219 0 -314.5 109.5t-95.5 381.5zM287 594h327q0 178 -47 258t-116.5 80t-116.5 -80t-47 -258zM379 1167l72 308h194l-143 -308h-123z" />
<glyph unicode="&#xea;" horiz-adv-x="901" d="M102 471q0 324 85 448.5t263.5 124.5t263.5 -124.5t85 -448.5h-512q0 -209 61.5 -289t204.5 -80h205v-82q-123 -41 -246 -40q-219 0 -314.5 109.5t-95.5 381.5zM184 1219l195 256h143l195 -256l-103 -72l-163 184l-164 -184zM287 594h327q0 178 -47 258t-116.5 80 t-116.5 -80t-47 -258z" />
<glyph unicode="&#xeb;" horiz-adv-x="901" d="M102 471q0 324 85 448.5t263.5 124.5t263.5 -124.5t85 -448.5h-512q0 -209 61.5 -289t204.5 -80h205v-82q-123 -41 -246 -40q-219 0 -314.5 109.5t-95.5 381.5zM205 1167v246h174v-246h-174zM287 604h327q0 170 -47 249t-116.5 79t-116.5 -79t-47 -249zM522 1167v246h174 v-246h-174z" />
<glyph unicode="&#xec;" d="M10 1454h195l71 -307h-122zM123 0v1024h184v-1024h-184z" />
<glyph unicode="&#xed;" d="M123 0v1024h184v-1024h-184zM154 1147l71 307h195l-144 -307h-122z" />
<glyph unicode="&#xee;" d="M-51 1198l194 256h144l194 -256l-102 -72l-164 185l-164 -185zM123 0v1024h184v-1024h-184z" />
<glyph unicode="&#xef;" d="M-31 1147v246h174v-246h-174zM123 0v1024h184v-1024h-184zM287 1147v246h174v-246h-174z" />
<glyph unicode="&#xf0;" horiz-adv-x="952" d="M102 430q0 430 308 430q123 0 245 -41q0 156 -82 287l-92 -113l-92 82l103 123q-115 98 -267 113v123q221 -14 369 -113l113 133l92 -82l-113 -133q154 -184 154 -502v-307q0 -242 -90.5 -346t-278.5 -104t-278.5 104t-90.5 346zM287 430q0 -338 184 -338t184 338v307 h-133q-119 0 -177 -71.5t-58 -235.5z" />
<glyph unicode="&#xf1;" horiz-adv-x="931" d="M123 0v1024h164l10 -61h10q109 82 246 81q266 0 266 -307v-737h-184v737q0 184 -184 185q-82 0 -144 -41v-881h-184zM205 1423h102q0 -57 16.5 -95t45.5 -38q25 0 50 36t63 72t91 36q102 0 143.5 -65.5t41.5 -190.5h-103q0 57 -16 95t-45 38q-25 0 -50.5 -36t-63.5 -72 t-91 -36q-102 0 -143 65.5t-41 190.5z" />
<glyph unicode="&#xf2;" horiz-adv-x="962" d="M102 512q0 297 90.5 414.5t289 117.5t288.5 -117.5t90 -414.5t-90 -414.5t-288.5 -117.5t-289 117.5t-90.5 414.5zM276 1475h195l72 -308h-123zM287 512q0 -238 50 -329t144 -91t144.5 91t50.5 329t-50.5 329t-144.5 91t-144 -91t-50 -329z" />
<glyph unicode="&#xf3;" horiz-adv-x="962" d="M102 512q0 297 90.5 414.5t289 117.5t288.5 -117.5t90 -414.5t-90 -414.5t-288.5 -117.5t-289 117.5t-90.5 414.5zM287 512q0 -238 50 -329t144 -91t144.5 91t50.5 329t-50.5 329t-144.5 91t-144 -91t-50 -329zM410 1167l71 308h195l-144 -308h-122z" />
<glyph unicode="&#xf4;" horiz-adv-x="962" d="M102 512q0 297 90.5 414.5t289 117.5t288.5 -117.5t90 -414.5t-90 -414.5t-288.5 -117.5t-289 117.5t-90.5 414.5zM215 1219l195 256h143l195 -256l-103 -72l-164 184l-164 -184zM287 512q0 -238 50 -329t144 -91t144.5 91t50.5 329t-50.5 329t-144.5 91t-144 -91 t-50 -329z" />
<glyph unicode="&#xf5;" horiz-adv-x="962" d="M102 512q0 297 90.5 414.5t289 117.5t288.5 -117.5t90 -414.5t-90 -414.5t-288.5 -117.5t-289 117.5t-90.5 414.5zM215 1423h102q0 -57 16.5 -95t45.5 -38q25 0 50.5 36t63 72t91.5 36q102 0 143 -65.5t41 -190.5h-102q0 57 -16.5 95t-45.5 38q-25 0 -50.5 -36t-63 -72 t-91.5 -36q-102 0 -143 65.5t-41 190.5zM287 512q0 -238 50 -329t144 -91t144.5 91t50.5 329t-50.5 329t-144.5 91t-144 -91t-50 -329z" />
<glyph unicode="&#xf6;" horiz-adv-x="962" d="M102 512q0 297 90.5 414.5t289 117.5t288.5 -117.5t90 -414.5t-90 -414.5t-288.5 -117.5t-289 117.5t-90.5 414.5zM236 1167v246h174v-246h-174zM287 512q0 -238 50 -329t144 -91t144.5 91t50.5 329t-50.5 329t-144.5 91t-144 -91t-50 -329zM553 1167v246h174v-246h-174z " />
<glyph unicode="&#xf7;" horiz-adv-x="819" d="M61 594v164h697v-164h-697zM328 266v185h164v-185h-164zM328 901v184h164v-184h-164z" />
<glyph unicode="&#xf8;" horiz-adv-x="962" d="M51 123l82 92q-31 109 -31 297q0 297 90.5 414.5t288.5 117.5q215 0 297 -122l62 61l71 -82l-82 -92q31 -109 31 -297q0 -297 -90 -414.5t-289 -117.5q-215 0 -297 122l-61 -61zM287 512q0 -82 10 -123l348 389q-39 154 -164 154q-94 0 -144 -91t-50 -329zM317 246 q39 -154 164 -154q94 0 144.5 91t50.5 329q0 82 -10 123z" />
<glyph unicode="&#xf9;" horiz-adv-x="931" d="M113 287v737h184v-737q0 -184 184 -185q82 0 144 41v881h184v-1024h-164l-10 61h-10q-109 -82 -246 -81q-266 0 -266 307zM266 1434h195l71 -308h-122z" />
<glyph unicode="&#xfa;" horiz-adv-x="931" d="M113 287v737h184v-737q0 -184 184 -185q82 0 144 41v881h184v-1024h-164l-10 61h-10q-109 -82 -246 -81q-266 0 -266 307zM389 1126l72 308h194l-143 -308h-123z" />
<glyph unicode="&#xfb;" horiz-adv-x="931" d="M113 287v737h184v-737q0 -184 184 -185q82 0 144 41v881h184v-1024h-164l-10 61h-10q-109 -82 -246 -81q-266 0 -266 307zM195 1198l194 256h143l195 -256l-102 -72l-164 185l-164 -185z" />
<glyph unicode="&#xfc;" horiz-adv-x="931" d="M113 287v737h184v-737q0 -184 184 -185q82 0 144 41v881h184v-1024h-164l-10 61h-10q-109 -82 -246 -81q-266 0 -266 307zM215 1147v246h174v-246h-174zM532 1147v246h175v-246h-175z" />
<glyph unicode="&#xfd;" horiz-adv-x="931" d="M113 307v717h184v-717q0 -184 184 -184q82 0 144 41v860h184v-922q0 -287 -95.5 -399.5t-314.5 -112.5q-123 0 -245 41v82h204q143 0 205 80t62 289q-109 -82 -246 -82q-266 0 -266 307zM389 1126l72 308h194l-143 -308h-123z" />
<glyph unicode="&#xfe;" horiz-adv-x="942" d="M123 -410v1844h184v-471q109 82 246 81q287 0 287 -532t-287 -532q-137 0 -246 81v-471h-184zM307 143q61 -41 144 -41q100 0 152 89.5t52 320.5t-52 320.5t-152 89.5q-82 0 -144 -41v-738z" />
<glyph unicode="&#xff;" horiz-adv-x="931" d="M113 307v717h184v-717q0 -184 184 -184q82 0 144 41v860h184v-922q0 -287 -95.5 -399.5t-314.5 -112.5q-123 0 -245 41v82h204q143 0 205 80t62 289q-109 -82 -246 -82q-266 0 -266 307zM215 1147v246h174v-246h-174zM532 1147v246h175v-246h-175z" />
<glyph unicode="&#x100;" horiz-adv-x="1044" d="M41 0l348 1434h266l349 -1434h-185l-92 369h-410l-92 -369h-184zM287 1556v123h471v-123h-471zM348 512h348l-170 717h-8z" />
<glyph unicode="&#x101;" horiz-adv-x="890" d="M82 287q0 297 266 297q123 0 246 -21v133q0 131 -54.5 178.5t-170.5 47.5h-205v82q123 41 246 40q197 0 282.5 -71.5t85.5 -276.5v-696h-164l-10 61h-10q-109 -82 -246 -81q-266 0 -266 307zM236 1167v123h471v-123h-471zM266 286.5q0 -184.5 185 -184.5q82 0 143 41v328 h-143q-185 0 -185 -184.5z" />
<glyph unicode="&#x104;" horiz-adv-x="1044" d="M41 0l348 1434h266l349 -1434h-62q0 -137 41 -181t164 -44v-103q-201 0 -264.5 63.5t-63.5 264.5l-92 369h-410l-92 -369h-184zM348 512h348l-170 717h-8z" />
<glyph unicode="&#x105;" horiz-adv-x="890" d="M82 287q0 297 266 297q123 0 246 -21v133q0 131 -54.5 178.5t-170.5 47.5h-205v82q123 41 246 40q197 0 282.5 -71.5t85.5 -276.5v-696h-41q0 -137 41 -181t164 -44v-103q-209 0 -273.5 73t-64.5 316h-10q-109 -82 -246 -81q-266 0 -266 307zM266 286.5 q0 -184.5 185 -184.5q82 0 143 41v328h-143q-185 0 -185 -184.5z" />
<glyph unicode="&#x106;" horiz-adv-x="921" d="M102 717q0 211 29 356.5t87 228t134 117.5t180 35q184 0 308 -41v-92h-267q-137 0 -211.5 -133t-74.5 -471q0 -340 77.5 -472t229.5 -132h266v-93q-123 -41 -307 -40q-152 0 -247 63t-149.5 228t-54.5 446zM451 1577l71 307h195l-144 -307h-122z" />
<glyph unicode="&#x107;" horiz-adv-x="778" d="M102 532q0 297 88.5 415t280.5 118q123 0 246 -41v-82h-205q-115 0 -170 -88t-55 -322q0 -236 58 -322.5t187 -86.5h205v-82q-123 -41 -245 -41q-207 0 -298.5 116.5t-91.5 415.5zM369 1188l71 307h195l-143 -307h-123z" />
<glyph unicode="&#x10c;" horiz-adv-x="921" d="M102 717q0 211 29 356.5t87 228t134 117.5t180 35q184 0 308 -41v-92h-267q-137 0 -211.5 -133t-74.5 -471q0 -340 77.5 -472t229.5 -132h266v-93q-123 -41 -307 -40q-152 0 -247 63t-149.5 228t-54.5 446zM246 1833l102 72l164 -185l164 185l102 -72l-194 -256h-144z " />
<glyph unicode="&#x10d;" horiz-adv-x="778" d="M102 532q0 297 88.5 415t280.5 118q123 0 246 -41v-82h-205q-115 0 -170 -88t-55 -322q0 -236 58 -322.5t187 -86.5h205v-82q-123 -41 -245 -41q-207 0 -298.5 116.5t-91.5 415.5zM184 1444l103 72l164 -185l163 185l103 -72l-195 -256h-143z" />
<glyph unicode="&#x112;" horiz-adv-x="880" d="M123 0v1434h696v-144h-512v-471h451v-143h-451v-533h512v-143h-696zM236 1556v123h471v-123h-471z" />
<glyph unicode="&#x113;" horiz-adv-x="901" d="M102 471q0 324 85 448.5t263.5 124.5t263.5 -124.5t85 -448.5h-512q0 -209 61.5 -289t204.5 -80h205v-82q-123 -41 -246 -40q-219 0 -314.5 109.5t-95.5 381.5zM215 1167v123h471v-123h-471zM287 594h327q0 178 -47 258t-116.5 80t-116.5 -80t-47 -258z" />
<glyph unicode="&#x116;" horiz-adv-x="880" d="M123 0v1434h696v-144h-512v-471h451v-143h-451v-533h512v-143h-696zM389 1556v246h174v-246h-174z" />
<glyph unicode="&#x117;" horiz-adv-x="901" d="M102 471q0 324 85 448.5t263.5 124.5t263.5 -124.5t85 -448.5h-512q0 -209 61.5 -289t204.5 -80h205v-82q-123 -41 -246 -40q-219 0 -314.5 109.5t-95.5 381.5zM287 594h327q0 178 -47 258t-116.5 80t-116.5 -80t-47 -258zM369 1167v246h174v-246h-174z" />
<glyph unicode="&#x118;" horiz-adv-x="880" d="M123 0v1434h696v-144h-512v-471h451v-143h-451v-533h512v-143h-102q0 -137 41 -181t164 -44v-103q-201 0 -264.5 63.5t-63.5 264.5h-471z" />
<glyph unicode="&#x119;" horiz-adv-x="901" d="M102 471q0 324 85 448.5t263.5 124.5t263.5 -124.5t85 -448.5h-512q0 -209 61.5 -289t204.5 -80h205v-82q-102 -41 -205 -40q0 -123 41 -164t164 -41v-103q-199 0 -263.5 61.5t-64.5 246.5q-162 16 -245 128.5t-83 362.5zM287 594h327q0 178 -47 258t-116.5 80 t-116.5 -80t-47 -258z" />
<glyph unicode="&#x11e;" horiz-adv-x="1013" d="M102 717q0 281 54.5 445.5t149.5 228t247 63.5q184 0 307 -41v-92h-266q-152 0 -229.5 -132t-77.5 -472q0 -344 84 -474t264 -130h82v665h184v-758q-123 -41 -307 -40q-172 0 -275.5 63t-160 227t-56.5 447zM225 1731l72 81q92 -92 215 -92t215 92l72 -81 q-106 -154 -287 -154t-287 154z" />
<glyph unicode="&#x11f;" horiz-adv-x="942" d="M102 512q0 299 91.5 415.5t298.5 116.5q174 0 327 -61v-881q0 -287 -95 -399.5t-314 -112.5q-123 0 -246 41v82h205q143 0 204.5 80t61.5 289q-109 -82 -246 -82q-287 0 -287 512zM195 1311l71 82q82 -82 205 -82t205 82l72 -82q-100 -143 -276.5 -143t-276.5 143z M287 512q0 -217 52 -303t153 -86q82 0 143 41v758h-143q-100 0 -152.5 -89.5t-52.5 -320.5z" />
<glyph unicode="&#x122;" horiz-adv-x="1013" d="M102 717q0 281 54.5 445.5t149.5 228t247 63.5q184 0 307 -41v-92h-266q-152 0 -229.5 -132t-77.5 -472q0 -344 84 -474t264 -130h82v665h184v-758q-123 -41 -307 -40q-172 0 -275.5 63t-160 227t-56.5 447zM471 -143h184l-61 -308h-123v308z" />
<glyph unicode="&#x123;" horiz-adv-x="942" d="M102 512q0 299 91.5 415.5t298.5 116.5q174 0 327 -61v-881q0 -287 -95 -399.5t-314 -112.5q-123 0 -246 41v82h205q143 0 204.5 80t61.5 289q-109 -82 -246 -82q-287 0 -287 512zM287 512q0 -217 52 -303t153 -86q82 0 143 41v758h-143q-100 0 -152.5 -89.5 t-52.5 -320.5zM389 1167l62 308h122v-308h-184z" />
<glyph unicode="&#x12b;" d="M-20 1147v123h471v-123h-471zM123 0v1024h184v-1024h-184z" />
<glyph unicode="&#x12e;" d="M123 0v1434h184v-1434h-61q0 -137 41 -181t164 -44v-103q-201 0 -264.5 63.5t-63.5 264.5z" />
<glyph unicode="&#x12f;" d="M123 0v1024h184v-1024h-61q0 -137 41 -181t164 -44v-103q-201 0 -264.5 63.5t-63.5 264.5zM123 1147v246h184v-246h-184z" />
<glyph unicode="&#x130;" d="M123 0v1434h184v-1434h-184zM123 1556v246h184v-246h-184z" />
<glyph unicode="&#x131;" d="M123 0v1024h184v-1024h-184z" />
<glyph unicode="&#x136;" horiz-adv-x="962" d="M123 0v1434h184v-697l400 697h215l-420 -707l461 -727h-215l-441 717v-717h-184zM410 -123h184l-62 -307h-122v307z" />
<glyph unicode="&#x137;" horiz-adv-x="870" d="M123 0v1434h184v-881l297 471h205l-317 -481l358 -543h-205l-338 532v-532h-184zM369 -123h184l-61 -307h-123v307z" />
<glyph unicode="&#x13b;" horiz-adv-x="849" d="M123 0v1434h184v-1291h512v-143h-696zM389 -123h184l-61 -307h-123v307z" />
<glyph unicode="&#x13c;" d="M123 0v1434h184v-1434h-184zM123 -123h184l-61 -307h-123v307z" />
<glyph unicode="&#x141;" horiz-adv-x="849" d="M-51 625l174 123v686h184v-553l123 82l72 -103l-195 -133v-584h512v-143h-696v594l-103 -72z" />
<glyph unicode="&#x142;" d="M-51 625l174 123v686h184v-553l123 82l72 -103l-195 -133v-727h-184v594l-103 -72z" />
<glyph unicode="&#x143;" horiz-adv-x="1064" d="M123 0v1434h205l430 -1004h10v1004h174v-1434h-205l-430 1004h-10v-1004h-174zM451 1556l71 308h195l-144 -308h-122z" />
<glyph unicode="&#x144;" horiz-adv-x="931" d="M123 0v1024h164l10 -61h10q109 82 246 81q266 0 266 -307v-737h-184v737q0 184 -184 185q-82 0 -144 -41v-881h-184zM389 1167l72 308h194l-143 -308h-123z" />
<glyph unicode="&#x145;" horiz-adv-x="1064" d="M123 0v1434h205l430 -1004h10v1004h174v-1434h-205l-430 1004h-10v-1004h-174zM430 -123h184l-61 -307h-123v307z" />
<glyph unicode="&#x146;" horiz-adv-x="931" d="M123 0v1024h164l10 -61h10q109 82 246 81q266 0 266 -307v-737h-184v737q0 184 -184 185q-82 0 -144 -41v-881h-184zM389 -123h184l-61 -307h-123v307z" />
<glyph unicode="&#x14c;" horiz-adv-x="1085" d="M102 717q0 211 29 356.5t88.5 228t137 117.5t186 35t186.5 -35t137.5 -117.5t88 -228t28.5 -356.5t-28.5 -356.5t-88 -228.5t-137.5 -117.5t-186.5 -34.5t-186 34.5t-137 117.5t-88.5 228.5t-29 356.5zM287 716.5q0 -614.5 256 -614.5t256 614.5t-256 614.5t-256 -614.5z M307 1577v123h471v-123h-471z" />
<glyph unicode="&#x14d;" horiz-adv-x="962" d="M102 512q0 297 90.5 414.5t289 117.5t288.5 -117.5t90 -414.5t-90 -414.5t-288.5 -117.5t-289 117.5t-90.5 414.5zM246 1167v123h471v-123h-471zM287 512q0 -238 50 -329t144 -91t144.5 91t50.5 329t-50.5 329t-144.5 91t-144 -91t-50 -329z" />
<glyph unicode="&#x152;" horiz-adv-x="1556" d="M102 717q0 211 29 356.5t88.5 228t137 117.5t186.5 35q158 0 256 -78v58h696v-144h-512v-471h451v-143h-451v-533h512v-143h-696v57q-94 -78 -256 -77q-109 0 -186.5 34.5t-137 117.5t-88.5 228.5t-29 356.5zM287 716.5q0 -614.5 256 -614.5t256 614.5t-256 614.5 t-256 -614.5z" />
<glyph unicode="&#x153;" horiz-adv-x="1474" d="M102 512q0 297 90.5 414.5t288.5 117.5q203 0 287 -112q84 113 256 112q178 0 263 -124.5t85 -448.5h-512q0 -209 61.5 -289t204.5 -80h205v-82q-123 -41 -246 -40q-233 0 -317 112q-84 -113 -287 -112q-199 0 -289 117.5t-90 414.5zM287 512q0 -238 50 -329t144 -91 t144.5 91t50.5 329t-50.5 329t-144.5 91t-144 -91t-50 -329zM860 594h328q0 178 -47 258t-117 80t-117 -80t-47 -258z" />
<glyph unicode="&#x156;" horiz-adv-x="1013" d="M123 0v1413q137 41 328 41q248 0 349 -108.5t101 -382.5q0 -383 -205 -461l246 -502h-205l-225 481q-102 0 -205 21v-502h-184zM307 614h144q141 0 203.5 77t62.5 272q0 203 -61.5 280.5t-204.5 77.5h-144v-707zM430 -123h184l-61 -307h-123v307z" />
<glyph unicode="&#x157;" horiz-adv-x="655" d="M123 0v1024h164l10 -82h10q109 82 246 82h82v-154h-184q-82 0 -144 -41v-829h-184zM123 -123h184l-61 -307h-123v307z" />
<glyph unicode="&#x15a;" horiz-adv-x="901" d="M72 1044q0 215 97 312.5t312 97.5q184 0 307 -41v-92h-266q-139 0 -202.5 -65.5t-63.5 -211.5q0 -86 59.5 -139t143.5 -83.5t168 -69.5t143 -124t59 -218q0 -229 -99 -329.5t-331 -100.5q-184 0 -307 40v93h266q154 0 220.5 68.5t66.5 228.5q0 80 -59.5 130t-143.5 79.5 t-168 68.5t-143 128t-59 228zM379 1556l72 308h194l-143 -308h-123z" />
<glyph unicode="&#x15b;" horiz-adv-x="757" d="M61 778q0 147 85 206.5t264 59.5q123 0 245 -40v-82h-204q-205 0 -205 -144q0 -57 33.5 -95t83 -55.5t108.5 -44t108.5 -57t83 -97.5t33.5 -163q0 -162 -88 -224t-280 -62q-123 0 -246 40v82h205q113 0 169 38t56 126q0 57 -34 95t-83 55.5t-108.5 44t-108.5 57.5 t-83 97.5t-34 162.5zM307 1167l72 308h194l-143 -308h-123z" />
<glyph unicode="&#x15e;" horiz-adv-x="901" d="M72 1044q0 215 97 312.5t312 97.5q184 0 307 -41v-92h-266q-139 0 -202.5 -65.5t-63.5 -211.5q0 -86 59.5 -139t143.5 -83.5t168 -69.5t143 -124t59 -218q0 -184 -64.5 -287t-201.5 -133q0 -193 -64.5 -255.5t-262.5 -62.5v103q109 0 146.5 41t37.5 164q-205 0 -328 40 v93h266q154 0 220.5 68.5t66.5 228.5q0 80 -59.5 130t-143.5 79.5t-168 68.5t-143 128t-59 228z" />
<glyph unicode="&#x15f;" horiz-adv-x="757" d="M61 778q0 147 85 206.5t264 59.5q123 0 245 -40v-82h-204q-205 0 -205 -144q0 -57 33.5 -95t83 -55.5t108.5 -44t108.5 -57t83 -97.5t33.5 -163q0 -229 -204 -276q0 -193 -65 -255.5t-263 -62.5v103q109 0 146.5 41t37.5 164q-143 0 -266 40v82h205q113 0 169 38t56 126 q0 57 -34 95t-83 55.5t-108.5 44t-108.5 57.5t-83 97.5t-34 162.5z" />
<glyph unicode="&#x160;" horiz-adv-x="901" d="M72 1044q0 215 97 312.5t312 97.5q184 0 307 -41v-92h-266q-139 0 -202.5 -65.5t-63.5 -211.5q0 -86 59.5 -139t143.5 -83.5t168 -69.5t143 -124t59 -218q0 -229 -99 -329.5t-331 -100.5q-184 0 -307 40v93h266q154 0 220.5 68.5t66.5 228.5q0 80 -59.5 130t-143.5 79.5 t-168 68.5t-143 128t-59 228zM184 1833l103 72l164 -185l163 185l103 -72l-195 -256h-143z" />
<glyph unicode="&#x161;" horiz-adv-x="757" d="M61 778q0 147 85 206.5t264 59.5q123 0 245 -40v-82h-204q-205 0 -205 -144q0 -57 33.5 -95t83 -55.5t108.5 -44t108.5 -57t83 -97.5t33.5 -163q0 -162 -88 -224t-280 -62q-123 0 -246 40v82h205q113 0 169 38t56 126q0 57 -34 95t-83 55.5t-108.5 44t-108.5 57.5 t-83 97.5t-34 162.5zM92 1423l103 72l163 -184l164 184l103 -72l-195 -256h-143z" />
<glyph unicode="&#x16a;" horiz-adv-x="1044" d="M113 492v942h184v-942q0 -219 55.5 -304.5t170 -85.5t170 85t55.5 305v942h184v-942q0 -287 -95.5 -399.5t-314.5 -112.5t-314 112.5t-95 399.5zM287 1556v123h471v-123h-471z" />
<glyph unicode="&#x16b;" horiz-adv-x="931" d="M113 287v737h184v-737q0 -184 184 -185q82 0 144 41v881h184v-1024h-164l-10 61h-10q-109 -82 -246 -81q-266 0 -266 307zM225 1147v123h471v-123h-471z" />
<glyph unicode="&#x172;" horiz-adv-x="1044" d="M113 492v942h184v-942q0 -219 55.5 -304.5t170 -85.5t170 85t55.5 305v942h184v-942q0 -266 -81 -381t-267 -131q0 -123 41 -164t163 -41v-103q-199 0 -263 61.5t-64 246.5q-186 16 -267 131t-81 381z" />
<glyph unicode="&#x173;" horiz-adv-x="931" d="M113 287v737h184v-737q0 -184 184 -185q82 0 144 41v881h184v-1024h-41q0 -137 41 -181t164 -44v-103q-209 0 -273.5 73t-64.5 316h-10q-109 -82 -246 -81q-266 0 -266 307z" />
<glyph unicode="&#x178;" horiz-adv-x="921" d="M20 1434h185l256 -697l256 697h184l-348 -902v-532h-184v532zM215 1556v246h174v-246h-174zM532 1556v246h175v-246h-175z" />
<glyph unicode="&#x179;" horiz-adv-x="849" d="M41 0v133l532 1157h-522v144h737v-134l-532 -1157h522v-143h-737zM338 1556l72 308h194l-143 -308h-123z" />
<glyph unicode="&#x17a;" horiz-adv-x="757" d="M61 0v123l420 758h-399v143h614v-123l-417 -758h407v-143h-625zM307 1147l72 307h194l-143 -307h-123z" />
<glyph unicode="&#x17b;" horiz-adv-x="849" d="M41 0v133l532 1157h-522v144h737v-134l-532 -1157h522v-143h-737zM338 1556v246h174v-246h-174z" />
<glyph unicode="&#x17c;" horiz-adv-x="757" d="M61 0v123l420 758h-399v143h614v-123l-417 -758h407v-143h-625zM307 1147v246h174v-246h-174z" />
<glyph unicode="&#x17d;" horiz-adv-x="849" d="M41 0v133l532 1157h-522v144h737v-134l-532 -1157h522v-143h-737zM154 1812l102 72l164 -184l164 184l102 -72l-194 -256h-144z" />
<glyph unicode="&#x17e;" horiz-adv-x="757" d="M61 0v123l420 758h-399v143h614v-123l-417 -758h407v-143h-625zM123 1403l102 72l164 -185l164 185l102 -72l-194 -256h-144z" />
<glyph unicode="&#x192;" horiz-adv-x="573" d="M-164 -287h144q57 0 100 50.5t43 175.5v952h-123v123h123v71q0 201 73.5 275t213.5 74q82 0 184 -41v-82h-143q-57 0 -100.5 -50.5t-43.5 -175.5v-61h266v-92q-123 -41 -245 -41h-21v-952q0 -201 -73.5 -275t-213.5 -74q-82 0 -184 41v82z" />
<glyph unicode="&#x2c6;" horiz-adv-x="655" d="M61 1178l195 256h143l195 -256l-102 -72l-164 184l-164 -184z" />
<glyph unicode="&#x2c7;" horiz-adv-x="655" d="M61 1362l103 72l164 -185l164 185l102 -72l-195 -256h-143z" />
<glyph unicode="&#x2d9;" horiz-adv-x="296" d="M61 1188v246h175v-246h-175z" />
<glyph unicode="&#x2db;" horiz-adv-x="348" d="M20 0h123q0 -137 41 -181t164 -44v-103q-201 0 -264.5 63.5t-63.5 264.5z" />
<glyph unicode="&#x2dc;" horiz-adv-x="675" d="M61 1423h103q0 -57 16.5 -95t44.5 -38q25 0 50.5 36t63.5 72t91 36q102 0 143 -65.5t41 -190.5h-102q0 57 -16.5 95t-44.5 38q-25 0 -50.5 -36t-63.5 -72t-91 -36q-102 0 -143.5 65.5t-41.5 190.5z" />
<glyph unicode="&#x401;" horiz-adv-x="880" d="M123 0v1434h696v-144h-512v-471h451v-143h-451v-533h512v-143h-696zM225 1556v246h174v-246h-174zM543 1556v246h174v-246h-174z" />
<glyph unicode="&#x402;" horiz-adv-x="1146" d="M20 1290v144h738v-144h-277v-430q92 31 246 31q358 0 358 -389v-174q0 -201 -73.5 -274.5t-212.5 -73.5q-82 0 -205 40v93h164q57 0 100 49t43 166v174q0 131 -65.5 193.5t-210.5 62.5h-144v-758h-184v1290h-277z" />
<glyph unicode="&#x403;" horiz-adv-x="778" d="M123 0v1434h635v-144h-451v-1290h-184zM348 1556l72 308h194l-143 -308h-123z" />
<glyph unicode="&#x404;" horiz-adv-x="921" d="M102 717q0 211 29 356.5t87 228t134 117.5t180 35q184 0 308 -41v-92h-267q-272 0 -286 -512h430v-143h-430q8 -307 83.5 -430t223.5 -123h266v-93q-123 -41 -307 -40q-152 0 -247 63t-149.5 228t-54.5 446z" />
<glyph unicode="&#x405;" horiz-adv-x="901" d="M72 1044q0 215 97 312.5t312 97.5q184 0 307 -41v-92h-266q-139 0 -202.5 -65.5t-63.5 -211.5q0 -86 59.5 -139t143.5 -83.5t168 -69.5t143 -124t59 -218q0 -229 -99 -329.5t-331 -100.5q-184 0 -307 40v93h266q154 0 220.5 68.5t66.5 228.5q0 80 -59.5 130t-143.5 79.5 t-168 68.5t-143 128t-59 228z" />
<glyph unicode="&#x406;" d="M123 0v1434h184v-1434h-184z" />
<glyph unicode="&#x407;" d="M-31 1556v246h174v-246h-174zM123 0v1434h184v-1434h-184zM287 1556v246h174v-246h-174z" />
<glyph unicode="&#x408;" horiz-adv-x="706" d="M0 20v93h184q115 0 170.5 83t55.5 296v942h184v-942q0 -287 -95.5 -399.5t-314.5 -112.5q-82 -1 -184 40z" />
<glyph unicode="&#x409;" horiz-adv-x="1587" d="M20 0v102q37 0 63 7.5t50.5 32t40.5 63.5t30.5 110.5t24 164.5t16.5 235.5t12 313.5t9 405h666v-594q164 20 266 20q328 0 328 -440q0 -240 -102.5 -340t-348.5 -100q-190 0 -327 40v1270h-308q-10 -528 -44 -815t-90 -391t-152 -104q-52 0 -134 20zM932 113h143 q141 0 203.5 70.5t62.5 236.5t-62 236.5t-204 70.5h-143v-614z" />
<glyph unicode="&#x40a;" horiz-adv-x="1576" d="M123 0v1434h184v-635h430v635h185v-635q164 20 266 20q328 0 328 -420q0 -225 -103.5 -322t-347.5 -97q-190 0 -328 40v635h-430v-655h-184zM922 113h143q139 0 202.5 67.5t63.5 219t-63.5 219t-202.5 67.5h-143v-573z" />
<glyph unicode="&#x40b;" horiz-adv-x="1167" d="M20 1290v144h738v-144h-277v-430q92 31 246 31q358 0 358 -389v-502h-184v502q0 131 -65.5 193.5t-210.5 62.5h-144v-758h-184v1290h-277z" />
<glyph unicode="&#x40c;" horiz-adv-x="983" d="M123 0v1434h184v-615q115 0 161 46t85 200q55 223 109.5 316.5t136.5 93.5q51 0 133 -21v-92q-74 0 -114 -63.5t-81 -233.5q-39 -154 -81 -226.5t-103 -86.5v-9q70 -16 111 -94t73 -260q29 -168 77 -232.5t159 -64.5v-92q-82 -20 -133 -20q-127 0 -187.5 93t-99.5 316 q-33 182 -78 234.5t-168 52.5v-676h-184zM410 1556l71 308h195l-144 -308h-122z" />
<glyph unicode="&#x40e;" horiz-adv-x="921" d="M20 1434h175l215 -758q29 -113 92 -113l225 871h174l-287 -1106q-61 -213 -123.5 -280.5t-193.5 -67.5q-82 0 -184 40v93h143q80 0 122 58t93 259q-92 0 -144.5 54.5t-90.5 191.5zM184 1710l72 82q92 -92 215 -92t215 92l72 -82q-106 -154 -287 -154t-287 154z" />
<glyph unicode="&#x40f;" horiz-adv-x="1044" d="M123 0v1434h184v-1291h430v1291h185v-1434h-308q0 -164 -30 -287h-123q-31 123 -31 287h-307z" />
<glyph unicode="&#x410;" horiz-adv-x="1044" d="M41 0l348 1434h266l349 -1434h-185l-92 369h-410l-92 -369h-184zM348 512h348l-170 717h-8z" />
<glyph unicode="&#x411;" horiz-adv-x="983" d="M123 20v1414h717v-144h-533v-450q164 20 266 20q328 0 328 -440q0 -240 -102.5 -340t-347.5 -100q-191 -1 -328 40zM307 113h144q141 0 203.5 70.5t62.5 236.5t-62.5 236.5t-203.5 70.5h-144v-614z" />
<glyph unicode="&#x412;" horiz-adv-x="1003" d="M123 20v1393q137 41 328 41q213 0 311 -92t98 -286.5t-164 -303.5v-8q117 -29 171.5 -131.5t54.5 -243.5q0 -219 -106.5 -314t-364.5 -95q-191 -1 -328 40zM307 113h164q139 0 202.5 64.5t63.5 211.5q0 160 -63.5 228.5t-202.5 68.5h-164v-573zM307 819h103 q137 0 201.5 62.5t64.5 193.5q0 246 -266 246h-103v-502z" />
<glyph unicode="&#x413;" horiz-adv-x="778" d="M123 0v1434h635v-144h-451v-1290h-184z" />
<glyph unicode="&#x414;" horiz-adv-x="1064" d="M20 143h93q102 274 133 1291h655v-1291h123v-450h-113q-47 123 -61 307h-655q-14 -184 -62 -307h-113v450zM297 143h420v1147h-297q-43 -868 -123 -1147z" />
<glyph unicode="&#x415;" horiz-adv-x="880" d="M123 0v1434h696v-144h-512v-471h451v-143h-451v-533h512v-143h-696z" />
<glyph unicode="&#x416;" horiz-adv-x="1454" d="M10 0v92q111 0 159 64.5t77 232.5q33 182 73.5 260t110.5 94v9q-61 14 -103 86.5t-81 226.5q-41 170 -81 233.5t-114 63.5v92q82 20 133 21q82 0 136.5 -93.5t109.5 -316.5q37 -152 78 -199t127 -47v615h184v-615q86 0 127 47t78 199q55 223 109.5 316.5t136.5 93.5 q51 0 133 -21v-92q-74 0 -114 -63.5t-81 -233.5q-39 -154 -81 -226.5t-103 -86.5v-9q70 -16 111 -94t73 -260q29 -168 77 -232.5t159 -64.5v-92q-82 -20 -133 -20q-127 0 -187.5 93t-99.5 316q-31 180 -71 233.5t-134 53.5v-676h-184v676q-94 0 -134 -53.5t-71 -233.5 q-39 -223 -99.5 -316t-187.5 -93q-51 0 -133 20z" />
<glyph unicode="&#x417;" horiz-adv-x="880" d="M41 20v93h287q154 0 220 64.5t66 211.5q0 154 -66.5 220.5t-219.5 66.5h-144v143h123q137 0 201.5 62.5t64.5 193.5q0 246 -266 246h-246v92q123 41 267 41q227 0 328.5 -92t101.5 -287q0 -221 -185 -313v-8q115 -29 170.5 -129.5t55.5 -235.5q0 -219 -106.5 -314 t-364.5 -95q-164 -1 -287 40z" />
<glyph unicode="&#x418;" horiz-adv-x="1064" d="M123 0v1434h184v-1045h10l410 1045h215v-1434h-184v1044h-10l-420 -1044h-205z" />
<glyph unicode="&#x419;" horiz-adv-x="1064" d="M123 0v1434h184v-1045h10l410 1045h215v-1434h-184v1044h-10l-420 -1044h-205zM246 1710l71 82q92 -92 215 -92t216 92l71 -82q-106 -154 -286.5 -154t-286.5 154z" />
<glyph unicode="&#x41a;" horiz-adv-x="983" d="M123 0v1434h184v-615q115 0 161 46t85 200q55 223 109.5 316.5t136.5 93.5q51 0 133 -21v-92q-74 0 -114 -63.5t-81 -233.5q-39 -154 -81 -226.5t-103 -86.5v-9q70 -16 111 -94t73 -260q29 -168 77 -232.5t159 -64.5v-92q-82 -20 -133 -20q-127 0 -187.5 93t-99.5 316 q-33 182 -78 234.5t-168 52.5v-676h-184z" />
<glyph unicode="&#x41b;" horiz-adv-x="1054" d="M20 0v102q37 0 63 7.5t50.5 32t40.5 63.5t30.5 110.5t24 164.5t16.5 235.5t12 313.5t9 405h666v-1434h-184v1290h-308q-10 -528 -44 -815t-90 -391t-152 -104q-52 0 -134 20z" />
<glyph unicode="&#x41c;" horiz-adv-x="1454" d="M102 0l82 1434h226l313 -922h8l313 922h226l82 -1434h-185l-61 1065h-10l-277 -809h-184l-277 809h-10l-61 -1065h-185z" />
<glyph unicode="&#x41d;" horiz-adv-x="1044" d="M123 0v1434h184v-635h430v635h185v-1434h-185v655h-430v-655h-184z" />
<glyph unicode="&#x41e;" horiz-adv-x="1085" d="M102 717q0 211 29 356.5t88.5 228t137 117.5t186 35t186.5 -35t137.5 -117.5t88 -228t28.5 -356.5t-28.5 -356.5t-88 -228.5t-137.5 -117.5t-186.5 -34.5t-186 34.5t-137 117.5t-88.5 228.5t-29 356.5zM287 716.5q0 -614.5 256 -614.5t256 614.5t-256 614.5t-256 -614.5z " />
<glyph unicode="&#x41f;" horiz-adv-x="1044" d="M123 0v1434h799v-1434h-185v1290h-430v-1290h-184z" />
<glyph unicode="&#x420;" horiz-adv-x="983" d="M123 0v1413q137 41 328 41q248 0 349 -111.5t101 -400.5q0 -281 -86 -396.5t-262 -115.5q-154 0 -246 31v-461h-184zM307 563h144q143 0 204.5 81t61.5 298t-61.5 298t-204.5 81h-144v-758z" />
<glyph unicode="&#x421;" horiz-adv-x="921" d="M102 717q0 211 29 356.5t87 228t134 117.5t180 35q184 0 308 -41v-92h-267q-137 0 -211.5 -133t-74.5 -471q0 -340 77.5 -472t229.5 -132h266v-93q-123 -41 -307 -40q-152 0 -247 63t-149.5 228t-54.5 446z" />
<glyph unicode="&#x422;" horiz-adv-x="880" d="M20 1290v144h840v-144h-328v-1290h-184v1290h-328z" />
<glyph unicode="&#x423;" horiz-adv-x="921" d="M20 1434h175l215 -758q29 -113 92 -113l225 871h174l-287 -1106q-61 -213 -123.5 -280.5t-193.5 -67.5q-82 0 -184 40v93h143q80 0 122 58t93 259q-92 0 -144.5 54.5t-90.5 191.5z" />
<glyph unicode="&#x424;" horiz-adv-x="1310" d="M72 717q0 303 120.5 438t370.5 135v185h185v-185q250 0 370.5 -135t120.5 -438t-121 -438.5t-370 -135.5v-184h-185v184q-250 0 -370.5 135.5t-120.5 438.5zM256 716.5q0 -440.5 307 -440.5l4 21v840l-4 20q-307 0 -307 -440.5zM743 297l5 -21q307 0 307 440.5 t-307 440.5l-5 -20v-840z" />
<glyph unicode="&#x425;" horiz-adv-x="942" d="M31 0l307 737l-277 697h185l225 -574l225 574h185l-277 -697l307 -737h-184l-256 614l-256 -614h-184z" />
<glyph unicode="&#x426;" horiz-adv-x="1064" d="M123 0v1434h184v-1291h410v1291h184v-1291h123v-450h-113q-47 123 -61 307h-727z" />
<glyph unicode="&#x427;" horiz-adv-x="1003" d="M92 932v502h184v-502q0 -131 66 -193.5t211 -62.5h143v758h185v-1434h-185v573q-92 -31 -245 -30q-359 0 -359 389z" />
<glyph unicode="&#x428;" horiz-adv-x="1495" d="M123 0v1434h184v-1291h348v1291h185v-1291h348v1291h184v-1434h-1249z" />
<glyph unicode="&#x429;" horiz-adv-x="1536" d="M123 0v1434h184v-1291h348v1291h185v-1291h348v1291h184v-1291h123v-450h-113q-47 123 -61 307h-1198z" />
<glyph unicode="&#x42a;" horiz-adv-x="1126" d="M20 1290v144h451v-594q164 20 266 20q328 0 328 -440q0 -240 -102.5 -340t-348.5 -100q-190 0 -327 40v1270h-267zM471 113h143q141 0 204 70.5t63 236.5t-62.5 236.5t-204.5 70.5h-143v-614z" />
<glyph unicode="&#x42b;" horiz-adv-x="1351" d="M123 20v1414h184v-594q164 20 266 20q317 0 318 -440q0 -238 -101.5 -339t-338.5 -101q-191 -1 -328 40zM307 113h144q133 0 194.5 70.5t61.5 236.5t-61.5 236.5t-194.5 70.5h-144v-614zM1044 0v1434h185v-1434h-185z" />
<glyph unicode="&#x42c;" horiz-adv-x="962" d="M123 20v1414h184v-594q164 20 266 20q328 0 328 -440q0 -240 -102.5 -340t-347.5 -100q-191 -1 -328 40zM307 113h144q141 0 203.5 70.5t62.5 236.5t-62.5 236.5t-203.5 70.5h-144v-614z" />
<glyph unicode="&#x42d;" horiz-adv-x="921" d="M61 20v93h267q147 0 223 122.5t84 430.5h-430v143h430q-14 512 -287 512h-266v92q123 41 307 41q104 0 180 -35t134.5 -117.5t87 -228t28.5 -356.5q0 -281 -54 -446t-149.5 -228t-246.5 -63q-185 -1 -308 40z" />
<glyph unicode="&#x42e;" horiz-adv-x="1402" d="M123 0v1434h184v-635h154q23 362 125 508.5t295 146.5q207 0 313 -165t106 -572.5t-106.5 -572t-312.5 -164.5q-195 0 -296.5 149.5t-123.5 525.5h-154v-655h-184zM645 716.5q0 -141.5 14.5 -252t36 -177t53 -109.5t63.5 -59.5t69 -16.5t68.5 16.5t63 59.5t53 109.5 t36 177t14.5 252t-14.5 252t-36 177t-53 109.5t-63 59.5t-68.5 16.5t-69 -16.5t-63.5 -59.5t-53 -109.5t-36 -177t-14.5 -252z" />
<glyph unicode="&#x42f;" horiz-adv-x="983" d="M10 0v92q102 0 147.5 63.5t78.5 233.5q23 115 53 163t90 75v8q-49 8 -92 29.5t-87 63.5t-71 118t-27 178q0 201 115 315.5t315 114.5q190 0 328 -41v-1413h-184v584q-135 0 -184.5 -39t-71.5 -156q-41 -225 -99.5 -317t-177.5 -92q-51 0 -133 20zM287 1024 q0 -129 82 -213t204 -84h103v594h-103q-123 0 -204.5 -84t-81.5 -213z" />
<glyph unicode="&#x430;" horiz-adv-x="890" d="M82 287q0 297 266 297q123 0 246 -21v133q0 131 -54.5 178.5t-170.5 47.5h-205v82q123 41 246 40q197 0 282.5 -71.5t85.5 -276.5v-696h-164l-10 61h-10q-109 -82 -246 -81q-266 0 -266 307zM266 286.5q0 -184.5 185 -184.5q82 0 143 41v328h-143q-185 0 -185 -184.5z " />
<glyph unicode="&#x431;" horiz-adv-x="952" d="M113 471v348q0 332 120.5 473.5t380.5 141.5h205v-82q-123 -41 -245.5 -41t-199.5 -102.5t-77 -307.5q123 41 246 41q76 0 127 -16.5t95 -64.5t64.5 -144t20.5 -246q0 -268 -89 -379.5t-279.5 -111.5t-279.5 111.5t-89 379.5zM297 471q0 -379 184.5 -379t184.5 379 q0 213 -56.5 280.5t-179.5 67.5h-133v-348z" />
<glyph unicode="&#x432;" horiz-adv-x="880" d="M123 31v962q137 41 328 41q156 0 236.5 -61.5t80.5 -214.5q0 -170 -123 -211v-8q164 -41 164 -252q0 -170 -86 -233.5t-272 -63.5q-191 0 -328 41zM307 113h144q174 0 174 174q0 184 -174 184h-144v-358zM307 594h103q72 0 123 40t51 124q0 80 -49.5 116.5t-124.5 36.5 h-103v-317z" />
<glyph unicode="&#x433;" horiz-adv-x="696" d="M123 0v1024h553v-133h-369v-891h-184z" />
<glyph unicode="&#x434;" horiz-adv-x="972" d="M20 133h82q96 143 123 891h584v-891h123v-420h-113q-45 119 -61 287h-563q-16 -168 -62 -287h-113v420zM287 133h338v758h-226q-38 -590 -112 -758z" />
<glyph unicode="&#x435;" horiz-adv-x="901" d="M102 471q0 324 85 448.5t263.5 124.5t263.5 -124.5t85 -448.5h-512q0 -209 61.5 -289t204.5 -80h205v-82q-123 -41 -246 -40q-219 0 -314.5 109.5t-95.5 381.5zM287 594h327q0 178 -47 258t-116.5 80t-116.5 -80t-47 -258z" />
<glyph unicode="&#x436;" horiz-adv-x="1228" d="M10 0v82q86 0 126 48t59 136q27 129 60.5 193.5t92.5 79.5v8q-82 27 -133 231q-41 164 -174 164v82q82 20 133 20q154 0 215 -266q23 -96 54.5 -135t78.5 -39v420h185v-420q47 0 78.5 39t54.5 135q61 266 215 266q51 0 133 -20v-82q-133 0 -174 -164q-51 -205 -133 -231 v-8q59 -14 93 -79t60 -194q18 -88 58.5 -136t126.5 -48v-82q-82 -20 -134 -20q-172 0 -225 286q-23 119 -56.5 162t-96.5 43v-471h-185v471q-63 0 -97 -43t-56 -162q-53 -287 -226 -286q-51 0 -133 20z" />
<glyph unicode="&#x437;" horiz-adv-x="737" d="M41 20v82h246q195 0 194 185q0 98 -46 141t-118 43h-143v123h123q70 0 117 39t47 125q0 164 -195 164h-205v82q123 41 246 40q172 0 255 -62t83 -224q0 -164 -143 -211v-8q164 -41 164 -252q0 -176 -88.5 -241.5t-290.5 -65.5q-123 -1 -246 40z" />
<glyph unicode="&#x438;" horiz-adv-x="952" d="M123 0v1024h174v-696h10l318 696h204v-1024h-174v717h-10l-328 -717h-194z" />
<glyph unicode="&#x439;" horiz-adv-x="952" d="M123 0v1024h174v-696h10l318 696h204v-1024h-174v717h-10l-328 -717h-194zM195 1290l71 82q82 -82 205 -82t205 82l72 -82q-100 -143 -276.5 -143t-276.5 143z" />
<glyph unicode="&#x43a;" horiz-adv-x="870" d="M123 0v1024h184v-420q78 0 115 37t59 137q61 266 215 266q51 0 133 -20v-82q-133 0 -174 -164q-51 -205 -133 -231v-8q59 -14 94 -80t60 -193q33 -184 184 -184v-82q-82 -20 -133 -20q-172 0 -225 286q-23 123 -63 164t-132 41v-471h-184z" />
<glyph unicode="&#x43b;" horiz-adv-x="952" d="M20 0v92q61 0 96.5 32t61 136.5t37.5 279.5t21 484h593v-1024h-184v891h-235q-14 -489 -77 -700t-179 -211q-52 0 -134 20z" />
<glyph unicode="&#x43c;" horiz-adv-x="1208" d="M102 0l62 1024h215l221 -625h8l221 625h215l62 -1024h-174l-41 707h-10l-185 -512h-184l-184 512h-11l-41 -707h-174z" />
<glyph unicode="&#x43d;" horiz-adv-x="931" d="M123 0v1024h184v-420h318v420h184v-1024h-184v471h-318v-471h-184z" />
<glyph unicode="&#x43e;" horiz-adv-x="962" d="M102 512q0 297 90.5 414.5t289 117.5t288.5 -117.5t90 -414.5t-90 -414.5t-288.5 -117.5t-289 117.5t-90.5 414.5zM287 512q0 -238 50 -329t144 -91t144.5 91t50.5 329t-50.5 329t-144.5 91t-144 -91t-50 -329z" />
<glyph unicode="&#x43f;" horiz-adv-x="931" d="M123 0v1024h686v-1024h-184v891h-318v-891h-184z" />
<glyph unicode="&#x440;" horiz-adv-x="942" d="M123 -410v1434h164l10 -61h10q109 82 246 81q287 0 287 -532t-287 -532q-137 0 -246 81v-471h-184zM307 143q61 -41 144 -41q100 0 152 89.5t52 320.5t-52 320.5t-152 89.5q-82 0 -144 -41v-738z" />
<glyph unicode="&#x441;" horiz-adv-x="778" d="M102 512q0 297 88.5 414.5t280.5 117.5q123 0 246 -40v-82h-205q-115 0 -170 -88.5t-55 -321.5q0 -236 58 -323t187 -87h205v-82q-123 -41 -245 -40q-207 0 -298.5 116.5t-91.5 415.5z" />
<glyph unicode="&#x442;" horiz-adv-x="757" d="M20 891v133h717v-133h-266v-891h-184v891h-267z" />
<glyph unicode="&#x443;" horiz-adv-x="839" d="M41 1024h174l164 -778q29 -113 72 -113l174 891h174l-205 -1085q-45 -221 -107.5 -290t-210.5 -69q-82 0 -184 41v82h144q80 0 118.5 55.5t75.5 241.5q-94 0 -144 54.5t-81 191.5z" />
<glyph unicode="&#x444;" horiz-adv-x="1228" d="M92 512q0 279 105.5 400.5t324.5 121.5v400h185v-400q219 0 324.5 -121.5t105.5 -400.5t-105.5 -400.5t-324.5 -121.5v-400h-185v400q-219 0 -324.5 121.5t-105.5 400.5zM276 512q0 -399 246 -399l4 20v758l-4 20q-246 0 -246 -399zM702 133l5 -20q246 0 245.5 399 t-245.5 399l-5 -20v-758z" />
<glyph unicode="&#x445;" horiz-adv-x="798" d="M20 0l256 522l-215 502h185l153 -389l154 389h184l-215 -502l256 -522h-184l-195 410l-194 -410h-185z" />
<glyph unicode="&#x446;" horiz-adv-x="962" d="M123 0v1024h184v-891h307v891h185v-891h123v-420h-113q-45 119 -61 287h-625z" />
<glyph unicode="&#x447;" horiz-adv-x="890" d="M92 666v358h184v-358q0 -174 185 -174h123v532h184v-1024h-184v389q-102 -20 -226 -20q-266 0 -266 297z" />
<glyph unicode="&#x448;" horiz-adv-x="1331" d="M123 0v1024h184v-891h266v891h185v-891h266v891h184v-1024h-1085z" />
<glyph unicode="&#x449;" horiz-adv-x="1372" d="M123 0v1024h184v-891h266v891h185v-891h266v891h184v-891h123v-420h-112q-45 119 -62 287h-1034z" />
<glyph unicode="&#x44a;" horiz-adv-x="1003" d="M20 891v133h410v-420q123 20 246 21q125 0 195.5 -66.5t70.5 -251t-87 -251t-282 -66.5q-190 0 -327 41v860h-226zM430 113h143q184 0 184.5 194.5t-184.5 194.5h-143v-389z" />
<glyph unicode="&#x44b;" horiz-adv-x="1249" d="M123 31v993h184v-420q123 20 246 21q256 0 256 -318q0 -182 -85 -249.5t-273 -67.5q-191 0 -328 41zM307 113h144q174 0 174 194.5t-174 194.5h-144v-389zM942 0v1024h184v-1024h-184z" />
<glyph unicode="&#x44c;" horiz-adv-x="880" d="M123 31v993h184v-420q123 20 246 21q125 0 195.5 -66.5t70.5 -251t-87 -251t-281 -66.5q-191 0 -328 41zM307 113h144q184 0 184 194.5t-184 194.5h-144v-389z" />
<glyph unicode="&#x44d;" horiz-adv-x="778" d="M41 20v82h205q121 0 179 79t67 280h-318v133h318q-8 176 -64.5 252t-161.5 76h-205v82q123 41 246 40q193 0 281 -117.5t88 -414.5q0 -299 -91 -415.5t-298 -116.5q-123 -1 -246 40z" />
<glyph unicode="&#x44e;" horiz-adv-x="1259" d="M123 0v1024h184v-430h133q14 240 103.5 345t255.5 105q184 0 271 -117.5t87 -414.5t-87 -414.5t-271 -117.5q-168 0 -256 108.5t-103 362.5h-133v-451h-184zM625 512q0 -420 174 -420t174 420t-174 420t-174 -420z" />
<glyph unicode="&#x44f;" horiz-adv-x="870" d="M10 0v82q78 0 117 48t57 136q27 137 123 185v8q-94 12 -159.5 75.5t-65.5 202.5q0 168 83 232.5t255 64.5q190 0 328 -41v-993h-185v420q-98 0 -143 -34t-62 -120q-53 -287 -225 -286q-62 0 -123 20zM266 737q0 -98 43 -141t101 -43h153v358h-143q-63 0 -108.5 -41 t-45.5 -133z" />
<glyph unicode="&#x451;" horiz-adv-x="901" d="M102 471q0 324 85 448.5t263.5 124.5t263.5 -124.5t85 -448.5h-512q0 -209 61.5 -289t204.5 -80h205v-82q-123 -41 -246 -40q-219 0 -314.5 109.5t-95.5 381.5zM205 1167v246h174v-246h-174zM287 604h327q0 170 -47 249t-116.5 79t-116.5 -79t-47 -249zM522 1167v246h174 v-246h-174z" />
<glyph unicode="&#x452;" horiz-adv-x="921" d="M0 1178v122h133v134h174v-123h266v-92q-123 -41 -245 -41h-21v-256q109 82 246 82q266 0 266 -308v-368q0 -209 -49 -278.5t-176 -69.5q-82 0 -164 40v82h102q51 0 77 48.5t26 177.5v368q0 184 -184 185q-82 0 -144 -41v-840h-184v1178h-123z" />
<glyph unicode="&#x453;" horiz-adv-x="696" d="M123 0v1024h553v-133h-369v-891h-184zM307 1147l72 307h194l-143 -307h-123z" />
<glyph unicode="&#x454;" horiz-adv-x="778" d="M102 512q0 297 88.5 414.5t280.5 117.5q123 0 246 -40v-82h-205q-104 0 -160.5 -76t-64.5 -252h317v-133h-317q8 -201 66.5 -280t178.5 -79h205v-82q-123 -41 -245 -40q-207 0 -298.5 116.5t-91.5 415.5z" />
<glyph unicode="&#x455;" horiz-adv-x="757" d="M61 778q0 147 85 206.5t264 59.5q123 0 245 -40v-82h-204q-205 0 -205 -144q0 -57 33.5 -95t83 -55.5t108.5 -44t108.5 -57t83 -97.5t33.5 -163q0 -162 -88 -224t-280 -62q-123 0 -246 40v82h205q113 0 169 38t56 126q0 57 -34 95t-83 55.5t-108.5 44t-108.5 57.5 t-83 97.5t-34 162.5z" />
<glyph unicode="&#x456;" d="M123 0v1024h184v-1024h-184zM123 1147v246h184v-246h-184z" />
<glyph unicode="&#x457;" d="M-31 1147v246h174v-246h-174zM123 0v1024h184v-1024h-184zM287 1147v246h174v-246h-174z" />
<glyph unicode="&#x458;" d="M-164 -287h144q57 0 100 50.5t43 175.5v1085h184v-1085q0 -201 -73.5 -275t-213.5 -74q-82 0 -184 41v82zM123 1147v246h184v-246h-184z" />
<glyph unicode="&#x459;" horiz-adv-x="1402" d="M20 0v92q61 0 96.5 32t61 136.5t37.5 279.5t21 484h593v-420q123 20 246 21q125 0 195.5 -66.5t70.5 -251t-87 -251t-281 -66.5q-190 0 -328 41v860h-235q-14 -489 -77 -700t-179 -211q-52 0 -134 20zM829 113h144q184 0 184 194.5t-184 194.5h-144v-389z" />
<glyph unicode="&#x45a;" horiz-adv-x="1382" d="M123 0v1024h184v-420h318v420h184v-420q123 20 246 21q125 0 195.5 -66.5t70.5 -251t-87 -251t-282 -66.5q-190 0 -327 41v440h-318v-471h-184zM809 113h143q184 0 184.5 194.5t-184.5 194.5h-143v-389z" />
<glyph unicode="&#x45b;" horiz-adv-x="931" d="M0 1178v122h133v134h174v-123h266v-92q-123 -41 -245 -41h-21v-256q109 82 246 82q266 0 266 -308v-696h-184v696q0 184 -184 185q-82 0 -144 -41v-840h-184v1178h-123z" />
<glyph unicode="&#x45c;" horiz-adv-x="870" d="M123 0v1024h184v-420q78 0 115 37t59 137q61 266 215 266q51 0 133 -20v-82q-133 0 -174 -164q-51 -205 -133 -231v-8q59 -14 94 -80t60 -193q33 -184 184 -184v-82q-82 -20 -133 -20q-172 0 -225 286q-23 123 -63 164t-132 41v-471h-184zM369 1147l71 307h195l-143 -307 h-123z" />
<glyph unicode="&#x45e;" horiz-adv-x="839" d="M41 1024h174l164 -778q29 -113 72 -113l174 891h174l-205 -1085q-45 -221 -107.5 -290t-210.5 -69q-82 0 -184 41v82h144q80 0 118.5 55.5t75.5 241.5q-94 0 -144 54.5t-81 191.5zM154 1290l71 82q82 -82 205 -82t205 82l72 -82q-100 -143 -276.5 -143t-276.5 143z" />
<glyph unicode="&#x45f;" horiz-adv-x="921" d="M123 0v1024h184v-891h307v891h185v-1024h-246q0 -143 -31 -266h-123q-31 123 -30 266h-246z" />
<glyph unicode="&#x490;" horiz-adv-x="778" d="M123 0v1434h491q0 102 31 163h113v-307h-451v-1290h-184z" />
<glyph unicode="&#x491;" horiz-adv-x="696" d="M123 0v1024h409q0 102 31 164h113v-297h-369v-891h-184z" />
<glyph unicode="&#x2000;" horiz-adv-x="952" />
<glyph unicode="&#x2001;" horiz-adv-x="1904" />
<glyph unicode="&#x2002;" horiz-adv-x="952" />
<glyph unicode="&#x2003;" horiz-adv-x="1904" />
<glyph unicode="&#x2004;" horiz-adv-x="634" />
<glyph unicode="&#x2005;" horiz-adv-x="475" />
<glyph unicode="&#x2006;" horiz-adv-x="317" />
<glyph unicode="&#x2007;" horiz-adv-x="317" />
<glyph unicode="&#x2008;" horiz-adv-x="237" />
<glyph unicode="&#x2009;" horiz-adv-x="380" />
<glyph unicode="&#x200a;" horiz-adv-x="104" />
<glyph unicode="&#x2010;" horiz-adv-x="737" d="M61 594v164h615v-164h-615z" />
<glyph unicode="&#x2011;" horiz-adv-x="737" d="M61 594v164h615v-164h-615z" />
<glyph unicode="&#x2012;" horiz-adv-x="737" d="M61 594v164h615v-164h-615z" />
<glyph unicode="&#x2013;" horiz-adv-x="819" d="M61 594v164h697v-164h-697z" />
<glyph unicode="&#x2014;" horiz-adv-x="1024" d="M61 594v164h902v-164h-902z" />
<glyph unicode="&#x2018;" horiz-adv-x="348" d="M82 952l61 482h123v-482h-184z" />
<glyph unicode="&#x2019;" horiz-adv-x="348" d="M82 952v482h184l-61 -482h-123z" />
<glyph unicode="&#x201a;" horiz-adv-x="348" d="M82 236h184l-61 -482h-123v482z" />
<glyph unicode="&#x201c;" horiz-adv-x="655" d="M82 952l61 482h123v-482h-184zM389 952l62 482h122v-482h-184z" />
<glyph unicode="&#x201d;" horiz-adv-x="655" d="M82 952v482h184l-61 -482h-123zM389 952v482h184l-61 -482h-123z" />
<glyph unicode="&#x201e;" horiz-adv-x="655" d="M82 236h184l-61 -482h-123v482zM389 236h184l-61 -482h-123v482z" />
<glyph unicode="&#x2020;" horiz-adv-x="972" d="M61 799v143l338 -10l-10 502h195l-11 -502l338 10v-143l-348 10l21 -1219h-195l21 1219z" />
<glyph unicode="&#x2021;" horiz-adv-x="962" d="M61 82v143l338 -10l-10 297l10 297l-338 -10v143l338 -10l-10 502h184l-10 -502l338 10v-143l-338 10l10 -297l-10 -297l338 10v-143l-338 10l10 -502h-184l10 502z" />
<glyph unicode="&#x2022;" horiz-adv-x="614" d="M82 717q0 246 225 246t225 -246t-225 -246t-225 246z" />
<glyph unicode="&#x2026;" horiz-adv-x="1044" d="M82 -10v246h184v-246h-184zM430 -10v246h184v-246h-184zM778 -10v246h185v-246h-185z" />
<glyph unicode="&#x202f;" horiz-adv-x="380" />
<glyph unicode="&#x2030;" horiz-adv-x="2027" d="M61 1147q0 307 287 307t287 -307t-287 -307t-287 307zM184 0l799 1434h184l-798 -1434h-185zM205 1146.5q0 -194.5 143.5 -194.5t143.5 194.5t-143.5 194.5t-143.5 -194.5zM717 287q0 307 286.5 307t286.5 -307t-286.5 -307t-286.5 307zM860 286.5q0 -194.5 143.5 -194.5 t143.5 194.5t-143.5 194.5t-143.5 -194.5zM1393 287q0 307 286.5 307t286.5 -307t-286.5 -307t-286.5 307zM1536 286.5q0 -194.5 143.5 -194.5t143.5 194.5t-143.5 194.5t-143.5 -194.5z" />
<glyph unicode="&#x2039;" horiz-adv-x="563" d="M20 512l369 492l133 -82l-297 -406v-8l297 -406l-133 -82z" />
<glyph unicode="&#x203a;" horiz-adv-x="563" d="M41 102l297 406v8l-297 406l133 82l369 -492l-369 -492z" />
<glyph unicode="&#x205f;" horiz-adv-x="475" />
<glyph unicode="&#x20ac;" horiz-adv-x="962" d="M20 512l21 133h102v143h-123l21 134h113q29 293 134 412.5t285 119.5q184 0 308 -41v-92h-267q-111 0 -183.5 -89t-92.5 -310h420l-21 -134h-409v-143h379l-21 -133h-348q23 -223 97.5 -311t199.5 -88h266v-93q-123 -41 -307 -40q-195 0 -303.5 118.5t-136.5 413.5h-134z " />
<glyph unicode="&#x2116;" horiz-adv-x="1710" d="M123 0v1434h205l430 -1004h10v1004h174v-1434h-205l-430 1004h-10v-1004h-174zM1075 1147q0 307 287 307t287 -307t-287 -307t-287 307zM1116 594v143h492v-143h-492zM1239 1147q0 -184 123 -184t123 184t-123 184t-123 -184z" />
<glyph unicode="&#x2122;" horiz-adv-x="1228" d="M41 1352v82h440v-82h-164v-533h-112v533h-164zM532 819l41 615h134l143 -390l143 390h133l41 -615h-112l-31 420l-113 -317h-123l-114 317l-31 -420h-111z" />
<glyph unicode="&#xe000;" horiz-adv-x="1025" d="M0 1025h1025v-1025h-1025v1025z" />
<glyph d="M-20 1556v123h471v-123h-471zM123 0v1434h184v-1434h-184z" />
<glyph horiz-adv-x="1351" d="M61 1147q0 307 287 307t287 -307t-287 -307t-287 307zM184 0l799 1434h184l-798 -1434h-185zM205 1146.5q0 -194.5 143.5 -194.5t143.5 194.5t-143.5 194.5t-143.5 -194.5zM717 287q0 307 286.5 307t286.5 -307t-286.5 -307t-286.5 307zM860 286.5q0 -194.5 143.5 -194.5 t143.5 194.5t-143.5 194.5t-143.5 -194.5z" />
</font>
</defs>
</svg>
